{"glyphs":{"0":{"ha":907,"x_min":81,"x_max":825,"o":"m 453 -12 q 372 -12 453 -12 q 185 133 290 -12 q 81 503 81 278 q 185 867 81 728 q 454 1007 289 1007 q 722 867 619 1007 q 825 503 825 728 q 721 133 825 278 q 453 -12 617 -12 m 701 519 q 619 816 696 710 q 440 922 542 922 q 272 803 339 922 q 204 515 204 683 q 284 186 204 297 q 465 75 364 75 q 635 194 567 75 q 703 479 703 313 q 701 519 703 499 z "},"1":{"ha":488,"x_min":35,"x_max":358,"o":"m 324 883 l 324 86 q 358 32 324 46 q 286 -12 331 -12 q 207 85 207 -12 l 207 860 q 160 908 207 908 q 54 872 113 908 q 35 900 35 879 q 90 970 35 933 q 204 1007 144 1007 q 294 974 264 1007 q 324 883 324 940 z "},"2":{"ha":801,"x_min":74,"x_max":740,"o":"m 711 147 q 740 87 740 124 q 702 25 740 50 q 592 0 664 0 l 163 0 q 97 22 118 0 q 75 76 75 44 q 75 85 75 81 q 438 436 319 286 q 557 718 557 586 q 504 873 557 818 q 376 928 451 928 q 249 888 301 928 q 196 790 196 847 q 236 699 196 732 q 168 672 207 672 q 101 702 129 672 q 74 779 74 732 q 162 942 74 876 q 382 1007 250 1007 q 597 925 514 1007 q 681 706 681 843 q 566 426 681 568 q 210 93 451 285 l 571 107 q 711 147 667 108 z "},"3":{"ha":771,"x_min":64,"x_max":690,"o":"m 403 1007 q 455 1007 403 1007 q 577 950 507 1007 q 647 807 647 893 q 583 656 647 721 q 424 561 518 590 q 614 472 538 550 q 690 282 690 394 q 592 67 690 147 q 343 -12 493 -12 q 151 42 239 -12 q 64 172 64 96 q 82 223 64 203 q 126 249 100 243 q 231 122 163 168 q 387 75 299 75 q 535 126 475 75 q 594 251 594 178 q 511 412 594 351 q 314 472 428 472 q 235 463 269 472 q 218 498 218 472 q 267 553 218 524 q 375 607 317 582 q 483 678 433 632 q 532 784 532 725 q 487 877 532 843 q 374 911 442 911 q 151 832 246 911 q 125 865 125 840 q 212 956 125 904 q 403 1007 299 1007 z "},"4":{"ha":814,"x_min":75,"x_max":789,"o":"m 206 319 l 501 319 l 501 838 q 485 860 501 860 q 381 763 458 860 q 234 540 303 665 q 165 351 165 415 q 206 319 165 319 m 617 319 l 676 319 q 774 344 746 319 q 789 297 789 326 q 754 250 789 268 q 661 232 719 232 l 617 232 l 617 86 q 651 32 617 47 q 579 -12 626 -12 q 501 85 501 -12 l 501 232 l 188 232 q 75 325 75 232 q 128 512 75 394 q 256 738 182 629 q 413 927 329 847 q 551 1007 497 1007 q 617 919 617 1007 l 617 319 z "},"5":{"ha":765,"x_min":100,"x_max":679,"o":"m 383 617 q 596 533 513 617 q 679 320 679 450 q 585 89 679 190 q 353 -12 492 -12 q 178 38 257 -12 q 100 164 100 88 q 124 215 100 194 q 172 236 147 236 q 256 124 199 164 q 395 85 314 85 q 531 144 476 85 q 585 288 585 203 q 507 462 585 399 q 319 525 429 525 q 175 500 244 525 q 139 516 154 501 q 124 568 124 531 q 188 886 124 606 q 242 972 200 947 q 360 996 283 996 l 511 996 q 617 1022 582 996 q 640 971 640 1003 q 488 888 640 888 l 279 888 l 217 588 q 383 617 297 617 z "},"6":{"ha":835,"x_min":88,"x_max":757,"o":"m 88 419 q 247 833 88 658 q 613 1007 406 1007 q 676 968 676 1007 q 675 957 676 960 q 344 797 481 938 q 208 432 208 657 q 275 174 208 278 q 465 71 342 71 q 594 123 543 71 q 646 283 646 175 q 567 454 646 390 q 376 518 489 518 q 343 517 360 518 q 378 584 344 561 q 460 607 413 607 q 672 521 588 607 q 757 313 757 435 q 665 74 757 161 q 440 -12 574 -12 q 181 109 274 -12 q 88 419 88 231 z "},"7":{"ha":668,"x_min":33,"x_max":613,"o":"m 169 996 l 601 996 q 613 944 613 978 q 561 816 613 910 q 448 622 510 722 q 335 386 386 521 q 283 142 283 251 q 335 50 283 65 q 312 8 331 28 q 253 -12 293 -12 q 184 24 213 -12 q 156 127 156 61 q 189 290 156 193 q 288 506 222 386 q 521 897 383 681 q 390 885 471 885 l 172 885 q 64 843 103 885 q 33 902 33 857 q 72 972 33 947 q 169 996 111 996 z "},"8":{"ha":799,"x_min":83,"x_max":715,"o":"m 196 279 q 260 128 196 193 q 432 63 324 63 q 556 104 503 63 q 608 217 608 146 q 538 356 608 300 q 399 446 474 407 q 297 501 324 485 q 196 279 196 410 m 581 718 q 526 869 581 803 q 392 936 472 936 q 262 893 313 936 q 211 781 211 850 q 363 586 211 671 q 432 549 386 574 q 500 513 478 525 q 581 718 581 599 m 693 736 q 652 590 693 654 q 547 486 611 525 q 671 381 626 438 q 715 249 715 325 q 630 67 715 147 q 419 -12 544 -12 q 188 63 293 -12 q 83 261 83 139 q 131 419 83 347 q 250 531 178 492 q 141 629 179 576 q 103 765 103 682 q 185 928 103 849 q 388 1007 267 1007 q 601 932 508 1007 q 693 736 693 857 z "},"9":{"ha":772,"x_min":44,"x_max":714,"o":"m 714 567 q 649 288 714 421 q 469 71 583 154 q 222 -12 354 -12 q 177 -2 196 -12 q 158 22 158 8 q 160 39 158 36 q 472 199 346 57 q 597 544 597 342 q 483 861 597 751 q 336 921 419 921 q 201 872 253 921 q 150 739 150 824 q 244 539 150 611 q 436 478 325 478 q 475 479 456 478 q 441 412 475 435 q 358 389 407 389 q 134 483 224 389 q 44 708 44 576 q 133 924 44 840 q 350 1007 221 1007 q 617 883 519 1007 q 714 567 714 760 z "},"\u0000":{"ha":0,"x_min":0,"x_max":0,"o":""},"\r":{"ha":0,"x_min":0,"x_max":0,"o":""}," ":{"ha":378,"x_min":0,"x_max":0,"o":""},"!":{"ha":468,"x_min":146,"x_max":310,"o":"m 260 410 q 258 349 258 386 q 269 279 258 311 q 232 258 256 258 q 174 350 179 258 l 154 964 q 154 979 154 972 q 171 1055 154 1026 q 219 1083 188 1083 q 270 1055 251 1083 q 289 983 289 1026 q 288 964 289 974 l 260 410 m 238 151 q 254 151 238 151 q 290 132 271 151 q 310 79 310 113 q 281 17 310 46 q 217 -12 251 -12 q 165 7 183 -12 q 146 60 146 26 q 175 123 146 94 q 238 151 204 151 z "},"\"":{"ha":439,"x_min":56,"x_max":383,"o":"m 111 1256 q 169 1152 169 1256 q 153 938 169 1049 q 113 826 136 826 q 73 940 90 826 q 56 1154 56 1053 q 111 1256 56 1256 m 325 1256 q 383 1152 383 1256 q 367 938 383 1049 q 326 826 350 826 q 286 939 303 826 q 269 1153 269 1051 q 325 1256 269 1256 z "},"#":{"ha":1072,"x_min":78,"x_max":996,"o":"m 615 336 l 707 658 l 444 658 l 351 336 l 615 336 m 874 336 q 879 311 879 317 q 768 244 879 244 l 699 244 l 653 85 q 551 -12 625 -12 q 497 32 510 -12 q 544 86 532 47 l 589 244 l 325 244 l 279 85 q 179 -12 251 -12 q 124 32 136 -12 q 171 86 160 47 l 217 244 l 83 244 q 78 271 78 261 q 189 336 78 336 l 243 336 l 336 658 l 201 658 q 194 683 194 669 q 306 749 194 749 l 361 749 l 408 911 q 508 1007 436 1007 q 565 964 550 1007 q 517 910 528 949 l 471 749 l 733 749 l 779 911 q 881 1007 813 1007 q 939 964 924 1007 q 889 910 901 950 l 843 749 l 990 749 q 996 724 996 738 q 885 658 996 658 l 817 658 l 725 336 l 874 336 z "},"$":{"ha":838,"x_min":94,"x_max":807,"o":"m 522 1103 l 522 1008 q 706 941 638 994 q 774 818 774 888 q 752 756 774 779 q 703 733 731 733 q 643 744 676 733 q 649 788 649 767 q 595 883 649 839 q 447 926 542 926 q 294 886 351 926 q 238 778 238 846 q 296 662 238 711 q 438 576 354 613 q 606 503 522 540 q 749 408 690 465 q 807 276 807 350 q 714 82 807 163 q 482 -11 621 1 l 482 -100 q 517 -153 482 -139 q 443 -197 488 -197 q 367 -100 367 -197 l 367 -8 q 170 72 246 8 q 94 225 94 136 q 119 298 94 269 q 186 326 144 326 q 251 293 228 326 q 219 211 219 264 q 278 117 219 158 q 438 75 336 75 q 615 128 540 75 q 690 257 690 181 q 648 346 690 306 q 542 413 606 386 q 406 472 479 439 q 269 539 332 506 q 163 628 206 572 q 121 754 121 685 q 205 927 121 857 q 407 1010 289 997 l 407 1100 q 372 1154 407 1142 q 444 1199 400 1199 q 522 1103 522 1199 z "},"%":{"ha":1179,"x_min":113,"x_max":1067,"o":"m 522 748 q 522 692 522 748 q 459 547 522 636 q 303 458 396 458 q 162 533 211 458 q 113 718 113 607 q 172 918 113 829 q 326 1007 232 1007 q 471 933 419 1007 q 522 748 522 860 m 435 738 q 435 776 435 738 q 404 868 435 815 q 320 921 374 921 q 233 865 267 921 q 199 730 199 808 q 231 599 199 651 q 315 546 264 546 q 401 603 367 546 q 435 738 435 660 m 868 963 q 935 1007 904 1007 q 986 981 965 1007 q 946 938 975 976 l 311 35 q 246 -12 278 -12 q 196 15 214 -12 q 233 58 211 26 l 868 963 m 1067 276 q 1067 221 1067 276 q 1003 76 1067 165 q 848 -12 940 -12 q 706 63 756 -12 q 657 248 657 138 q 717 448 657 358 q 871 538 778 538 q 1015 463 964 538 q 1067 276 1067 388 m 978 264 q 978 303 978 264 q 948 397 978 343 q 865 450 918 450 q 777 394 811 450 q 743 258 743 338 q 776 126 743 179 q 860 74 808 74 q 945 129 913 74 q 978 264 978 185 z "},"&":{"ha":1011,"x_min":100,"x_max":1008,"o":"m 610 513 q 696 560 610 560 q 847 597 811 560 q 872 671 872 625 q 868 708 872 688 q 926 724 901 724 q 969 711 951 724 q 1008 628 1008 686 q 954 529 1008 569 q 793 488 900 489 q 833 321 833 419 q 729 84 833 181 q 463 -12 625 -12 q 200 71 300 -12 q 100 283 100 154 q 256 535 100 439 q 167 612 199 560 q 136 735 136 664 q 218 931 136 856 q 398 1007 300 1007 q 547 971 496 1007 q 597 876 597 935 q 567 822 597 840 q 529 814 549 814 q 490 819 510 814 q 456 909 485 882 q 372 936 428 936 q 277 891 315 936 q 239 769 239 846 q 290 648 239 693 q 436 603 340 603 q 444 574 444 589 q 433 544 444 560 q 354 515 410 515 q 321 517 332 515 q 242 428 271 483 q 213 311 213 372 q 284 149 213 207 q 474 90 356 90 q 676 154 593 90 q 758 317 758 218 q 617 485 758 485 q 610 513 610 500 z "},"'":{"ha":225,"x_min":54,"x_max":172,"o":"m 111 1194 q 172 1101 172 1194 q 155 917 172 1008 q 113 826 138 826 q 72 919 90 826 q 54 1103 54 1011 q 111 1194 54 1194 z "},"(":{"ha":628,"x_min":156,"x_max":589,"o":"m 589 1065 q 269 351 269 761 q 589 -362 269 -58 q 544 -386 578 -386 q 445 -328 510 -386 q 315 -177 381 -271 q 203 60 250 -83 q 156 348 156 203 q 202 635 156 493 q 313 872 249 776 q 443 1028 378 968 q 544 1088 508 1088 q 589 1065 579 1088 z "},")":{"ha":628,"x_min":43,"x_max":476,"o":"m 319 872 q 351 824 319 872 q 430 635 383 776 q 476 348 476 493 q 429 60 476 203 q 317 -177 382 -83 q 187 -328 251 -271 q 88 -386 122 -386 q 43 -362 54 -386 q 363 351 363 -58 q 43 1065 363 761 q 88 1088 53 1088 q 189 1028 124 1088 q 319 872 254 968 z "},"*":{"ha":764,"x_min":89,"x_max":674,"o":"m 446 1232 q 417 1065 446 1164 q 610 1153 544 1153 q 655 1138 636 1153 q 674 1093 674 1122 q 608 1026 674 1050 q 494 1000 543 1001 q 436 1000 444 999 q 538 909 492 963 q 585 817 585 856 q 567 778 585 794 q 526 761 550 761 q 444 823 485 761 q 381 958 404 885 q 317 822 357 885 q 236 760 278 760 q 196 778 211 760 q 181 826 181 796 q 226 908 181 856 q 325 1000 271 961 q 267 1001 317 999 q 153 1026 218 1003 q 89 1093 89 1050 q 109 1135 89 1121 q 156 1150 129 1150 q 347 1067 225 1150 q 321 1214 321 1154 q 379 1322 321 1322 q 446 1232 446 1322 z "},"+":{"ha":936,"x_min":96,"x_max":839,"o":"m 736 514 q 511 519 706 514 l 515 289 q 444 188 515 188 q 419 190 425 188 l 425 519 l 103 514 q 96 542 96 528 q 199 610 96 610 q 425 606 267 610 q 419 818 422 681 q 489 919 419 919 q 515 913 501 919 l 511 606 l 833 610 q 839 586 839 604 q 736 514 839 514 z "},",":{"ha":367,"x_min":93,"x_max":293,"o":"m 188 -44 q 163 44 188 6 q 93 94 138 82 q 120 150 96 126 q 179 174 144 174 q 263 126 232 174 q 293 14 293 78 q 246 -158 293 -85 q 146 -232 199 -232 q 111 -201 115 -232 q 188 -44 188 -147 z "},"-":{"ha":699,"x_min":83,"x_max":615,"o":"m 188 526 l 613 526 q 615 501 615 515 q 511 429 615 429 l 90 429 q 83 456 83 443 q 188 526 83 526 z "},".":{"ha":494,"x_min":156,"x_max":336,"o":"m 258 178 q 276 178 258 178 q 315 156 294 178 q 336 99 336 135 q 304 30 336 63 q 235 -3 272 -3 q 177 19 199 -3 q 156 76 156 40 q 188 145 156 113 q 258 178 221 178 z "},"/":{"ha":781,"x_min":49,"x_max":679,"o":"m 626 1328 q 679 1310 653 1328 q 644 1244 661 1294 l 176 -97 q 151 -151 169 -125 q 102 -176 132 -176 q 49 -156 72 -176 q 82 -90 67 -139 l 550 1247 q 626 1328 576 1328 z "},":":{"ha":440,"x_min":135,"x_max":315,"o":"m 237 706 q 255 706 237 706 q 294 684 274 706 q 315 626 315 663 q 283 558 315 589 q 215 526 251 526 q 156 547 178 526 q 135 605 135 568 q 167 674 135 642 q 237 706 200 706 m 237 182 q 255 182 237 182 q 294 160 274 182 q 315 103 315 139 q 283 35 315 67 q 215 3 251 3 q 156 24 178 3 q 135 82 135 46 q 167 150 135 118 q 237 182 200 182 z "},";":{"ha":440,"x_min":132,"x_max":332,"o":"m 237 706 q 255 706 237 706 q 294 684 274 706 q 315 626 315 663 q 283 558 315 589 q 215 526 251 526 q 156 547 178 526 q 135 605 135 568 q 167 674 135 642 q 237 706 200 706 m 229 -42 q 203 47 229 8 q 132 99 176 86 q 160 153 135 131 q 221 176 185 176 q 303 129 274 176 q 332 21 332 82 q 286 -155 332 -78 q 188 -232 240 -232 q 151 -201 157 -232 q 229 -42 229 -149 z "},"<":{"ha":922,"x_min":50,"x_max":749,"o":"m 183 571 q 388 449 183 540 q 749 321 592 357 q 724 256 749 278 q 653 233 700 233 q 459 290 606 233 q 181 426 313 347 q 50 551 50 504 q 194 688 50 603 q 492 834 338 772 q 694 896 647 896 q 740 851 740 896 q 391 709 599 807 q 183 571 183 611 z "},"=":{"ha":981,"x_min":119,"x_max":860,"o":"m 224 772 l 857 772 q 860 750 860 767 q 756 675 860 675 l 125 675 q 119 701 119 686 q 224 772 119 772 m 224 439 l 857 439 q 860 417 860 432 q 756 342 860 342 l 125 342 q 119 368 119 356 q 224 439 119 439 z "},">":{"ha":915,"x_min":168,"x_max":865,"o":"m 734 426 q 668 386 734 426 q 456 290 603 347 q 261 233 308 233 q 168 321 168 233 q 528 449 324 357 q 732 571 732 540 q 524 709 732 611 q 175 851 317 807 q 222 896 175 896 q 423 834 268 896 q 722 688 578 772 q 865 551 865 603 q 734 426 865 504 z "},"?":{"ha":686,"x_min":78,"x_max":601,"o":"m 455 576 q 439 560 455 576 q 399 507 422 544 q 375 432 375 469 q 394 372 375 394 q 447 346 413 349 q 425 300 446 318 q 366 282 404 282 q 294 316 328 282 q 260 401 260 350 q 283 499 260 453 q 338 580 306 544 q 403 651 371 615 q 482 836 482 739 q 441 944 482 897 q 335 990 400 990 q 230 960 269 990 q 190 881 190 929 q 279 749 190 783 q 254 721 278 733 q 204 708 231 708 q 113 747 147 708 q 78 851 78 786 q 158 997 78 938 q 349 1056 238 1056 q 531 994 460 1056 q 601 844 601 933 q 578 730 601 782 q 521 643 554 678 q 455 576 488 608 m 358 154 q 375 154 358 154 q 413 135 393 154 q 433 81 433 115 q 403 17 433 47 q 336 -12 372 -12 q 280 8 300 -12 q 260 62 260 28 q 291 125 260 96 q 358 154 322 154 z "},"@":{"ha":1208,"x_min":97,"x_max":1108,"o":"m 456 261 q 552 189 456 189 q 717 265 649 189 l 725 406 q 525 361 590 397 q 456 261 456 322 m 821 225 q 863 182 821 182 q 982 258 925 182 q 1039 479 1039 335 q 926 751 1039 649 q 646 853 814 853 q 299 715 431 853 q 167 343 167 578 q 199 163 167 240 q 285 42 231 85 q 531 -42 389 -42 q 783 19 672 -42 q 793 -5 793 10 q 764 -42 793 -19 q 513 -104 682 -104 q 233 -3 357 -104 q 135 137 172 47 q 97 343 97 226 q 256 758 97 601 q 653 915 415 915 q 978 794 847 915 q 1108 481 1108 674 q 1022 213 1108 314 q 833 111 935 111 q 753 135 785 111 q 715 204 721 160 q 513 114 639 114 q 388 151 435 114 q 342 249 342 189 q 441 395 342 342 q 728 456 540 449 l 732 525 q 732 539 732 532 q 708 631 732 599 q 624 663 683 663 q 533 640 564 663 q 499 590 501 618 q 515 543 497 561 q 456 526 489 526 q 404 542 422 526 q 386 583 386 557 q 458 679 386 640 q 628 718 529 718 q 783 671 728 718 q 839 542 839 624 q 839 533 839 538 l 821 233 q 821 225 821 229 z "},"A":{"ha":888,"x_min":31,"x_max":863,"o":"m 278 319 l 613 319 l 457 807 l 278 319 m 863 24 q 798 -12 840 -12 q 735 6 756 -12 q 699 71 714 24 l 642 235 l 246 235 l 188 83 q 96 -12 151 -12 q 31 35 49 -12 q 81 100 63 47 l 407 924 q 372 979 392 961 q 438 1007 404 1007 q 491 986 472 1007 q 526 919 510 965 l 810 94 q 863 24 829 38 z "},"B":{"ha":968,"x_min":115,"x_max":890,"o":"m 826 736 q 657 519 826 574 q 826 430 761 493 q 890 268 890 367 q 780 64 890 140 q 482 -12 669 -12 q 215 35 294 -12 q 135 175 135 82 l 136 881 q 115 958 136 932 q 442 1007 256 1007 q 727 932 628 1007 q 826 736 826 857 m 471 549 q 641 598 581 549 q 701 732 701 647 q 636 867 701 817 q 456 918 571 918 q 256 896 340 918 l 253 549 l 465 549 q 471 549 468 549 m 471 75 q 690 126 614 75 q 765 267 765 178 q 689 410 765 357 q 469 463 613 463 l 253 463 l 251 176 q 471 75 251 75 z "},"C":{"ha":940,"x_min":90,"x_max":842,"o":"m 840 840 q 818 786 840 806 q 763 767 796 767 q 713 776 731 767 q 714 794 714 786 q 671 879 714 842 q 536 917 628 917 q 313 808 408 917 q 218 501 218 699 q 304 199 218 304 q 544 94 390 94 q 697 128 626 94 q 814 207 768 161 q 833 194 824 206 q 842 163 842 182 q 744 49 842 111 q 513 -12 646 -12 q 209 121 328 -12 q 90 485 90 254 q 225 861 90 715 q 560 1007 360 1007 q 760 958 679 1007 q 840 840 840 910 z "},"D":{"ha":1003,"x_min":115,"x_max":946,"o":"m 422 1007 q 781 888 628 1007 q 901 727 856 828 q 946 497 946 626 q 901 267 946 368 q 781 107 856 167 q 422 -12 628 -12 q 194 31 254 -12 q 135 161 135 74 l 136 881 q 115 958 136 932 q 422 1007 256 1007 m 422 74 q 706 183 590 74 q 821 497 821 292 q 706 810 821 701 q 422 918 590 918 q 256 896 335 918 l 251 161 q 260 111 251 128 q 422 74 279 74 z "},"E":{"ha":889,"x_min":117,"x_max":806,"o":"m 367 93 l 647 93 q 765 151 726 93 q 794 127 783 144 q 806 92 806 110 q 653 0 806 0 l 361 0 q 203 43 254 0 q 151 183 151 86 l 151 890 q 117 946 151 932 q 228 996 150 996 l 667 996 q 806 924 806 996 q 765 867 806 881 q 647 901 726 901 l 268 901 l 268 563 l 561 563 q 669 550 638 563 q 701 501 701 538 q 668 449 701 465 q 550 468 631 468 l 268 468 l 268 188 q 291 115 268 138 q 367 93 314 93 z "},"F":{"ha":844,"x_min":117,"x_max":806,"o":"m 228 996 l 668 996 q 806 926 806 996 q 765 868 806 885 q 647 904 725 904 l 268 904 l 268 560 l 561 560 q 669 548 638 560 q 701 502 701 536 q 668 449 701 468 q 550 468 631 468 l 268 468 l 268 86 q 303 32 268 46 q 229 -12 274 -12 q 151 85 151 -12 l 151 890 q 117 946 151 932 q 228 996 150 996 z "},"G":{"ha":993,"x_min":90,"x_max":919,"o":"m 846 -137 q 768 -42 768 -137 l 768 113 q 655 24 725 61 q 501 -12 585 -12 q 209 112 328 -12 q 90 446 90 236 q 234 851 90 696 q 607 1007 378 1007 q 819 955 739 1007 q 899 832 899 903 q 876 780 899 800 q 823 760 854 760 q 771 771 792 760 q 772 786 772 778 q 724 878 772 839 q 579 917 676 917 q 316 800 414 917 q 218 486 218 683 q 298 188 218 289 q 524 88 378 88 q 771 224 671 88 l 774 432 l 690 432 q 521 425 608 432 q 506 467 506 446 q 555 513 506 499 q 716 526 604 526 q 858 507 828 526 q 888 433 888 488 l 885 -40 q 919 -93 885 -81 q 846 -137 893 -137 z "},"H":{"ha":1039,"x_min":99,"x_max":935,"o":"m 900 911 l 900 86 q 935 32 900 46 q 863 -12 907 -12 q 785 85 785 -12 l 785 456 l 250 456 l 250 86 q 283 32 250 47 q 210 -12 256 -12 q 133 85 133 -12 l 133 910 q 99 964 133 949 q 171 1007 124 1007 q 250 911 250 1007 l 250 540 l 785 540 l 785 910 q 750 964 785 949 q 822 1007 775 1007 q 900 911 900 1007 z "},"I":{"ha":388,"x_min":99,"x_max":283,"o":"m 250 911 l 250 86 q 283 32 250 47 q 210 -12 256 -12 q 133 85 133 -12 l 133 910 q 99 964 133 949 q 171 1007 124 1007 q 250 911 250 1007 z "},"J":{"ha":550,"x_min":38,"x_max":438,"o":"m 438 911 l 438 204 q 378 45 438 101 q 227 -11 318 -11 q 87 17 136 -11 q 38 81 38 46 q 54 132 38 115 q 204 86 119 86 q 321 201 321 86 l 321 910 q 286 964 321 950 q 360 1007 314 1007 q 438 911 438 1007 z "},"K":{"ha":893,"x_min":99,"x_max":840,"o":"m 753 -11 q 691 10 721 -11 q 603 90 661 31 l 250 453 l 250 86 q 283 32 250 47 q 210 -12 256 -12 q 133 85 133 -12 l 133 910 q 99 964 133 949 q 171 1007 124 1007 q 250 911 250 1007 l 250 539 l 617 928 q 688 990 661 974 q 744 1007 714 1007 q 794 988 774 1007 q 824 942 814 968 q 719 869 779 926 l 356 508 l 744 113 q 840 53 789 64 q 757 -11 811 -11 q 753 -11 754 -11 z "},"L":{"ha":800,"x_min":107,"x_max":738,"o":"m 142 182 l 142 910 q 107 964 142 949 q 181 1007 135 1007 q 258 911 258 1007 l 258 185 q 281 113 258 135 q 357 90 304 90 l 585 90 q 697 149 661 90 q 738 93 738 135 q 585 0 738 0 l 350 0 q 192 42 242 0 q 142 182 142 83 z "},"M":{"ha":1328,"x_min":107,"x_max":1217,"o":"m 1217 11 q 1151 -11 1185 -11 q 1099 10 1117 -11 q 1075 83 1081 32 l 1022 838 l 707 50 q 655 13 693 13 q 604 50 617 14 l 297 839 l 246 88 q 172 -12 238 -12 q 107 17 139 -12 q 132 90 126 33 l 193 904 q 193 915 193 910 q 174 979 193 956 q 261 1007 217 1007 q 390 893 350 1007 l 661 204 l 943 892 q 1079 1007 983 1007 q 1157 983 1117 1007 q 1136 919 1136 963 q 1136 908 1136 914 l 1196 92 q 1217 11 1199 31 z "},"N":{"ha":1067,"x_min":115,"x_max":951,"o":"m 150 85 l 150 910 q 115 964 150 950 q 191 1007 146 1007 q 266 985 236 1007 q 326 914 296 963 l 803 161 l 803 910 q 768 964 803 949 q 842 1007 796 1007 q 919 911 919 1007 l 919 86 q 951 29 919 47 q 881 -12 925 -12 q 802 15 836 -12 q 728 104 768 43 l 265 821 l 265 86 q 300 32 265 47 q 228 -12 272 -12 q 150 85 150 -12 z "},"O":{"ha":1067,"x_min":100,"x_max":967,"o":"m 329 178 q 563 74 424 74 q 783 197 701 74 q 853 456 853 300 q 850 519 853 486 q 740 819 836 714 q 505 924 644 924 q 283 799 365 924 q 215 544 215 696 q 329 178 215 303 m 535 1007 q 633 1007 535 1007 q 849 870 732 1007 q 967 500 967 733 q 849 127 967 267 q 535 -12 732 -12 q 219 126 338 -12 q 100 497 100 265 q 219 868 100 729 q 535 1007 338 1007 z "},"P":{"ha":863,"x_min":110,"x_max":803,"o":"m 439 907 l 260 907 l 260 465 l 439 465 q 615 526 554 465 q 675 685 675 586 q 615 846 675 785 q 439 907 554 907 m 221 996 l 444 996 q 704 912 606 996 q 803 687 803 828 q 704 462 803 546 q 444 378 606 378 l 261 378 l 261 86 q 296 32 261 46 q 221 -12 267 -12 q 144 85 144 -12 l 144 890 q 110 946 144 931 q 221 996 143 996 z "},"Q":{"ha":1075,"x_min":119,"x_max":1003,"o":"m 986 -129 q 1003 -173 1003 -150 q 994 -217 1003 -196 q 965 -258 986 -237 q 822 -304 917 -304 q 626 -251 728 -304 q 462 -128 525 -197 q 399 -10 399 -60 q 419 22 399 8 q 503 54 440 36 q 758 223 661 100 q 856 533 856 346 q 765 822 856 721 q 539 922 674 922 q 324 822 404 922 q 244 565 244 721 q 312 323 244 408 q 497 235 379 238 q 463 178 489 200 q 394 156 436 156 q 202 261 285 156 q 119 518 119 367 q 245 867 119 728 q 557 1007 371 1007 q 864 883 743 1007 q 985 561 985 760 q 848 170 985 318 q 493 -28 711 22 q 653 -144 558 -101 q 837 -186 749 -186 q 986 -129 925 -186 z "},"R":{"ha":875,"x_min":110,"x_max":842,"o":"m 260 501 l 439 501 q 615 554 556 501 q 675 702 675 607 q 615 851 675 797 q 439 904 556 904 l 260 904 l 260 501 m 747 -11 q 682 9 708 -11 q 615 86 656 29 l 388 410 l 261 410 l 261 86 q 296 32 261 46 q 221 -12 267 -12 q 144 85 144 -12 l 144 890 q 110 946 144 931 q 221 996 143 996 l 440 996 q 701 918 603 996 q 799 713 799 840 q 726 510 799 585 q 526 417 653 436 l 756 111 q 842 60 790 64 q 747 -11 810 -11 z "},"S":{"ha":894,"x_min":94,"x_max":807,"o":"m 774 818 q 752 756 774 779 q 703 733 731 733 q 643 744 676 733 q 649 788 649 767 q 595 883 649 839 q 447 926 542 926 q 294 886 351 926 q 238 778 238 846 q 296 662 238 711 q 438 576 354 613 q 606 503 522 540 q 749 408 690 465 q 807 276 807 350 q 699 70 807 153 q 442 -12 592 -12 q 193 55 292 -12 q 94 225 94 122 q 119 298 94 269 q 186 326 144 326 q 251 293 228 326 q 219 211 219 264 q 278 117 219 158 q 438 75 336 75 q 615 128 540 75 q 690 257 690 181 q 648 346 690 306 q 542 413 606 386 q 406 472 479 439 q 269 539 332 506 q 163 628 206 572 q 121 754 121 685 q 220 940 121 867 q 457 1013 319 1013 q 684 956 594 1013 q 774 818 774 899 z "},"T":{"ha":763,"x_min":19,"x_max":744,"o":"m 133 996 l 667 996 q 744 933 744 996 q 722 883 744 906 q 631 903 688 903 l 438 903 l 438 86 q 472 32 438 49 q 401 -12 444 -12 q 322 85 322 -12 l 322 903 l 96 903 q 19 964 19 903 q 40 1014 19 993 q 133 996 78 996 z "},"U":{"ha":978,"x_min":106,"x_max":872,"o":"m 140 357 l 140 910 q 106 964 140 949 q 178 1007 136 1007 q 256 911 256 1007 l 256 343 q 316 152 256 217 q 507 88 376 88 q 758 343 758 88 l 758 910 q 722 964 758 949 q 796 1007 750 1007 q 872 911 872 1007 l 872 357 q 783 87 872 185 q 508 -11 694 -11 q 231 88 322 -11 q 140 357 140 186 z "},"V":{"ha":893,"x_min":8,"x_max":883,"o":"m 756 888 q 769 953 769 925 q 756 997 769 981 q 816 1011 788 1011 q 864 993 844 1011 q 883 946 883 975 q 872 889 883 917 l 549 71 q 511 5 529 22 q 458 -12 493 -12 q 403 6 422 -12 q 368 71 385 24 l 60 890 q 8 965 39 947 q 90 1007 43 1007 q 140 986 119 1007 q 176 921 160 965 l 465 110 l 756 888 z "},"W":{"ha":1351,"x_min":31,"x_max":1319,"o":"m 1207 917 q 1178 979 1207 960 q 1244 1007 1206 1007 q 1301 986 1282 1007 q 1319 935 1319 965 q 1311 876 1319 906 l 1092 72 q 997 -11 1068 -11 q 906 72 925 -11 l 699 843 l 493 72 q 397 -11 472 -11 q 339 7 360 -11 q 306 72 318 25 l 85 881 q 31 954 69 938 q 113 1007 56 1007 q 166 985 144 1007 q 200 906 188 963 l 403 111 l 619 936 q 708 1007 639 1007 q 794 936 776 1007 l 1006 110 l 1201 875 q 1207 917 1207 899 z "},"X":{"ha":875,"x_min":31,"x_max":843,"o":"m 843 54 q 813 6 835 25 q 760 -12 790 -12 q 707 3 729 -12 q 658 58 685 19 l 440 389 l 204 60 q 100 -12 151 -12 q 53 6 72 -12 q 35 54 35 25 q 36 67 35 60 q 108 110 76 67 l 382 479 l 117 882 q 31 938 82 935 q 63 988 39 968 q 118 1007 88 1007 q 219 938 175 1007 l 458 576 l 692 900 q 717 954 717 932 q 697 992 717 976 q 766 1010 733 1010 q 817 992 799 1010 q 835 944 835 975 q 808 876 835 914 l 518 485 l 763 114 q 843 54 797 60 z "},"Y":{"ha":828,"x_min":21,"x_max":793,"o":"m 432 -11 q 357 92 357 -11 l 358 440 l 104 886 q 21 939 71 938 q 104 1007 42 1007 q 208 935 167 1007 l 425 549 l 649 897 q 671 951 671 928 q 654 990 671 974 q 721 1007 683 1007 q 776 990 758 1007 q 793 946 793 974 q 771 881 793 918 l 474 444 l 472 83 q 497 11 472 39 q 432 -11 468 -11 z "},"Z":{"ha":847,"x_min":71,"x_max":775,"o":"m 775 81 q 599 0 775 0 l 169 0 q 98 24 125 0 q 71 83 71 47 q 119 179 71 118 l 661 910 q 271 888 453 888 q 89 967 89 888 q 113 1015 89 996 q 258 996 167 996 l 675 996 q 748 972 721 996 q 775 913 775 949 q 725 815 775 876 l 188 86 l 608 103 q 750 138 703 107 q 775 81 775 113 z "},"[":{"ha":544,"x_min":107,"x_max":460,"o":"m 224 -194 l 375 -194 q 460 -254 460 -194 q 456 -274 460 -269 l 221 -274 q 119 -225 142 -274 q 107 -158 107 -199 l 107 1174 l 375 1174 q 460 1113 460 1174 q 456 1090 460 1096 l 224 1090 l 224 -194 z "},"\\":{"ha":781,"x_min":81,"x_max":711,"o":"m 133 1343 q 210 1264 182 1343 q 455 567 297 1022 q 678 -72 613 111 q 711 -139 693 -124 q 660 -158 689 -158 q 582 -78 608 -158 q 404 434 535 57 q 115 1261 274 811 q 81 1325 97 1314 q 133 1343 104 1343 z "},"]":{"ha":544,"x_min":108,"x_max":461,"o":"m 344 1093 l 193 1093 q 108 1153 108 1093 q 111 1174 108 1163 l 346 1174 q 450 1124 426 1174 q 461 1057 461 1097 l 461 -274 l 193 -274 q 108 -214 108 -274 q 111 -193 108 -201 l 344 -193 l 344 1093 z "},"^":{"ha":792,"x_min":75,"x_max":718,"o":"m 669 328 q 590 397 626 328 l 385 793 l 143 329 q 95 348 115 329 q 75 406 75 367 q 103 493 75 444 l 319 885 q 382 932 346 932 q 438 888 418 932 l 718 349 q 669 328 696 328 z "},"_":{"ha":801,"x_min":-3,"x_max":801,"o":"m 101 -118 l 799 -118 q 801 -142 801 -129 q 697 -215 801 -215 l 3 -215 q -3 -189 -3 -201 q 101 -118 -3 -118 z "},"`":{"ha":325,"x_min":17,"x_max":308,"o":"m 282 967 q 224 942 251 967 l 90 813 q 47 789 65 789 q 17 810 26 789 l 136 990 q 235 1063 182 1063 q 291 1039 274 1063 q 308 996 308 1015 q 306 964 308 976 q 282 967 294 967 z "},"a":{"ha":732,"x_min":75,"x_max":672,"o":"m 200 178 q 309 78 200 78 q 489 174 418 78 l 489 339 q 271 287 342 331 q 200 178 200 243 m 604 494 l 604 125 q 672 42 604 51 q 585 -12 646 -12 q 489 100 497 -12 q 272 -12 408 -12 q 131 35 186 -12 q 75 165 75 82 q 178 331 75 268 q 489 400 282 394 l 489 483 q 458 610 489 569 q 362 651 428 651 q 263 624 296 651 q 229 563 229 597 q 249 508 229 529 q 184 486 219 486 q 126 506 149 486 q 104 561 104 525 q 179 672 104 626 q 364 718 254 718 q 539 659 474 718 q 604 494 604 600 z "},"b":{"ha":800,"x_min":88,"x_max":746,"o":"m 400 79 q 565 156 504 79 q 626 358 626 232 q 568 553 626 485 q 424 622 510 622 q 238 497 299 622 l 236 225 q 400 79 236 79 m 238 613 q 441 718 314 718 q 657 627 568 718 q 746 367 746 536 q 644 94 746 199 q 403 -11 543 -11 q 192 51 263 -11 q 121 225 121 113 l 122 957 q 88 1013 122 999 q 161 1056 117 1056 q 239 960 239 1056 l 238 613 z "},"c":{"ha":682,"x_min":69,"x_max":617,"o":"m 617 585 q 597 532 617 551 q 550 513 578 513 q 504 524 522 513 q 508 554 508 539 q 404 639 508 639 q 253 561 319 639 q 186 351 186 483 q 248 151 186 218 q 400 85 310 85 q 592 158 515 85 q 610 118 610 143 q 540 31 610 74 q 382 -12 471 -12 q 161 76 253 -12 q 69 330 69 165 q 173 606 69 494 q 425 718 276 718 q 565 679 513 718 q 617 585 617 640 z "},"d":{"ha":796,"x_min":65,"x_max":708,"o":"m 557 574 q 405 632 494 632 q 252 555 315 632 q 189 344 189 478 q 244 144 189 211 q 382 78 299 78 q 557 236 522 78 l 557 574 m 674 960 l 674 86 q 708 32 674 46 q 635 -12 679 -12 q 557 85 557 -12 l 557 107 q 357 -12 494 -12 q 153 81 240 -12 q 65 341 65 175 q 160 613 65 507 q 388 718 254 718 q 557 671 482 718 l 557 957 q 522 1013 557 999 q 594 1056 549 1056 q 674 960 674 1056 z "},"e":{"ha":679,"x_min":69,"x_max":629,"o":"m 453 428 q 510 494 510 432 q 474 597 510 556 q 375 638 439 638 q 258 576 311 638 q 193 407 206 515 l 453 428 m 190 347 q 249 146 190 211 q 418 81 308 81 q 600 153 528 81 q 621 115 621 142 q 554 28 621 69 q 396 -12 488 -12 q 161 78 253 -12 q 69 331 69 168 q 169 606 69 494 q 397 718 268 718 q 565 647 500 718 q 629 486 629 576 q 594 390 629 421 q 479 356 558 358 l 190 347 z "},"f":{"ha":485,"x_min":49,"x_max":550,"o":"m 171 646 l 171 835 q 230 999 171 942 q 373 1056 289 1056 q 503 1022 457 1056 q 550 943 550 989 q 528 906 550 915 q 397 969 472 969 q 317 938 347 969 q 288 840 288 906 l 288 646 l 506 646 q 514 621 514 636 q 307 557 514 557 l 288 557 l 288 -176 q 252 -302 288 -260 q 163 -344 217 -344 q 57 -274 88 -344 q 146 -245 121 -274 q 171 -150 171 -217 l 171 558 q 49 613 49 565 q 67 653 49 632 q 160 646 99 646 l 171 646 z "},"g":{"ha":775,"x_min":47,"x_max":742,"o":"m 265 287 q 288 259 265 287 q 376 231 311 231 q 482 284 442 231 q 522 419 522 338 q 471 591 522 531 q 355 651 419 651 q 250 599 290 651 q 210 471 210 546 q 211 442 210 457 q 265 287 218 343 m 504 -44 l 326 -44 q 167 -10 228 -44 q 106 102 106 24 q 200 219 106 181 q 94 432 94 297 q 176 642 94 567 q 367 718 258 718 q 504 681 442 718 q 555 789 513 747 q 644 831 597 831 q 716 808 690 831 q 742 749 742 786 q 713 696 742 713 q 647 719 682 719 q 588 698 613 719 q 557 642 564 676 q 639 439 639 563 q 557 240 639 315 q 367 165 475 165 q 268 183 313 165 q 207 124 207 168 q 238 76 207 90 q 339 63 269 63 l 499 63 q 653 18 600 63 q 707 -104 707 -26 q 606 -275 707 -207 q 360 -343 504 -343 q 132 -289 215 -343 q 47 -158 49 -235 q 70 -93 47 -118 q 128 -61 93 -68 q 381 -246 136 -246 q 553 -210 492 -246 q 615 -117 615 -175 q 504 -44 615 -44 z "},"h":{"ha":825,"x_min":93,"x_max":739,"o":"m 703 479 l 703 86 q 739 32 703 47 q 665 -12 710 -12 q 589 85 589 -12 l 589 471 q 461 617 589 617 q 329 561 392 617 q 243 413 267 506 l 243 86 q 278 32 243 46 q 206 -12 249 -12 q 128 85 128 -12 l 128 957 q 93 1013 128 997 q 165 1056 117 1056 q 243 960 243 1056 l 243 549 q 346 671 279 624 q 502 718 413 718 q 647 658 592 718 q 703 479 703 597 z "},"i":{"ha":368,"x_min":89,"x_max":278,"o":"m 190 1014 q 207 1014 190 1014 q 248 994 225 1014 q 271 938 271 974 q 241 874 271 903 q 174 846 211 846 q 113 868 136 846 q 89 926 89 890 q 122 988 89 963 q 190 1014 154 1014 m 243 621 l 243 86 q 278 32 243 46 q 206 -12 249 -12 q 128 85 128 -12 l 128 618 q 93 674 128 658 q 165 718 119 718 q 243 621 243 718 z "},"j":{"ha":368,"x_min":11,"x_max":271,"o":"m 243 621 l 243 -176 q 208 -302 243 -260 q 118 -344 172 -344 q 11 -274 47 -344 q 102 -245 76 -274 q 128 -150 128 -217 l 128 618 q 93 674 128 658 q 165 718 119 718 q 243 621 243 718 m 190 1014 q 207 1014 190 1014 q 248 994 225 1014 q 271 938 271 974 q 241 874 271 903 q 174 846 211 846 q 113 868 136 846 q 89 926 89 890 q 122 988 89 963 q 190 1014 154 1014 z "},"k":{"ha":746,"x_min":93,"x_max":700,"o":"m 243 960 l 243 410 q 472 556 397 476 q 546 718 546 636 q 621 694 593 718 q 649 631 649 671 q 563 493 649 560 q 339 382 478 426 q 617 107 536 139 q 700 93 651 93 q 677 18 700 49 q 614 -12 654 -12 q 483 56 550 -12 q 243 358 417 125 l 243 86 q 278 32 243 46 q 206 -12 249 -12 q 128 85 128 -12 l 128 957 q 93 1013 128 997 q 165 1056 117 1056 q 243 960 243 1056 z "},"l":{"ha":369,"x_min":93,"x_max":278,"o":"m 243 960 l 243 86 q 278 32 243 46 q 206 -12 249 -12 q 128 85 128 -12 l 128 957 q 93 1013 128 997 q 165 1056 117 1056 q 243 960 243 1056 z "},"m":{"ha":1289,"x_min":93,"x_max":1199,"o":"m 1164 479 l 1164 86 q 1199 32 1164 47 q 1126 -12 1174 -12 q 1049 85 1049 -12 l 1049 471 q 921 617 1049 617 q 789 560 851 617 q 703 407 726 503 l 703 86 q 739 32 703 47 q 665 -12 710 -12 q 589 85 589 -12 l 589 471 q 461 617 589 617 q 329 561 392 617 q 243 413 267 506 l 243 86 q 278 32 243 46 q 206 -12 249 -12 q 128 85 128 -12 l 128 618 q 93 674 128 658 q 165 718 119 718 q 243 621 243 718 l 243 549 q 346 671 279 624 q 496 718 413 718 q 633 672 579 718 q 699 535 686 626 q 800 666 731 614 q 960 718 869 718 q 1108 658 1051 718 q 1164 479 1164 597 z "},"n":{"ha":825,"x_min":93,"x_max":739,"o":"m 703 479 l 703 86 q 739 32 703 47 q 665 -12 710 -12 q 589 85 589 -12 l 589 471 q 461 617 589 617 q 329 561 392 617 q 243 413 267 506 l 243 86 q 278 32 243 46 q 206 -12 249 -12 q 128 85 128 -12 l 128 618 q 93 674 128 658 q 165 718 119 718 q 243 621 243 718 l 243 549 q 346 671 279 624 q 502 718 413 718 q 647 658 592 718 q 703 479 703 597 z "},"o":{"ha":797,"x_min":69,"x_max":731,"o":"m 548 566 q 516 602 548 566 q 389 639 485 639 q 240 573 293 639 q 188 379 188 507 q 252 140 188 214 q 413 65 317 65 q 560 132 508 65 q 611 326 611 199 q 548 566 611 493 m 166 622 q 214 670 166 622 q 400 718 263 718 q 634 622 538 718 q 731 352 731 525 q 634 83 731 179 q 400 -12 538 -12 q 166 83 263 -12 q 69 353 69 179 q 166 622 69 526 z "},"p":{"ha":807,"x_min":93,"x_max":746,"o":"m 424 82 q 567 155 508 82 q 626 353 626 228 q 567 550 626 478 q 424 622 508 622 q 243 508 304 622 l 243 178 q 321 103 278 125 q 424 82 364 82 m 243 621 l 243 619 q 441 718 315 718 q 656 623 567 718 q 746 354 746 528 q 652 85 746 181 q 437 -11 558 -11 q 243 69 315 -11 l 243 -246 q 278 -300 243 -287 q 206 -344 249 -344 q 128 -246 128 -344 l 128 618 q 93 674 128 658 q 165 718 119 718 q 243 621 243 718 z "},"q":{"ha":785,"x_min":65,"x_max":708,"o":"m 557 460 q 515 585 557 539 q 407 632 474 632 q 251 555 314 632 q 189 345 189 478 q 250 144 189 213 q 403 76 311 76 q 557 161 494 76 l 557 460 m 674 718 l 674 -246 q 708 -300 674 -287 q 635 -344 679 -344 q 557 -246 557 -344 l 557 65 q 369 -12 483 -12 q 160 82 254 -12 q 65 340 65 176 q 160 611 65 504 q 386 718 254 718 q 558 635 496 718 q 642 718 568 718 l 674 718 z "},"r":{"ha":585,"x_min":93,"x_max":574,"o":"m 243 621 l 243 569 q 436 718 301 718 q 538 685 501 718 q 574 608 574 651 q 551 541 574 564 q 506 518 529 518 q 463 524 482 518 q 465 560 465 538 q 396 629 465 629 q 306 583 350 629 q 243 443 261 538 l 243 86 q 278 32 243 46 q 206 -12 249 -12 q 128 85 128 -12 l 128 618 q 93 674 128 658 q 165 718 119 718 q 243 621 243 718 z "},"s":{"ha":697,"x_min":76,"x_max":621,"o":"m 587 527 q 575 518 587 527 q 532 508 564 508 q 478 525 500 508 q 486 565 486 539 q 454 617 486 592 q 358 642 422 642 q 257 613 294 642 q 219 546 219 585 q 261 476 219 507 q 361 419 303 444 q 478 364 419 393 q 579 290 538 335 q 621 189 621 244 q 543 47 621 107 q 346 -12 465 -12 q 151 33 226 -12 q 76 151 76 79 q 101 219 76 194 q 159 243 125 243 q 213 219 193 243 q 193 156 193 193 q 231 91 193 118 q 342 64 269 64 q 459 95 415 64 q 503 172 503 126 q 462 250 503 217 q 363 308 421 283 q 245 359 304 332 q 145 428 186 386 q 104 522 104 469 q 176 662 104 606 q 353 718 249 718 q 533 680 458 718 q 608 579 608 642 q 587 527 610 546 z "},"t":{"ha":553,"x_min":15,"x_max":517,"o":"m 244 617 l 244 176 q 265 103 244 125 q 331 81 285 81 q 493 154 417 81 q 517 114 517 142 q 456 27 517 67 q 306 -12 394 -12 q 128 172 128 -12 l 128 617 q 15 671 15 621 q 32 711 15 697 q 107 704 81 704 l 128 704 l 128 817 q 93 872 128 856 q 165 915 121 915 q 244 818 244 915 l 244 704 l 478 704 q 483 681 483 694 q 264 617 483 617 l 244 617 z "},"u":{"ha":825,"x_min":93,"x_max":739,"o":"m 703 621 l 703 86 q 739 32 703 47 q 665 -12 710 -12 q 589 85 589 -12 l 589 121 q 363 -12 511 -12 q 128 226 128 -12 l 128 618 q 93 674 128 658 q 165 718 119 718 q 243 621 243 718 l 243 233 q 388 86 243 86 q 508 126 454 86 q 589 239 561 167 l 589 618 q 553 674 589 658 q 626 718 585 718 q 703 621 703 718 z "},"v":{"ha":708,"x_min":21,"x_max":679,"o":"m 556 581 q 568 643 568 614 q 549 693 568 672 q 610 718 581 718 q 660 699 640 718 q 679 649 679 679 q 663 581 679 619 l 464 86 q 421 10 443 32 q 359 -11 399 -11 q 296 11 319 -11 q 254 86 272 33 l 78 601 q 21 653 60 650 q 44 700 22 682 q 96 718 67 718 q 194 624 165 718 l 361 69 l 556 581 z "},"w":{"ha":1051,"x_min":21,"x_max":1025,"o":"m 913 596 q 919 653 919 625 q 901 700 919 682 q 967 718 931 718 q 1018 682 1003 718 q 1025 640 1025 665 q 1017 583 1025 615 l 882 86 q 843 10 867 33 q 779 -12 819 -12 q 674 86 700 -12 l 546 567 l 424 86 q 318 -12 400 -12 q 213 86 236 -12 l 78 599 q 21 653 64 651 q 45 700 22 682 q 99 718 68 718 q 194 621 169 718 l 321 76 l 464 631 q 499 698 476 678 q 558 718 521 718 q 616 698 594 718 q 649 631 638 678 l 786 67 l 913 596 z "},"x":{"ha":694,"x_min":33,"x_max":672,"o":"m 660 39 q 580 -12 635 -12 q 472 63 525 -12 l 336 257 l 200 63 q 101 -12 153 -12 q 55 5 75 -12 q 33 51 35 22 q 103 104 71 60 l 279 340 l 115 574 q 33 656 65 646 q 56 701 36 683 q 103 718 76 718 q 201 650 154 718 l 353 431 l 511 653 q 603 718 557 718 q 650 701 629 718 q 672 656 671 683 q 600 600 628 640 l 413 346 l 575 110 q 660 39 603 67 z "},"y":{"ha":743,"x_min":49,"x_max":725,"o":"m 594 597 q 604 650 604 624 q 585 697 604 676 q 653 718 615 718 q 714 681 690 718 q 725 637 725 661 q 713 582 725 613 l 424 -171 q 238 -344 356 -344 q 168 -322 193 -344 q 143 -266 143 -300 q 165 -211 143 -232 q 226 -237 190 -237 q 284 -218 263 -237 q 324 -149 306 -199 l 374 -12 q 369 -12 372 -12 q 318 6 342 -12 q 283 60 294 25 l 92 615 q 49 681 78 667 q 122 718 72 718 q 208 628 182 718 l 399 57 l 594 597 z "},"z":{"ha":704,"x_min":89,"x_max":633,"o":"m 633 71 q 463 0 633 0 l 183 0 q 114 23 139 0 q 89 83 89 46 q 133 168 89 119 l 531 624 q 260 603 357 603 q 90 678 90 603 q 113 724 90 704 q 253 704 167 704 l 540 704 q 608 681 583 704 q 633 622 633 658 q 588 536 633 586 l 196 83 l 471 93 q 608 131 563 94 q 633 71 633 107 z "},"{":{"ha":533,"x_min":94,"x_max":433,"o":"m 278 988 q 290 808 278 947 q 303 630 303 669 q 291 558 303 590 q 263 508 279 526 q 228 475 246 489 q 182 447 200 453 q 303 269 303 388 q 290 79 303 225 q 278 -110 278 -67 q 321 -235 278 -189 q 433 -290 364 -282 q 343 -325 406 -325 q 223 -260 281 -325 q 165 -69 165 -196 q 177 92 165 -26 q 189 262 189 211 q 174 348 189 313 q 142 397 160 383 q 94 446 94 433 q 109 471 94 458 q 142 497 124 483 q 174 547 160 511 q 189 632 189 582 q 177 795 189 682 q 165 947 165 908 q 223 1140 165 1075 q 351 1204 281 1204 q 433 1169 403 1204 q 322 1115 365 1163 q 278 988 278 1068 z "},"|":{"ha":388,"x_min":99,"x_max":283,"o":"m 250 1143 l 250 -142 q 283 -196 250 -181 q 210 -239 256 -239 q 133 -142 133 -239 l 133 1142 q 99 1196 133 1181 q 171 1239 122 1239 q 250 1143 250 1239 z "},"}":{"ha":533,"x_min":94,"x_max":433,"o":"m 361 947 q 349 795 361 908 q 338 632 338 682 q 353 547 338 582 q 385 497 368 511 q 418 471 403 483 q 433 448 433 458 q 418 424 433 438 q 385 397 403 411 q 353 348 368 383 q 338 262 338 313 q 349 92 338 211 q 361 -69 361 -26 q 303 -260 361 -196 q 184 -325 246 -325 q 94 -290 122 -325 q 206 -235 163 -282 q 249 -110 249 -189 q 237 79 249 -67 q 225 269 225 225 q 241 349 225 313 q 283 406 257 385 q 346 447 315 432 q 265 508 308 460 q 225 626 225 553 q 237 808 225 669 q 249 988 249 947 q 206 1115 249 1068 q 94 1169 163 1163 q 175 1204 125 1204 q 303 1140 246 1204 q 361 947 361 1075 z "},"~":{"ha":954,"x_min":144,"x_max":772,"o":"m 647 569 q 738 644 731 569 q 772 583 772 629 q 734 503 772 536 q 640 469 696 469 q 446 508 585 469 q 269 547 307 547 q 179 472 186 547 q 144 531 144 482 q 183 614 144 581 q 278 647 221 647 q 475 608 336 647 q 647 569 614 569 z "},"¡":{"ha":456,"x_min":147,"x_max":311,"o":"m 289 -225 q 290 -261 290 -235 q 272 -316 290 -287 q 222 -344 254 -344 q 172 -316 189 -344 q 156 -240 156 -287 q 156 -225 156 -233 l 175 389 q 233 481 181 481 q 272 461 257 481 q 260 390 260 429 q 261 329 260 351 l 289 -225 m 219 589 q 203 589 219 589 q 167 608 186 589 q 147 661 147 628 q 176 724 147 694 q 240 753 206 753 q 292 733 274 753 q 311 679 311 714 q 282 617 311 644 q 219 589 253 589 z "},"¢":{"ha":682,"x_min":69,"x_max":617,"o":"m 435 806 l 435 718 q 567 678 518 717 q 617 585 617 640 q 597 532 617 551 q 550 513 578 513 q 504 524 522 513 q 508 554 508 539 q 404 639 508 639 q 253 561 319 639 q 186 351 186 483 q 248 151 186 218 q 400 85 310 85 q 592 158 515 85 q 610 118 610 143 q 549 36 610 76 q 408 -11 489 -4 l 408 -100 q 443 -153 408 -137 q 371 -197 415 -197 q 292 -100 292 -197 l 292 0 q 132 111 194 28 q 69 328 69 194 q 140 564 69 461 q 321 701 210 667 l 321 804 q 285 858 321 846 q 358 903 314 903 q 435 806 435 903 z "},"£":{"ha":840,"x_min":60,"x_max":821,"o":"m 154 553 l 269 553 q 263 713 263 661 q 345 926 263 844 q 522 1007 428 1007 q 672 960 617 1007 q 726 856 726 914 q 651 771 726 785 q 602 879 639 832 q 506 926 565 926 q 414 878 446 926 q 382 757 382 831 q 388 553 382 683 l 640 553 q 644 532 644 546 q 549 465 644 465 l 392 465 l 392 408 q 374 253 392 338 q 311 140 357 169 q 481 113 360 136 q 677 90 603 90 q 810 142 751 90 q 821 104 821 128 q 777 24 821 60 q 659 -12 733 -12 q 443 12 585 -12 q 226 36 301 36 q 93 -11 151 36 q 82 34 82 4 q 113 96 82 64 q 201 138 144 128 q 237 174 224 156 q 262 242 250 193 q 274 369 274 292 q 271 465 274 447 l 65 465 q 60 489 60 482 q 154 553 60 553 z "},"¤":{"ha":876,"x_min":97,"x_max":779,"o":"m 317 367 q 345 338 317 367 q 454 310 374 310 q 576 358 535 310 q 618 492 618 406 q 617 525 618 508 q 555 686 607 635 q 423 738 503 738 q 302 690 343 738 q 261 558 261 643 q 317 367 261 424 m 678 679 q 715 518 715 613 q 669 356 715 424 l 779 249 q 753 222 774 229 q 710 208 736 208 q 647 246 685 208 l 603 288 q 440 240 535 240 q 272 289 346 240 l 229 246 q 164 210 189 210 q 122 222 139 210 q 97 249 103 229 l 207 356 q 158 519 158 424 q 197 681 158 615 l 97 781 q 122 810 106 801 q 165 824 139 824 q 229 783 190 824 l 261 751 q 439 807 335 807 q 615 751 543 807 l 646 783 q 710 824 685 824 q 753 810 736 824 q 779 781 768 803 l 678 679 z "},"¥":{"ha":854,"x_min":21,"x_max":793,"o":"m 649 897 q 671 951 671 928 q 654 990 671 974 q 721 1007 683 1007 q 776 990 758 1007 q 793 946 793 974 q 771 881 793 918 l 535 535 l 738 535 q 742 513 742 518 q 639 449 742 449 l 476 449 l 474 444 l 474 339 l 738 339 q 742 318 742 326 q 639 253 742 253 l 472 253 l 472 83 q 497 11 472 39 q 432 -11 468 -11 q 357 92 357 -11 l 357 253 l 97 253 q 93 275 93 265 q 196 339 93 339 l 358 339 l 358 440 l 354 449 l 97 449 q 93 469 93 457 q 196 535 93 535 l 304 535 l 104 886 q 21 939 71 938 q 104 1007 42 1007 q 208 935 167 1007 l 425 549 l 649 897 z "},"¦":{"ha":388,"x_min":101,"x_max":286,"o":"m 251 344 l 251 -8 q 286 -62 251 -49 q 214 -106 256 -106 q 136 -8 136 -106 l 136 343 q 101 397 136 383 q 174 440 129 440 q 251 344 251 440 m 251 1069 l 251 718 q 286 664 251 678 q 214 619 257 619 q 136 717 136 619 l 136 1068 q 101 1122 136 1108 q 174 1167 129 1167 q 251 1069 251 1167 z "},"§":{"ha":894,"x_min":126,"x_max":774,"o":"m 286 351 q 272 332 286 351 q 258 258 258 313 q 297 159 258 204 q 392 85 335 114 q 516 22 449 56 q 640 -44 583 -12 q 735 -126 697 -75 q 774 -242 774 -178 q 676 -448 774 -365 q 442 -531 579 -531 q 216 -463 306 -531 q 126 -292 126 -396 q 151 -222 126 -249 q 213 -194 175 -194 q 272 -225 251 -194 q 244 -299 244 -261 q 297 -401 244 -360 q 441 -442 349 -442 q 601 -390 533 -442 q 668 -264 668 -337 q 615 -164 668 -208 q 485 -85 561 -119 q 334 -12 410 -51 q 205 90 258 26 q 151 235 151 153 q 196 369 151 318 q 301 419 240 419 q 363 404 335 419 q 286 351 314 389 m 742 811 q 724 751 742 772 q 674 729 706 729 q 622 740 643 729 q 628 782 628 761 q 579 877 628 833 q 444 921 531 921 q 308 881 358 921 q 258 775 258 842 q 311 659 258 708 q 440 574 364 610 q 592 498 517 538 q 721 398 668 458 q 774 263 774 338 q 724 132 774 189 q 614 75 675 75 q 542 92 574 75 q 633 150 599 106 q 668 251 668 194 q 615 353 668 307 q 485 433 561 399 q 334 504 410 467 q 205 604 258 542 q 151 749 151 667 q 242 934 151 861 q 458 1007 333 1007 q 662 950 582 1007 q 742 811 742 893 z "},"¨":{"ha":393,"x_min":17,"x_max":376,"o":"m 101 972 q 116 972 101 972 q 148 954 131 972 q 165 906 165 936 q 139 849 165 875 q 83 822 113 822 q 35 840 53 822 q 17 889 17 858 q 44 946 17 919 q 101 972 71 972 m 312 972 q 327 972 312 972 q 359 954 342 972 q 376 906 376 936 q 350 849 376 875 q 293 822 324 822 q 245 840 263 822 q 228 889 228 858 q 255 946 228 919 q 312 972 282 972 z "},"©":{"ha":1207,"x_min":100,"x_max":1107,"o":"m 719 649 l 722 668 q 694 735 722 708 q 614 763 665 763 q 476 685 526 763 q 425 494 425 608 q 481 317 425 379 q 624 254 538 254 q 801 346 732 254 q 821 311 821 340 q 755 219 821 267 q 599 171 689 171 q 400 258 479 171 q 321 484 321 344 q 410 731 321 624 q 632 838 500 838 q 769 798 714 838 q 824 701 824 758 q 805 657 824 674 q 763 640 786 640 q 719 649 740 640 m 603 946 q 507 946 603 946 q 292 815 410 946 q 175 495 175 685 q 292 177 175 306 q 603 49 408 49 q 915 177 797 49 q 1032 495 1032 306 q 915 815 1032 685 q 603 946 797 946 m 603 1007 q 711 1007 603 1007 q 963 861 819 1007 q 1107 494 1107 715 q 964 130 1107 272 q 603 -12 821 -12 q 243 130 386 -12 q 100 494 100 272 q 243 861 100 715 q 603 1007 386 1007 z "},"ª":{"ha":732,"x_min":75,"x_max":672,"o":"m 200 178 q 309 78 200 78 q 489 174 418 78 l 489 339 q 271 287 342 331 q 200 178 200 243 m 604 494 l 604 125 q 672 42 604 51 q 585 -12 646 -12 q 489 100 497 -12 q 272 -12 408 -12 q 131 35 186 -12 q 75 165 75 82 q 178 331 75 268 q 489 400 282 394 l 489 483 q 458 610 489 569 q 362 651 428 651 q 263 624 296 651 q 229 563 229 597 q 249 508 229 529 q 184 486 219 486 q 126 506 149 486 q 104 561 104 525 q 179 672 104 626 q 364 718 254 718 q 539 659 474 718 q 604 494 604 600 z "},"«":{"ha":851,"x_min":108,"x_max":743,"o":"m 432 882 q 295 702 338 775 q 253 562 253 629 q 296 420 253 494 q 432 243 339 346 q 391 214 419 214 q 294 278 363 214 q 167 428 225 343 q 108 562 108 513 q 167 697 108 611 q 294 847 225 782 q 391 911 363 911 q 432 882 419 911 m 743 882 q 606 702 649 775 q 564 562 564 629 q 607 421 564 494 q 743 243 650 347 q 702 214 731 214 q 605 278 674 214 q 478 428 536 343 q 419 562 419 513 q 478 697 419 611 q 606 847 538 782 q 703 911 675 911 q 743 882 731 911 z "},"¬":{"ha":1024,"x_min":81,"x_max":936,"o":"m 901 567 l 901 414 q 936 360 901 375 q 864 317 910 317 q 786 413 786 317 l 786 538 q 754 565 786 565 l 88 565 q 81 590 81 579 q 181 651 81 651 l 810 651 q 881 632 860 651 q 901 567 901 613 z "},"®":{"ha":936,"x_min":97,"x_max":838,"o":"m 399 949 l 399 776 l 458 776 q 564 861 564 776 q 458 949 564 949 l 399 949 m 658 556 q 606 524 644 524 q 536 568 568 524 l 428 722 l 397 722 l 397 571 q 415 543 397 549 q 369 524 399 524 q 326 569 326 524 l 326 953 q 311 978 326 969 q 363 1001 326 1001 l 461 1001 q 592 963 543 1001 q 642 867 642 925 q 606 774 642 810 q 510 726 571 738 l 618 581 q 658 556 635 558 m 153 756 q 153 686 153 756 q 239 522 153 617 q 467 426 325 426 q 697 522 610 426 q 783 756 783 617 q 698 990 783 896 q 469 1085 613 1085 q 240 990 326 1085 q 153 756 153 894 m 97 756 q 97 839 97 756 q 202 1027 97 922 q 467 1132 307 1132 q 733 1027 628 1132 q 838 756 838 922 q 733 484 838 589 q 467 379 628 379 q 202 484 307 379 q 97 756 97 589 z "},"¯":{"ha":497,"x_min":17,"x_max":481,"o":"m 89 917 l 474 917 q 481 890 481 910 q 461 856 481 869 q 408 842 442 842 l 24 842 q 17 870 17 851 q 36 903 17 889 q 89 917 56 917 z "},"°":{"ha":676,"x_min":86,"x_max":503,"o":"m 86 958 q 86 1002 86 958 q 147 1103 86 1046 q 297 1160 207 1160 q 445 1104 388 1160 q 503 960 503 1049 q 444 815 503 872 q 294 757 385 757 q 145 813 204 757 q 86 958 86 869 m 206 868 q 224 849 206 868 q 296 831 242 831 q 384 867 350 831 q 418 958 418 903 q 383 1050 418 1014 q 294 1086 349 1086 q 205 1051 239 1086 q 171 961 171 1017 q 206 868 171 906 z "},"±":{"ha":993,"x_min":125,"x_max":871,"o":"m 125 629 q 228 700 125 700 q 453 694 318 694 q 447 857 450 797 q 518 957 447 957 q 544 951 533 957 l 540 694 l 863 700 q 868 674 868 686 q 765 603 868 603 q 540 607 640 606 q 544 424 542 524 q 472 321 544 321 q 449 326 460 321 l 454 607 l 132 603 q 125 629 125 610 m 229 225 l 865 225 q 871 201 871 215 q 767 128 871 128 l 132 128 q 125 154 125 146 q 229 225 125 225 z "},"²":{"ha":522,"x_min":51,"x_max":476,"o":"m 360 426 l 115 426 q 68 442 85 426 q 51 468 51 457 q 53 483 51 479 q 282 694 214 613 q 350 851 350 776 q 322 929 350 903 q 247 956 294 956 q 173 935 200 956 q 146 883 146 915 q 176 832 146 850 q 124 810 157 810 q 72 829 92 810 q 51 879 51 849 q 108 972 51 932 q 248 1013 164 1013 q 388 966 332 1013 q 444 842 444 919 q 376 688 444 764 q 150 490 308 611 q 358 500 240 500 q 476 449 476 500 q 457 415 476 429 q 360 426 425 426 z "},"³":{"ha":546,"x_min":64,"x_max":483,"o":"m 291 1007 q 325 1007 291 1007 q 405 974 358 1007 q 451 892 451 942 q 406 806 451 843 q 294 753 361 769 q 430 701 376 746 q 483 588 483 657 q 417 472 483 518 q 267 425 350 425 q 124 456 185 425 q 64 528 64 488 q 107 578 64 569 q 283 490 153 490 q 358 514 328 490 q 388 579 388 538 q 342 674 388 642 q 219 707 296 707 q 163 699 199 707 q 151 721 151 706 q 184 753 151 736 q 256 783 217 771 q 327 817 294 794 q 360 872 360 840 q 331 921 360 903 q 251 939 301 939 q 133 899 200 939 q 119 908 125 899 q 113 926 113 917 q 168 978 113 950 q 291 1007 224 1007 z "},"´":{"ha":343,"x_min":17,"x_max":328,"o":"m 328 813 q 299 789 319 789 q 251 807 278 789 l 107 922 q 60 942 81 942 q 24 935 39 942 q 17 972 17 954 q 26 1006 17 990 q 92 1040 46 1040 q 189 978 138 1040 l 328 813 z "},"µ":{"ha":831,"x_min":93,"x_max":739,"o":"m 703 621 l 703 86 q 739 32 703 47 q 665 -12 710 -12 q 589 85 589 -12 l 589 121 q 365 -12 511 -12 q 243 24 292 -12 l 243 -140 q 278 -196 243 -179 q 206 -240 249 -240 q 128 -143 128 -240 l 128 618 q 93 674 128 658 q 165 718 119 718 q 243 621 243 718 l 243 233 q 388 86 243 86 q 508 126 454 86 q 589 239 561 167 l 589 618 q 553 674 589 658 q 626 718 585 718 q 703 621 703 718 z "},"¶":{"ha":913,"x_min":81,"x_max":717,"o":"m 351 996 l 717 996 q 706 858 706 939 l 706 0 q 674 -4 692 -4 q 608 71 608 -4 l 608 821 q 614 903 608 871 l 536 903 q 497 890 508 903 q 485 850 485 878 l 485 0 q 453 -4 469 -4 q 388 71 388 -4 l 388 383 l 351 383 q 153 469 226 383 q 81 690 81 554 q 153 911 81 826 q 351 996 226 996 z "},"·":{"ha":593,"x_min":207,"x_max":386,"o":"m 308 643 q 326 643 308 643 q 365 622 344 643 q 386 563 386 600 q 354 495 386 526 q 285 464 322 464 q 228 485 249 464 q 207 543 207 507 q 239 611 207 579 q 308 643 271 643 z "},"¸":{"ha":453,"x_min":22,"x_max":433,"o":"m 281 -94 q 390 -123 346 -94 q 433 -206 433 -151 q 376 -303 433 -261 q 228 -344 318 -344 q 81 -310 139 -344 q 22 -235 22 -275 q 40 -199 22 -214 q 214 -271 106 -271 q 322 -203 322 -271 q 235 -149 322 -149 l 208 -149 q 175 -122 175 -149 q 181 -96 175 -111 l 229 39 l 311 39 l 264 -94 l 281 -94 z "},"¹":{"ha":251,"x_min":19,"x_max":229,"o":"m 208 936 l 208 474 q 229 442 208 447 q 182 417 210 417 q 133 472 133 417 l 133 924 q 103 950 133 950 q 31 931 72 950 q 19 948 19 931 q 55 986 19 965 q 129 1007 90 1007 q 188 988 168 1007 q 208 936 208 968 z "},"º":{"ha":558,"x_min":64,"x_max":493,"o":"m 364 907 q 344 928 364 907 q 268 949 324 949 q 184 914 213 949 q 156 819 156 879 q 196 685 156 725 q 291 644 236 644 q 375 678 346 644 q 404 774 404 713 q 364 907 404 865 m 64 796 q 64 846 64 796 q 127 951 64 896 q 280 1007 190 1007 q 431 952 369 1007 q 493 797 493 897 q 431 641 493 696 q 280 586 369 586 q 127 641 190 586 q 64 796 64 696 z "},"»":{"ha":851,"x_min":108,"x_max":743,"o":"m 558 847 q 592 814 558 847 q 685 697 626 782 q 743 562 743 611 q 685 428 743 513 q 558 278 626 343 q 460 214 489 214 q 434 224 446 214 q 419 243 422 235 q 555 420 513 346 q 597 562 597 494 q 555 703 597 629 q 419 882 513 776 q 434 901 422 890 q 460 911 446 911 q 558 847 489 911 m 245 847 q 280 814 245 847 q 373 697 314 782 q 432 562 432 611 q 374 428 432 513 q 246 278 315 343 q 147 214 176 214 q 122 224 133 214 q 108 243 111 235 q 244 420 201 346 q 286 562 286 494 q 244 703 286 629 q 108 882 201 776 q 122 901 111 890 q 147 911 133 911 q 245 847 176 911 z "},"¼":{"ha":921,"x_min":50,"x_max":892,"o":"m 156 468 l 156 918 q 122 949 156 949 q 64 926 99 949 q 50 947 50 931 q 81 985 50 964 q 156 1007 113 1007 q 233 933 233 1007 l 233 468 q 258 438 233 446 q 210 411 240 411 q 156 468 156 411 m 667 968 q 715 1007 692 1007 q 753 983 739 1007 q 726 946 746 979 l 196 29 q 148 -11 172 -11 q 110 11 124 -11 q 136 51 115 17 l 667 968 m 550 192 l 717 192 l 717 478 q 707 492 717 492 q 603 378 681 492 q 526 211 526 264 q 550 192 526 192 m 797 192 l 819 192 q 878 207 861 192 q 892 176 892 193 q 874 147 892 160 q 828 135 857 135 l 797 135 l 797 51 q 822 18 797 29 q 771 -7 800 -7 q 717 50 717 -7 l 717 135 l 531 135 q 453 192 453 135 q 507 345 453 249 q 633 517 561 442 q 747 593 704 593 q 797 543 797 593 l 797 192 z "},"½":{"ha":1010,"x_min":40,"x_max":954,"o":"m 147 468 l 147 918 q 114 949 147 949 q 53 926 89 949 q 40 948 40 932 q 72 985 40 964 q 144 1007 104 1007 q 206 987 185 1007 q 226 933 226 967 l 226 468 q 250 438 226 446 q 201 411 232 411 q 147 468 147 411 m 644 968 q 692 1007 669 1007 q 731 983 715 1007 q 703 946 728 982 l 172 29 q 125 -11 149 -11 q 86 11 101 -11 q 113 51 92 17 l 644 968 m 836 0 l 593 0 q 544 17 563 0 q 529 57 526 33 q 758 267 690 185 q 826 424 826 349 q 799 503 826 475 q 724 532 771 532 q 650 510 678 532 q 622 458 622 489 q 653 404 622 426 q 599 382 631 382 q 548 401 568 382 q 528 450 528 419 q 584 545 528 504 q 725 586 640 586 q 865 539 810 586 q 921 413 921 492 q 849 256 921 335 q 619 63 778 176 q 832 74 749 74 q 954 21 954 74 q 935 -11 954 1 q 836 0 885 0 z "},"¾":{"ha":1051,"x_min":64,"x_max":1022,"o":"m 294 753 q 430 701 376 746 q 483 588 483 657 q 417 472 483 518 q 267 425 350 425 q 124 456 185 425 q 64 528 64 488 q 107 578 64 569 q 283 486 156 486 q 358 511 328 486 q 388 589 388 536 q 342 674 388 642 q 219 707 296 707 q 163 699 199 707 q 151 717 151 706 q 256 774 151 740 q 327 811 294 786 q 360 869 360 836 q 330 922 360 903 q 250 942 300 942 q 133 901 200 942 q 113 928 113 906 q 168 978 113 950 q 291 1007 224 1007 q 405 974 358 1007 q 451 892 451 942 q 406 806 451 843 q 294 753 361 769 m 825 968 q 876 1007 853 1007 q 914 983 899 1007 q 885 946 904 979 l 338 29 q 288 -11 313 -11 q 249 13 264 -11 q 279 51 258 19 l 825 968 m 682 192 l 849 192 l 849 478 q 839 492 849 492 q 735 379 813 492 q 657 211 657 267 q 682 192 657 192 m 929 192 l 951 192 q 1010 207 993 192 q 1022 178 1022 196 q 1005 147 1022 160 q 960 135 988 135 l 929 135 l 929 51 q 953 18 929 29 q 903 -7 935 -7 q 849 50 849 -7 l 849 135 l 663 135 q 585 193 585 135 q 640 340 585 243 q 766 515 694 436 q 878 593 838 593 q 929 543 929 593 l 929 192 z "},"¿":{"ha":696,"x_min":100,"x_max":611,"o":"m 264 136 q 283 152 264 136 q 328 206 301 168 q 354 282 354 244 q 335 342 354 319 q 282 365 317 364 q 304 413 283 394 q 363 431 325 431 q 435 397 401 431 q 469 311 469 363 q 444 215 469 260 q 382 134 418 169 q 310 63 346 99 q 222 -124 222 -25 q 263 -232 222 -185 q 367 -279 303 -279 q 465 -249 432 -279 q 499 -169 499 -218 q 408 -35 499 -72 q 435 -7 411 -19 q 485 6 458 6 q 576 -34 542 6 q 611 -140 611 -74 q 538 -285 611 -226 q 353 -344 464 -344 q 171 -283 242 -344 q 100 -133 100 -221 q 126 -18 100 -71 q 190 69 153 35 q 264 136 226 104 m 339 557 q 322 557 339 557 q 284 577 304 557 q 264 631 264 597 q 295 695 264 665 q 361 725 326 725 q 416 704 396 725 q 436 650 436 683 q 405 587 436 617 q 339 557 374 557 z "},"À":{"ha":888,"x_min":31,"x_max":863,"o":"m 417 1101 l 536 1282 q 635 1354 582 1354 q 691 1331 674 1354 q 708 1288 708 1307 q 706 1256 708 1268 q 682 1258 694 1258 q 624 1233 651 1258 l 490 1104 q 446 1081 465 1081 q 417 1101 426 1081 m 278 319 l 613 319 l 457 807 l 278 319 m 863 24 q 798 -12 840 -12 q 735 6 756 -12 q 699 71 714 24 l 642 235 l 246 235 l 188 83 q 96 -12 151 -12 q 31 35 49 -12 q 81 100 63 47 l 407 924 q 372 979 392 961 q 438 1007 404 1007 q 491 986 472 1007 q 526 919 510 965 l 810 94 q 863 24 829 38 z "},"Á":{"ha":888,"x_min":31,"x_max":863,"o":"m 543 1104 q 514 1081 535 1081 q 467 1099 493 1081 l 322 1214 q 275 1233 296 1233 q 239 1226 254 1233 q 232 1264 232 1246 q 242 1297 232 1282 q 307 1332 261 1332 q 404 1269 353 1332 l 543 1104 m 278 319 l 613 319 l 457 807 l 278 319 m 810 94 q 863 24 829 38 q 798 -12 840 -12 q 735 6 756 -12 q 699 71 714 24 l 642 235 l 246 235 l 188 83 q 96 -12 151 -12 q 31 35 49 -12 q 81 100 63 47 l 407 924 q 372 979 392 961 q 438 1007 404 1007 q 491 986 472 1007 q 526 919 510 965 l 810 94 z "},"Â":{"ha":888,"x_min":31,"x_max":863,"o":"m 347 1104 q 299 1081 324 1081 q 268 1101 274 1081 l 361 1244 q 405 1297 383 1281 q 458 1314 426 1314 q 510 1297 489 1314 q 554 1244 531 1281 l 646 1101 q 615 1081 640 1081 q 567 1104 590 1081 l 457 1215 l 347 1104 m 278 319 l 613 319 l 457 807 l 278 319 m 863 24 q 798 -12 840 -12 q 735 6 756 -12 q 699 71 714 24 l 642 235 l 246 235 l 188 83 q 96 -12 151 -12 q 31 35 49 -12 q 81 100 63 47 l 407 924 q 372 979 392 961 q 438 1007 404 1007 q 491 986 472 1007 q 526 919 510 965 l 810 94 q 863 24 829 38 z "},"Ã":{"ha":888,"x_min":31,"x_max":863,"o":"m 296 1108 q 258 1164 258 1117 q 295 1244 258 1211 q 381 1278 332 1278 q 489 1241 431 1278 q 576 1204 547 1204 q 624 1224 604 1204 q 647 1279 644 1244 q 683 1222 683 1267 q 646 1142 683 1176 q 561 1108 608 1108 q 456 1146 514 1108 q 368 1183 397 1183 q 318 1163 339 1183 q 296 1108 297 1143 m 278 319 l 613 319 l 457 807 l 278 319 m 863 24 q 798 -12 840 -12 q 735 6 756 -12 q 699 71 714 24 l 642 235 l 246 235 l 188 83 q 96 -12 151 -12 q 31 35 49 -12 q 81 100 63 47 l 407 924 q 372 979 392 961 q 438 1007 404 1007 q 491 986 472 1007 q 526 919 510 965 l 810 94 q 863 24 829 38 z "},"Ä":{"ha":888,"x_min":31,"x_max":863,"o":"m 639 1197 q 639 1182 639 1197 q 613 1140 639 1167 q 556 1114 586 1114 q 508 1132 525 1114 q 490 1181 490 1150 q 517 1238 490 1211 q 574 1264 544 1264 q 622 1246 604 1264 q 639 1197 639 1228 m 428 1197 q 428 1182 428 1197 q 401 1140 428 1167 q 345 1114 375 1114 q 297 1132 315 1114 q 279 1181 279 1150 q 306 1238 279 1211 q 363 1264 333 1264 q 410 1246 393 1264 q 428 1197 428 1228 m 278 319 l 613 319 l 457 807 l 278 319 m 863 24 q 798 -12 840 -12 q 735 6 756 -12 q 699 71 714 24 l 642 235 l 246 235 l 188 83 q 96 -12 151 -12 q 31 35 49 -12 q 81 100 63 47 l 407 924 q 372 979 392 961 q 438 1007 404 1007 q 491 986 472 1007 q 526 919 510 965 l 810 94 q 863 24 829 38 z "},"Å":{"ha":888,"x_min":31,"x_max":863,"o":"m 496 1255 q 487 1265 496 1255 q 453 1275 478 1275 q 415 1258 428 1275 q 401 1224 401 1240 q 403 1197 401 1207 q 421 1137 404 1157 q 463 1117 438 1117 q 517 1176 517 1117 q 515 1197 517 1186 q 496 1255 514 1235 m 603 1196 q 603 1167 603 1196 q 561 1105 603 1138 q 459 1072 519 1072 q 357 1105 399 1072 q 315 1197 315 1138 q 357 1287 315 1256 q 459 1318 399 1318 q 561 1286 519 1318 q 603 1196 603 1254 m 278 319 l 613 319 l 457 807 l 278 319 m 863 24 q 798 -12 840 -12 q 735 6 756 -12 q 699 71 714 24 l 642 235 l 246 235 l 188 83 q 96 -12 151 -12 q 31 35 49 -12 q 81 100 63 47 l 407 924 q 372 979 392 961 q 438 1007 404 1007 q 491 986 472 1007 q 526 919 510 965 l 810 94 q 863 24 829 38 z "},"Æ":{"ha":1331,"x_min":26,"x_max":1247,"o":"m 592 331 l 592 886 l 318 331 l 592 331 m 804 93 l 1089 93 q 1206 151 1167 93 q 1247 92 1247 135 q 1093 0 1247 0 l 800 0 q 642 42 693 0 q 592 178 592 85 l 592 236 l 271 236 l 186 64 q 149 9 167 25 q 106 -7 131 -7 q 26 40 53 -7 q 90 104 64 50 l 503 921 q 618 996 539 996 l 1107 996 q 1247 924 1247 996 q 1206 867 1247 881 q 1089 901 1167 901 l 708 901 l 708 563 l 1001 563 q 1110 550 1078 563 q 1143 502 1143 538 q 1108 449 1143 467 q 992 468 1074 468 l 708 468 l 708 182 q 731 113 708 133 q 804 93 753 93 z "},"Ç":{"ha":940,"x_min":90,"x_max":842,"o":"m 90 474 q 225 861 90 715 q 560 1007 360 1007 q 760 958 679 1007 q 840 840 840 910 q 818 786 840 806 q 763 767 796 767 q 713 776 731 767 q 714 794 714 786 q 671 879 714 842 q 536 917 628 917 q 313 808 408 917 q 218 501 218 699 q 304 199 218 304 q 544 94 390 94 q 697 128 626 94 q 814 207 768 161 q 833 194 824 206 q 842 163 842 182 q 747 50 842 111 q 521 -12 651 -11 l 492 -94 l 508 -94 q 617 -123 574 -94 q 661 -206 661 -151 q 603 -303 661 -261 q 456 -344 546 -344 q 308 -310 367 -344 q 250 -235 250 -275 q 268 -199 250 -214 q 442 -271 333 -271 q 550 -203 550 -271 q 463 -149 550 -149 l 436 -149 q 403 -122 403 -149 q 408 -96 403 -111 l 440 -7 q 187 149 283 19 q 90 474 90 278 z "},"È":{"ha":889,"x_min":117,"x_max":806,"o":"m 406 1101 l 525 1282 q 624 1354 571 1354 q 680 1331 663 1354 q 697 1288 697 1307 q 694 1256 697 1268 q 671 1258 683 1258 q 613 1233 640 1258 l 479 1104 q 435 1081 454 1081 q 406 1101 415 1081 m 367 93 l 647 93 q 765 151 726 93 q 794 127 783 144 q 806 92 806 110 q 653 0 806 0 l 361 0 q 203 43 254 0 q 151 183 151 86 l 151 890 q 117 946 151 932 q 228 996 150 996 l 667 996 q 806 924 806 996 q 765 867 806 881 q 647 901 726 901 l 268 901 l 268 563 l 561 563 q 669 550 638 563 q 701 501 701 538 q 668 449 701 465 q 550 468 631 468 l 268 468 l 268 188 q 291 115 268 138 q 367 93 314 93 z "},"É":{"ha":889,"x_min":117,"x_max":806,"o":"m 532 1104 q 503 1081 524 1081 q 456 1099 482 1081 l 311 1214 q 264 1233 285 1233 q 228 1226 243 1233 q 221 1264 221 1246 q 231 1297 221 1282 q 296 1332 250 1332 q 393 1269 342 1332 l 532 1104 m 367 93 l 647 93 q 765 151 726 93 q 794 127 783 144 q 806 92 806 110 q 653 0 806 0 l 361 0 q 203 43 254 0 q 151 183 151 86 l 151 890 q 117 946 151 932 q 228 996 150 996 l 667 996 q 806 924 806 996 q 765 867 806 881 q 647 901 726 901 l 268 901 l 268 563 l 561 563 q 669 550 638 563 q 701 501 701 538 q 668 449 701 465 q 550 468 631 468 l 268 468 l 268 188 q 291 115 268 138 q 367 93 314 93 z "},"Ê":{"ha":889,"x_min":117,"x_max":806,"o":"m 338 1104 q 289 1081 314 1081 q 258 1101 264 1081 l 351 1244 q 395 1297 374 1281 q 448 1314 417 1314 q 500 1297 479 1314 q 544 1244 521 1281 l 636 1101 q 606 1081 631 1081 q 557 1104 581 1081 l 447 1215 l 338 1104 m 367 93 l 647 93 q 765 151 726 93 q 794 127 783 144 q 806 92 806 110 q 653 0 806 0 l 361 0 q 203 43 254 0 q 151 183 151 86 l 151 890 q 117 946 151 932 q 228 996 150 996 l 667 996 q 806 924 806 996 q 765 867 806 881 q 647 901 726 901 l 268 901 l 268 563 l 561 563 q 669 550 638 563 q 701 501 701 538 q 668 449 701 465 q 550 468 631 468 l 268 468 l 268 188 q 291 115 268 138 q 367 93 314 93 z "},"Ë":{"ha":889,"x_min":117,"x_max":806,"o":"m 629 1197 q 629 1182 629 1197 q 603 1140 629 1167 q 546 1114 576 1114 q 498 1132 515 1114 q 481 1181 481 1150 q 508 1238 481 1211 q 565 1264 535 1264 q 612 1246 594 1264 q 629 1197 629 1228 m 418 1197 q 418 1182 418 1197 q 392 1140 418 1167 q 335 1114 365 1114 q 288 1132 306 1114 q 269 1181 269 1150 q 297 1238 269 1211 q 353 1264 324 1264 q 401 1246 383 1264 q 418 1197 418 1228 m 367 93 l 647 93 q 765 151 726 93 q 794 127 783 144 q 806 92 806 110 q 653 0 806 0 l 361 0 q 203 43 254 0 q 151 183 151 86 l 151 890 q 117 946 151 932 q 228 996 150 996 l 667 996 q 806 924 806 996 q 765 867 806 881 q 647 901 726 901 l 268 901 l 268 563 l 561 563 q 669 550 638 563 q 701 501 701 538 q 668 449 701 465 q 550 468 631 468 l 268 468 l 268 188 q 291 115 268 138 q 367 93 314 93 z "},"Ì":{"ha":388,"x_min":99,"x_max":443,"o":"m 369 1354 q 426 1331 408 1354 q 443 1288 443 1307 q 440 1256 443 1268 q 417 1258 429 1258 q 358 1233 386 1258 l 225 1104 q 182 1081 200 1081 q 151 1101 161 1081 l 271 1282 q 369 1354 317 1354 m 250 911 l 250 86 q 283 32 250 47 q 210 -12 256 -12 q 133 85 133 -12 l 133 910 q 99 964 133 949 q 171 1007 124 1007 q 250 911 250 1007 z "},"Í":{"ha":388,"x_min":-33,"x_max":283,"o":"m 278 1104 q 249 1081 269 1081 q 201 1099 228 1081 l 57 1214 q 10 1233 31 1233 q -26 1226 -11 1233 q -33 1264 -33 1246 q -24 1297 -33 1282 q 42 1332 -4 1332 q 139 1269 88 1332 l 278 1104 m 250 911 l 250 86 q 283 32 250 47 q 210 -12 256 -12 q 133 85 133 -12 l 133 910 q 99 964 133 949 q 171 1007 124 1007 q 250 911 250 1007 z "},"Î":{"ha":388,"x_min":3,"x_max":381,"o":"m 250 911 l 250 86 q 283 32 250 47 q 210 -12 256 -12 q 133 85 133 -12 l 133 910 q 99 964 133 949 q 171 1007 124 1007 q 250 911 250 1007 m 381 1101 q 350 1081 375 1081 q 301 1104 325 1081 l 192 1215 l 82 1104 q 33 1081 58 1081 q 3 1101 8 1081 l 96 1244 q 140 1297 118 1281 q 192 1314 161 1314 q 244 1297 224 1314 q 289 1244 265 1281 l 381 1101 z "},"Ï":{"ha":388,"x_min":14,"x_max":374,"o":"m 309 1264 q 324 1264 309 1264 q 356 1246 339 1264 q 374 1197 374 1228 q 347 1140 374 1167 q 290 1114 321 1114 q 242 1132 260 1114 q 225 1181 225 1150 q 252 1238 225 1211 q 309 1264 279 1264 m 98 1264 q 113 1264 98 1264 q 145 1246 128 1264 q 163 1197 163 1228 q 136 1140 163 1167 q 80 1114 110 1114 q 32 1132 50 1114 q 14 1181 14 1150 q 41 1238 14 1211 q 98 1264 68 1264 m 250 911 l 250 86 q 283 32 250 47 q 210 -12 256 -12 q 133 85 133 -12 l 133 910 q 99 964 133 949 q 171 1007 124 1007 q 250 911 250 1007 z "},"Ð":{"ha":1044,"x_min":28,"x_max":946,"o":"m 422 74 q 706 183 590 74 q 821 497 821 292 q 706 810 821 701 q 422 918 590 918 q 256 896 335 918 l 254 544 l 542 544 q 546 521 546 528 q 443 457 546 457 l 253 457 l 251 161 q 260 111 251 128 q 422 74 279 74 m 136 544 l 136 881 q 115 958 136 932 q 422 1007 256 1007 q 781 888 628 1007 q 901 727 856 828 q 946 497 946 626 q 901 267 946 368 q 781 107 856 167 q 422 -12 628 -12 q 194 31 254 -12 q 135 161 135 74 l 135 457 l 33 457 q 28 478 28 465 q 131 544 28 544 l 136 544 z "},"Ñ":{"ha":1067,"x_min":115,"x_max":951,"o":"m 456 1278 q 481 1278 456 1278 q 564 1241 506 1278 q 651 1204 622 1204 q 699 1224 679 1204 q 722 1279 719 1244 q 758 1222 758 1267 q 721 1142 758 1176 q 636 1108 683 1108 q 531 1146 589 1108 q 443 1183 472 1183 q 393 1163 414 1183 q 371 1108 372 1143 q 333 1164 333 1117 q 370 1244 333 1211 q 456 1278 407 1278 m 150 85 l 150 910 q 115 964 150 950 q 191 1007 146 1007 q 266 985 236 1007 q 326 914 296 963 l 803 161 l 803 910 q 768 964 803 949 q 842 1007 796 1007 q 919 911 919 1007 l 919 86 q 951 29 919 47 q 881 -12 925 -12 q 802 15 836 -12 q 728 104 768 43 l 265 821 l 265 86 q 300 32 265 47 q 228 -12 272 -12 q 150 85 150 -12 z "},"Ò":{"ha":1067,"x_min":100,"x_max":967,"o":"m 710 1354 q 766 1331 749 1354 q 783 1288 783 1307 q 781 1256 783 1268 q 757 1258 769 1258 q 699 1233 726 1258 l 565 1104 q 522 1081 540 1081 q 492 1101 501 1081 l 611 1282 q 710 1354 657 1354 m 329 178 q 563 74 424 74 q 783 197 701 74 q 853 456 853 300 q 850 519 853 486 q 740 819 836 714 q 505 924 644 924 q 283 799 365 924 q 215 544 215 696 q 329 178 215 303 m 535 1007 q 633 1007 535 1007 q 849 870 732 1007 q 967 500 967 733 q 849 127 967 267 q 535 -12 732 -12 q 219 126 338 -12 q 100 497 100 265 q 219 868 100 729 q 535 1007 338 1007 z "},"Ó":{"ha":1067,"x_min":100,"x_max":967,"o":"m 329 178 q 563 74 424 74 q 783 197 701 74 q 853 456 853 300 q 850 519 853 486 q 740 819 836 714 q 505 924 644 924 q 283 799 365 924 q 215 544 215 696 q 329 178 215 303 m 535 1007 q 633 1007 535 1007 q 849 870 732 1007 q 967 500 967 733 q 849 127 967 267 q 535 -12 732 -12 q 219 126 338 -12 q 100 497 100 265 q 219 868 100 729 q 535 1007 338 1007 m 618 1104 q 589 1081 610 1081 q 542 1099 568 1081 l 397 1214 q 350 1233 371 1233 q 314 1226 329 1233 q 307 1264 307 1246 q 317 1297 307 1282 q 382 1332 336 1332 q 479 1269 428 1332 l 618 1104 z "},"Ô":{"ha":1067,"x_min":100,"x_max":967,"o":"m 425 1104 q 376 1081 401 1081 q 346 1101 351 1081 l 439 1244 q 483 1297 461 1281 q 535 1314 504 1314 q 588 1297 567 1314 q 632 1244 608 1281 l 724 1101 q 693 1081 718 1081 q 644 1104 668 1081 l 535 1215 l 425 1104 m 329 178 q 563 74 424 74 q 783 197 701 74 q 853 456 853 300 q 850 519 853 486 q 740 819 836 714 q 505 924 644 924 q 283 799 365 924 q 215 544 215 696 q 329 178 215 303 m 219 868 q 278 938 219 868 q 535 1007 338 1007 q 849 870 732 1007 q 967 500 967 733 q 849 127 967 267 q 535 -12 732 -12 q 219 126 338 -12 q 100 497 100 265 q 219 868 100 729 z "},"Õ":{"ha":1067,"x_min":100,"x_max":967,"o":"m 458 1278 q 482 1278 458 1278 q 565 1241 507 1278 q 652 1204 624 1204 q 701 1224 681 1204 q 724 1279 721 1244 q 760 1222 760 1267 q 722 1142 760 1176 q 638 1108 685 1108 q 532 1146 590 1108 q 444 1183 474 1183 q 394 1163 415 1183 q 372 1108 374 1143 q 335 1164 335 1117 q 372 1244 335 1211 q 458 1278 408 1278 m 329 178 q 563 74 424 74 q 783 197 701 74 q 853 456 853 300 q 850 519 853 486 q 740 819 836 714 q 505 924 644 924 q 283 799 365 924 q 215 544 215 696 q 329 178 215 303 m 535 1007 q 633 1007 535 1007 q 849 870 732 1007 q 967 500 967 733 q 849 127 967 267 q 535 -12 732 -12 q 219 126 338 -12 q 100 497 100 265 q 219 868 100 729 q 535 1007 338 1007 z "},"Ö":{"ha":1067,"x_min":100,"x_max":967,"o":"m 329 178 q 563 74 424 74 q 783 197 701 74 q 853 456 853 300 q 850 519 853 486 q 740 819 836 714 q 505 924 644 924 q 283 799 365 924 q 215 544 215 696 q 329 178 215 303 m 535 1007 q 633 1007 535 1007 q 849 870 732 1007 q 967 500 967 733 q 849 127 967 267 q 535 -12 732 -12 q 219 126 338 -12 q 100 497 100 265 q 219 868 100 729 q 535 1007 338 1007 m 649 1264 q 664 1264 649 1264 q 697 1246 679 1264 q 714 1197 714 1228 q 688 1140 714 1167 q 631 1114 661 1114 q 583 1132 600 1114 q 565 1181 565 1150 q 592 1238 565 1211 q 649 1264 619 1264 m 438 1264 q 453 1264 438 1264 q 485 1246 468 1264 q 503 1197 503 1228 q 476 1140 503 1167 q 420 1114 450 1114 q 372 1132 390 1114 q 354 1181 354 1150 q 381 1238 354 1211 q 438 1264 408 1264 z "},"×":{"ha":893,"x_min":117,"x_max":775,"o":"m 775 290 q 716 249 754 249 q 652 269 678 249 q 589 331 626 289 l 436 497 l 253 285 q 181 238 208 238 q 140 261 153 238 l 389 547 l 117 846 q 192 890 144 890 q 245 873 226 890 q 269 850 264 856 q 290 828 275 844 q 310 807 304 813 l 464 636 l 643 840 q 715 890 688 890 q 757 868 742 890 l 511 585 l 775 290 z "},"Ø":{"ha":1074,"x_min":81,"x_max":1000,"o":"m 326 179 q 560 74 419 74 q 783 197 701 74 q 853 456 853 300 q 790 746 853 628 l 326 179 m 749 810 q 510 924 656 924 q 283 799 365 924 q 215 544 215 696 q 283 243 215 364 l 749 810 m 871 843 q 967 488 967 708 q 849 127 967 267 q 535 -12 732 -12 q 254 90 365 -12 l 208 35 q 127 -12 165 -12 q 81 28 89 -12 q 165 100 126 51 l 203 146 q 100 506 100 283 q 219 868 100 729 q 524 1007 338 1007 q 822 899 710 1007 l 872 960 q 953 1007 914 1007 q 1000 969 992 1007 q 914 896 957 947 l 871 843 z "},"Ù":{"ha":978,"x_min":106,"x_max":872,"o":"m 690 1354 q 747 1331 729 1354 q 764 1288 764 1307 q 761 1256 764 1268 q 738 1258 750 1258 q 679 1233 707 1258 l 546 1104 q 503 1081 521 1081 q 472 1101 482 1081 l 592 1282 q 690 1354 638 1354 m 140 357 l 140 910 q 106 964 140 949 q 178 1007 136 1007 q 256 911 256 1007 l 256 343 q 316 152 256 217 q 507 88 376 88 q 758 343 758 88 l 758 910 q 722 964 758 949 q 796 1007 750 1007 q 872 911 872 1007 l 872 357 q 783 87 872 185 q 508 -11 694 -11 q 231 88 322 -11 q 140 357 140 186 z "},"Ú":{"ha":978,"x_min":106,"x_max":872,"o":"m 140 357 l 140 910 q 106 964 140 949 q 178 1007 136 1007 q 256 911 256 1007 l 256 343 q 316 152 256 217 q 507 88 376 88 q 758 343 758 88 l 758 910 q 722 964 758 949 q 796 1007 750 1007 q 872 911 872 1007 l 872 357 q 783 87 872 185 q 508 -11 694 -11 q 231 88 322 -11 q 140 357 140 186 m 600 1104 q 571 1081 592 1081 q 524 1099 550 1081 l 379 1214 q 332 1233 353 1233 q 296 1226 311 1233 q 289 1264 289 1246 q 299 1297 289 1282 q 364 1332 318 1332 q 461 1269 410 1332 l 600 1104 z "},"Û":{"ha":978,"x_min":106,"x_max":872,"o":"m 406 1104 q 357 1081 382 1081 q 326 1101 332 1081 l 419 1244 q 463 1297 442 1281 q 516 1314 485 1314 q 568 1297 547 1314 q 613 1244 589 1281 l 704 1101 q 674 1081 699 1081 q 625 1104 649 1081 l 515 1215 l 406 1104 m 758 343 l 758 910 q 722 964 758 949 q 796 1007 750 1007 q 872 911 872 1007 l 872 357 q 783 87 872 185 q 508 -11 694 -11 q 231 88 322 -11 q 140 357 140 186 l 140 910 q 106 964 140 949 q 178 1007 136 1007 q 256 911 256 1007 l 256 343 q 316 152 256 217 q 507 88 376 88 q 758 343 758 88 z "},"Ü":{"ha":978,"x_min":106,"x_max":872,"o":"m 140 357 l 140 910 q 106 964 140 949 q 178 1007 136 1007 q 256 911 256 1007 l 256 343 q 316 152 256 217 q 507 88 376 88 q 758 343 758 88 l 758 910 q 722 964 758 949 q 796 1007 750 1007 q 872 911 872 1007 l 872 357 q 783 87 872 185 q 508 -11 694 -11 q 231 88 322 -11 q 140 357 140 186 m 631 1264 q 646 1264 631 1264 q 678 1246 661 1264 q 696 1197 696 1228 q 669 1140 696 1167 q 613 1114 643 1114 q 565 1132 582 1114 q 547 1181 547 1150 q 574 1238 547 1211 q 631 1264 601 1264 m 420 1264 q 435 1264 420 1264 q 467 1246 450 1264 q 485 1197 485 1228 q 458 1140 485 1167 q 402 1114 432 1114 q 354 1132 372 1114 q 336 1181 336 1150 q 363 1238 336 1211 q 420 1264 390 1264 z "},"Ý":{"ha":828,"x_min":21,"x_max":793,"o":"m 521 1104 q 492 1081 513 1081 q 444 1099 471 1081 l 300 1214 q 253 1233 274 1233 q 217 1226 232 1233 q 210 1264 210 1246 q 219 1297 210 1282 q 285 1332 239 1332 q 382 1269 331 1332 l 521 1104 m 432 -11 q 357 92 357 -11 l 358 440 l 104 886 q 21 939 71 938 q 104 1007 42 1007 q 208 935 167 1007 l 425 549 l 649 897 q 671 951 671 928 q 654 990 671 974 q 721 1007 683 1007 q 776 990 758 1007 q 793 946 793 974 q 771 881 793 918 l 474 444 l 472 83 q 497 11 472 39 q 432 -11 468 -11 z "},"Þ":{"ha":872,"x_min":99,"x_max":813,"o":"m 250 346 q 455 311 353 311 q 622 371 557 311 q 688 529 688 431 q 622 688 688 628 q 458 747 557 747 q 250 713 358 747 l 250 346 m 250 911 l 250 793 q 467 838 367 838 q 712 753 611 838 q 813 529 813 668 q 712 306 813 390 q 467 222 611 222 q 250 265 358 222 l 250 86 q 283 32 250 47 q 210 -12 256 -12 q 133 85 133 -12 l 133 910 q 99 964 133 949 q 171 1007 124 1007 q 250 911 250 1007 z "},"ß":{"ha":783,"x_min":96,"x_max":713,"o":"m 504 528 q 661 397 610 464 q 713 228 713 329 q 644 57 713 126 q 475 -12 575 -12 q 374 13 408 -12 q 340 72 340 38 q 346 96 340 85 q 443 71 381 71 q 549 115 506 71 q 592 225 592 158 q 558 341 592 292 q 447 446 525 390 q 397 484 431 460 q 353 519 364 508 q 332 544 332 536 q 354 573 332 553 q 403 617 376 593 q 453 686 431 642 q 475 791 475 731 q 436 894 475 851 q 344 938 397 938 q 213 750 213 938 l 213 86 q 247 32 213 46 q 174 -12 218 -12 q 96 85 96 -12 l 96 750 q 165 938 96 872 q 345 1004 235 1004 q 527 941 456 1004 q 599 785 599 878 q 449 564 599 643 l 504 528 z "},"à":{"ha":732,"x_min":75,"x_max":672,"o":"m 318 810 l 438 990 q 536 1063 483 1063 q 592 1039 575 1063 q 610 996 610 1015 q 607 964 610 976 q 583 967 596 967 q 525 942 553 967 l 392 813 q 347 789 367 789 q 318 810 328 789 m 271 287 q 235 265 271 287 q 200 178 200 243 q 309 78 200 78 q 489 174 418 78 l 489 339 q 271 287 342 331 m 604 494 l 604 125 q 672 42 604 51 q 585 -12 646 -12 q 489 100 497 -12 q 272 -12 408 -12 q 131 35 186 -12 q 75 165 75 82 q 178 331 75 268 q 489 400 282 394 l 489 483 q 458 610 489 569 q 362 651 428 651 q 263 624 296 651 q 229 563 229 597 q 249 508 229 529 q 184 486 219 486 q 126 506 149 486 q 104 561 104 525 q 179 672 104 626 q 364 718 254 718 q 539 659 474 718 q 604 494 604 600 z "},"á":{"ha":732,"x_min":75,"x_max":672,"o":"m 444 813 q 415 789 436 789 q 368 807 394 789 l 224 922 q 176 942 197 942 q 140 935 156 942 q 133 972 133 954 q 143 1006 133 990 q 208 1040 163 1040 q 306 978 254 1040 l 444 813 m 200 178 q 309 78 200 78 q 489 174 418 78 l 489 339 q 271 287 342 331 q 200 178 200 243 m 604 494 l 604 125 q 672 42 604 51 q 585 -12 646 -12 q 489 100 497 -12 q 272 -12 408 -12 q 131 35 186 -12 q 75 165 75 82 q 178 331 75 268 q 489 400 282 394 l 489 483 q 458 610 489 569 q 362 651 428 651 q 263 624 296 651 q 229 563 229 597 q 249 508 229 529 q 184 486 219 486 q 126 506 149 486 q 104 561 104 525 q 179 672 104 626 q 364 718 254 718 q 539 659 474 718 q 604 494 604 600 z "},"â":{"ha":732,"x_min":75,"x_max":672,"o":"m 250 813 q 201 789 226 789 q 171 810 176 789 l 264 953 q 308 1006 286 989 q 360 1022 329 1022 q 413 1006 392 1022 q 457 953 433 989 l 549 810 q 518 789 543 789 q 469 813 493 789 l 360 924 l 250 813 m 200 178 q 309 78 200 78 q 489 174 418 78 l 489 339 q 271 287 342 331 q 200 178 200 243 m 604 494 l 604 125 q 672 42 604 51 q 585 -12 646 -12 q 489 100 497 -12 q 272 -12 408 -12 q 131 35 186 -12 q 75 165 75 82 q 178 331 75 268 q 489 400 282 394 l 489 483 q 458 610 489 569 q 362 651 428 651 q 263 624 296 651 q 229 563 229 597 q 249 508 229 529 q 184 486 219 486 q 126 506 149 486 q 104 561 104 525 q 179 672 104 626 q 364 718 254 718 q 539 659 474 718 q 604 494 604 600 z "},"ã":{"ha":732,"x_min":75,"x_max":672,"o":"m 197 817 q 160 872 160 825 q 197 953 160 919 q 283 986 233 986 q 390 949 332 986 q 477 913 449 913 q 526 933 506 913 q 549 988 546 953 q 585 930 585 975 q 547 851 585 885 q 463 817 510 817 q 357 854 415 817 q 269 892 299 892 q 219 872 240 892 q 197 817 199 851 m 200 178 q 309 78 200 78 q 489 174 418 78 l 489 339 q 271 287 342 331 q 200 178 200 243 m 604 494 l 604 125 q 672 42 604 51 q 585 -12 646 -12 q 489 100 497 -12 q 272 -12 408 -12 q 131 35 186 -12 q 75 165 75 82 q 178 331 75 268 q 489 400 282 394 l 489 483 q 458 610 489 569 q 362 651 428 651 q 263 624 296 651 q 229 563 229 597 q 249 508 229 529 q 184 486 219 486 q 126 506 149 486 q 104 561 104 525 q 179 672 104 626 q 364 718 254 718 q 539 659 474 718 q 604 494 604 600 z "},"ä":{"ha":732,"x_min":75,"x_max":672,"o":"m 540 906 q 540 890 540 906 q 514 849 540 875 q 457 822 488 822 q 409 840 426 822 q 392 889 392 858 q 419 946 392 919 q 476 972 446 972 q 523 954 506 972 q 540 906 540 936 m 329 906 q 329 890 329 906 q 303 849 329 875 q 247 822 276 822 q 199 840 217 822 q 181 889 181 858 q 208 946 181 919 q 265 972 235 972 q 312 954 294 972 q 329 906 329 936 m 200 178 q 309 78 200 78 q 489 174 418 78 l 489 339 q 271 287 342 331 q 200 178 200 243 m 604 494 l 604 125 q 672 42 604 51 q 585 -12 646 -12 q 489 100 497 -12 q 272 -12 408 -12 q 131 35 186 -12 q 75 165 75 82 q 178 331 75 268 q 489 400 282 394 l 489 483 q 458 610 489 569 q 362 651 428 651 q 263 624 296 651 q 229 563 229 597 q 249 508 229 529 q 184 486 219 486 q 126 506 149 486 q 104 561 104 525 q 179 672 104 626 q 364 718 254 718 q 539 659 474 718 q 604 494 604 600 z "},"å":{"ha":732,"x_min":75,"x_max":672,"o":"m 397 963 q 388 973 397 963 q 354 983 379 983 q 316 966 329 983 q 303 932 303 949 q 304 906 303 915 q 322 845 306 865 q 364 825 339 825 q 418 885 418 825 q 417 906 418 894 q 397 963 415 943 m 504 904 q 504 875 504 904 q 463 813 504 846 q 360 781 421 781 q 258 813 300 781 q 217 905 217 846 q 258 995 217 964 q 360 1026 300 1026 q 463 994 421 1026 q 504 904 504 963 m 200 178 q 309 78 200 78 q 489 174 418 78 l 489 339 q 271 287 342 331 q 200 178 200 243 m 604 494 l 604 125 q 672 42 604 51 q 585 -12 646 -12 q 489 100 497 -12 q 272 -12 408 -12 q 131 35 186 -12 q 75 165 75 82 q 178 331 75 268 q 489 400 282 394 l 489 483 q 458 610 489 569 q 362 651 428 651 q 263 624 296 651 q 229 563 229 597 q 249 508 229 529 q 184 486 219 486 q 126 506 149 486 q 104 561 104 525 q 179 672 104 626 q 364 718 254 718 q 539 659 474 718 q 604 494 604 600 z "},"æ":{"ha":1099,"x_min":75,"x_max":1050,"o":"m 489 325 l 489 339 q 271 287 342 331 q 200 178 200 243 q 312 78 200 78 q 508 197 424 78 q 489 325 489 256 m 869 428 q 913 445 899 431 q 928 507 928 460 q 893 596 928 554 q 794 638 858 638 q 678 577 731 638 q 614 408 626 517 l 869 428 m 611 349 q 669 146 610 211 q 836 81 728 81 q 1021 153 944 81 q 1040 115 1040 142 q 974 28 1040 69 q 817 -12 907 -12 q 538 132 626 -12 q 286 -12 429 -12 q 133 35 192 -12 q 75 165 75 82 q 178 331 75 268 q 489 400 282 394 l 489 483 q 458 610 489 569 q 362 651 428 651 q 263 624 296 651 q 229 563 229 597 q 249 508 229 529 q 184 486 219 486 q 126 506 149 486 q 104 561 104 525 q 178 672 104 626 q 357 718 253 718 q 579 594 528 718 q 818 718 679 718 q 985 647 921 718 q 1050 486 1050 576 q 1015 390 1050 421 q 899 356 979 358 l 611 349 z "},"ç":{"ha":682,"x_min":69,"x_max":617,"o":"m 69 321 q 173 606 69 494 q 425 718 276 718 q 565 679 513 718 q 617 585 617 640 q 597 532 617 551 q 550 513 578 513 q 504 524 522 513 q 508 554 508 539 q 404 639 508 639 q 253 561 319 639 q 186 351 186 483 q 248 151 186 218 q 400 85 310 85 q 592 158 515 85 q 610 118 610 143 q 544 33 610 75 q 392 -12 478 -10 l 363 -94 l 379 -94 q 488 -123 444 -94 q 532 -206 532 -151 q 474 -303 532 -261 q 327 -344 417 -344 q 179 -310 238 -344 q 121 -235 121 -275 q 139 -199 121 -214 q 313 -271 204 -271 q 421 -203 421 -271 q 333 -149 421 -149 l 307 -149 q 272 -122 272 -149 q 279 -96 272 -111 l 313 -6 q 138 103 207 18 q 69 321 69 189 z "},"è":{"ha":679,"x_min":69,"x_max":638,"o":"m 453 428 q 510 494 510 432 q 474 597 510 556 q 375 638 439 638 q 258 576 311 638 q 193 407 206 515 l 453 428 m 190 347 q 249 146 190 211 q 418 81 308 81 q 600 153 528 81 q 621 115 621 142 q 554 28 621 69 q 396 -12 488 -12 q 161 78 253 -12 q 69 331 69 168 q 169 606 69 494 q 397 718 268 718 q 565 647 500 718 q 629 486 629 576 q 594 390 629 421 q 479 356 558 358 l 190 347 m 564 1063 q 620 1039 603 1063 q 638 996 638 1015 q 635 964 638 976 q 611 967 624 967 q 553 942 581 967 l 419 813 q 376 789 394 789 q 346 810 356 789 l 465 990 q 564 1063 511 1063 z "},"é":{"ha":679,"x_min":69,"x_max":629,"o":"m 472 813 q 443 789 464 789 q 396 807 422 789 l 251 922 q 204 942 225 942 q 168 935 183 942 q 161 972 161 954 q 171 1006 161 990 q 236 1040 190 1040 q 333 978 282 1040 l 472 813 m 453 428 q 510 494 510 432 q 474 597 510 556 q 375 638 439 638 q 258 576 311 638 q 193 407 206 515 l 453 428 m 190 347 q 249 146 190 211 q 418 81 308 81 q 600 153 528 81 q 621 115 621 142 q 554 28 621 69 q 396 -12 488 -12 q 161 78 253 -12 q 69 331 69 168 q 169 606 69 494 q 397 718 268 718 q 565 647 500 718 q 629 486 629 576 q 594 390 629 421 q 479 356 558 358 l 190 347 z "},"ê":{"ha":679,"x_min":69,"x_max":629,"o":"m 278 813 q 229 789 254 789 q 199 810 204 789 l 292 953 q 335 1006 314 989 q 388 1022 357 1022 q 440 1006 419 1022 q 485 953 461 989 l 576 810 q 546 789 571 789 q 497 813 521 789 l 388 924 l 278 813 m 453 428 q 510 494 510 432 q 474 597 510 556 q 375 638 439 638 q 258 576 311 638 q 193 407 206 515 l 453 428 m 190 347 q 249 146 190 211 q 418 81 308 81 q 600 153 528 81 q 621 115 621 142 q 554 28 621 69 q 396 -12 488 -12 q 161 78 253 -12 q 69 331 69 168 q 169 606 69 494 q 397 718 268 718 q 565 647 500 718 q 629 486 629 576 q 594 390 629 421 q 479 356 558 358 l 190 347 z "},"ë":{"ha":679,"x_min":69,"x_max":629,"o":"m 568 906 q 568 890 568 906 q 542 849 568 875 q 485 822 515 822 q 437 840 454 822 q 419 889 419 858 q 447 946 419 919 q 503 972 474 972 q 551 954 533 972 q 568 906 568 936 m 357 906 q 357 890 357 906 q 331 849 357 875 q 274 822 304 822 q 226 840 244 822 q 208 889 208 858 q 235 946 208 919 q 292 972 263 972 q 340 954 322 972 q 357 906 357 936 m 453 428 q 510 494 510 432 q 474 597 510 556 q 375 638 439 638 q 258 576 311 638 q 193 407 206 515 l 453 428 m 190 347 q 249 146 190 211 q 418 81 308 81 q 600 153 528 81 q 621 115 621 142 q 554 28 621 69 q 396 -12 488 -12 q 161 78 253 -12 q 69 331 69 168 q 169 606 69 494 q 397 718 268 718 q 565 647 500 718 q 629 486 629 576 q 594 390 629 421 q 479 356 558 358 l 190 347 z "},"ì":{"ha":368,"x_min":93,"x_max":435,"o":"m 361 1063 q 417 1039 400 1063 q 435 996 435 1015 q 432 964 435 976 q 408 967 421 967 q 350 942 378 967 l 217 813 q 174 789 192 789 q 143 810 153 789 l 263 990 q 361 1063 308 1063 m 243 621 l 243 86 q 278 32 243 46 q 206 -12 249 -12 q 128 85 128 -12 l 128 618 q 93 674 128 658 q 165 718 119 718 q 243 621 243 718 z "},"í":{"ha":368,"x_min":-42,"x_max":278,"o":"m 243 621 l 243 86 q 278 32 243 46 q 206 -12 249 -12 q 128 85 128 -12 l 128 618 q 93 674 128 658 q 165 718 119 718 q 243 621 243 718 m 269 813 q 240 789 261 789 q 193 807 219 789 l 49 922 q 1 942 22 942 q -35 935 -19 942 q -42 972 -42 954 q -32 1006 -42 990 q 33 1040 -12 1040 q 131 978 79 1040 l 269 813 z "},"î":{"ha":368,"x_min":-4,"x_max":374,"o":"m 243 621 l 243 86 q 278 32 243 46 q 206 -12 249 -12 q 128 85 128 -12 l 128 618 q 93 674 128 658 q 165 718 119 718 q 243 621 243 718 m 374 810 q 343 789 368 789 q 294 813 318 789 l 185 924 l 75 813 q 26 789 51 789 q -4 810 1 789 l 89 953 q 133 1006 111 989 q 185 1022 154 1022 q 238 1006 217 1022 q 282 953 258 989 l 374 810 z "},"ï":{"ha":368,"x_min":6,"x_max":365,"o":"m 243 621 l 243 86 q 278 32 243 46 q 206 -12 249 -12 q 128 85 128 -12 l 128 618 q 93 674 128 658 q 165 718 119 718 q 243 621 243 718 m 301 972 q 316 972 301 972 q 348 954 331 972 q 365 906 365 936 q 339 849 365 875 q 282 822 313 822 q 234 840 251 822 q 217 889 217 858 q 244 946 217 919 q 301 972 271 972 m 90 972 q 105 972 90 972 q 137 954 119 972 q 154 906 154 936 q 128 849 154 875 q 72 822 101 822 q 24 840 42 822 q 6 889 6 858 q 33 946 6 919 q 90 972 60 972 z "},"ð":{"ha":797,"x_min":69,"x_max":728,"o":"m 264 136 q 419 65 325 65 q 562 130 514 65 q 610 308 610 194 q 536 569 610 486 q 381 639 475 639 q 238 576 286 639 q 190 401 190 513 q 264 136 190 221 m 546 865 q 676 617 625 751 q 728 373 728 482 q 699 189 728 264 q 621 72 669 114 q 394 -12 525 -12 q 166 83 263 -12 q 69 353 69 179 q 166 622 69 526 q 400 718 263 718 q 553 667 486 718 q 457 840 513 763 l 267 788 q 256 815 256 794 q 339 882 256 858 l 411 901 q 282 1029 357 968 q 324 1054 294 1054 q 500 926 394 1054 l 679 976 q 690 949 690 967 q 586 876 690 904 l 546 865 z "},"ñ":{"ha":825,"x_min":93,"x_max":739,"o":"m 251 817 q 214 872 214 825 q 251 953 214 919 q 337 986 288 986 q 444 949 386 986 q 531 913 503 913 q 580 933 560 913 q 603 988 600 953 q 639 930 639 975 q 601 851 639 885 q 517 817 564 817 q 411 854 469 817 q 324 892 353 892 q 274 872 294 892 q 251 817 253 851 m 703 479 l 703 86 q 739 32 703 47 q 665 -12 710 -12 q 589 85 589 -12 l 589 471 q 461 617 589 617 q 329 561 392 617 q 243 413 267 506 l 243 86 q 278 32 243 46 q 206 -12 249 -12 q 128 85 128 -12 l 128 618 q 93 674 128 658 q 165 718 119 718 q 243 621 243 718 l 243 549 q 346 671 279 624 q 502 718 413 718 q 647 658 592 718 q 703 479 703 597 z "},"ò":{"ha":797,"x_min":69,"x_max":731,"o":"m 574 1063 q 630 1039 613 1063 q 647 996 647 1015 q 644 964 647 976 q 621 967 633 967 q 563 942 590 967 l 429 813 q 386 789 404 789 q 356 810 365 789 l 475 990 q 574 1063 521 1063 m 548 566 q 516 602 548 566 q 389 639 485 639 q 240 573 293 639 q 188 379 188 507 q 252 140 188 214 q 413 65 317 65 q 560 132 508 65 q 611 326 611 199 q 548 566 611 493 m 166 622 q 214 670 166 622 q 400 718 263 718 q 634 622 538 718 q 731 352 731 525 q 634 83 731 179 q 400 -12 538 -12 q 166 83 263 -12 q 69 353 69 179 q 166 622 69 526 z "},"ó":{"ha":797,"x_min":69,"x_max":731,"o":"m 548 566 q 516 602 548 566 q 389 639 485 639 q 240 573 293 639 q 188 379 188 507 q 252 140 188 214 q 413 65 317 65 q 560 132 508 65 q 611 326 611 199 q 548 566 611 493 m 166 622 q 214 670 166 622 q 400 718 263 718 q 634 622 538 718 q 731 352 731 525 q 634 83 731 179 q 400 -12 538 -12 q 166 83 263 -12 q 69 353 69 179 q 166 622 69 526 m 482 813 q 453 789 474 789 q 406 807 432 789 l 261 922 q 214 942 235 942 q 178 935 193 942 q 171 972 171 954 q 181 1006 171 990 q 246 1040 200 1040 q 343 978 292 1040 l 482 813 z "},"ô":{"ha":797,"x_min":69,"x_max":731,"o":"m 288 813 q 239 789 264 789 q 208 810 214 789 l 301 953 q 345 1006 324 989 q 398 1022 367 1022 q 450 1006 429 1022 q 494 953 471 989 l 586 810 q 556 789 581 789 q 507 813 531 789 l 397 924 l 288 813 m 252 140 q 284 102 252 140 q 413 65 317 65 q 560 132 508 65 q 611 326 611 199 q 548 566 611 493 q 389 639 485 639 q 240 573 293 639 q 188 379 188 507 q 252 140 188 214 m 166 622 q 214 670 166 622 q 400 718 263 718 q 634 622 538 718 q 731 352 731 525 q 634 83 731 179 q 400 -12 538 -12 q 166 83 263 -12 q 69 353 69 179 q 166 622 69 526 z "},"õ":{"ha":797,"x_min":69,"x_max":731,"o":"m 320 986 q 345 986 320 986 q 428 949 369 986 q 515 913 486 913 q 563 933 543 913 q 586 988 583 953 q 622 930 622 975 q 585 851 622 885 q 500 817 547 817 q 394 854 453 817 q 307 892 336 892 q 257 872 278 892 q 235 817 236 851 q 197 872 197 825 q 234 953 197 919 q 320 986 271 986 m 548 566 q 516 602 548 566 q 389 639 485 639 q 240 573 293 639 q 188 379 188 507 q 252 140 188 214 q 413 65 317 65 q 560 132 508 65 q 611 326 611 199 q 548 566 611 493 m 166 622 q 214 670 166 622 q 400 718 263 718 q 634 622 538 718 q 731 352 731 525 q 634 83 731 179 q 400 -12 538 -12 q 166 83 263 -12 q 69 353 69 179 q 166 622 69 526 z "},"ö":{"ha":797,"x_min":69,"x_max":731,"o":"m 548 566 q 516 602 548 566 q 389 639 485 639 q 240 573 293 639 q 188 379 188 507 q 252 140 188 214 q 413 65 317 65 q 560 132 508 65 q 611 326 611 199 q 548 566 611 493 m 166 622 q 214 670 166 622 q 400 718 263 718 q 634 622 538 718 q 731 352 731 525 q 634 83 731 179 q 400 -12 538 -12 q 166 83 263 -12 q 69 353 69 179 q 166 622 69 526 m 513 972 q 528 972 513 972 q 560 954 543 972 q 578 906 578 936 q 551 849 578 875 q 494 822 525 822 q 447 840 464 822 q 429 889 429 858 q 456 946 429 919 q 513 972 483 972 m 302 972 q 317 972 302 972 q 349 954 332 972 q 367 906 367 936 q 340 849 367 875 q 284 822 314 822 q 236 840 254 822 q 218 889 218 858 q 245 946 218 919 q 302 972 272 972 z "},"÷":{"ha":829,"x_min":53,"x_max":776,"o":"m 158 610 l 772 610 q 776 588 776 603 q 672 514 776 514 l 60 514 q 53 539 53 528 q 158 610 53 610 m 429 413 q 447 413 429 413 q 487 391 465 413 q 508 333 508 369 q 476 264 508 296 q 407 232 444 232 q 349 253 369 232 q 328 311 328 275 q 360 380 328 347 q 429 413 393 413 m 430 896 q 448 896 430 896 q 488 874 467 896 q 508 817 508 853 q 476 749 508 781 q 408 717 444 717 q 349 738 371 717 q 328 796 328 760 q 360 864 328 832 q 430 896 393 896 z "},"ø":{"ha":819,"x_min":61,"x_max":736,"o":"m 263 128 q 415 65 321 65 q 560 132 508 65 q 611 326 611 199 q 576 517 611 442 l 263 128 m 536 579 q 385 639 478 639 q 240 573 293 639 q 188 379 188 507 q 221 192 188 264 l 536 579 m 649 606 q 731 342 731 506 q 634 83 731 179 q 400 -12 538 -12 q 201 53 288 -12 l 188 35 q 107 -12 147 -12 q 61 26 67 -12 q 146 100 115 57 l 149 103 q 69 365 69 203 q 166 622 69 526 q 400 718 263 718 q 596 656 513 718 l 608 669 q 690 718 651 718 q 736 679 728 718 q 650 607 696 658 l 649 606 z "},"ù":{"ha":825,"x_min":93,"x_max":739,"o":"m 371 810 l 490 990 q 589 1063 536 1063 q 645 1039 628 1063 q 663 996 663 1015 q 660 964 663 976 q 636 967 649 967 q 578 942 606 967 l 444 813 q 400 789 419 789 q 371 810 381 789 m 703 621 l 703 86 q 739 32 703 47 q 665 -12 710 -12 q 589 85 589 -12 l 589 121 q 363 -12 511 -12 q 128 226 128 -12 l 128 618 q 93 674 128 658 q 165 718 119 718 q 243 621 243 718 l 243 233 q 388 86 243 86 q 508 126 454 86 q 589 239 561 167 l 589 618 q 553 674 589 658 q 626 718 585 718 q 703 621 703 718 z "},"ú":{"ha":825,"x_min":93,"x_max":739,"o":"m 497 813 q 468 789 489 789 q 421 807 447 789 l 276 922 q 229 942 250 942 q 193 935 208 942 q 186 972 186 954 q 196 1006 186 990 q 261 1040 215 1040 q 358 978 307 1040 l 497 813 m 703 621 l 703 86 q 739 32 703 47 q 665 -12 710 -12 q 589 85 589 -12 l 589 121 q 363 -12 511 -12 q 128 226 128 -12 l 128 618 q 93 674 128 658 q 165 718 119 718 q 243 621 243 718 l 243 233 q 388 86 243 86 q 508 126 454 86 q 589 239 561 167 l 589 618 q 553 674 589 658 q 626 718 585 718 q 703 621 703 718 z "},"û":{"ha":825,"x_min":93,"x_max":739,"o":"m 303 813 q 254 789 279 789 q 224 810 229 789 l 317 953 q 360 1006 339 989 q 413 1022 382 1022 q 465 1006 444 1022 q 510 953 486 989 l 601 810 q 571 789 596 789 q 522 813 546 789 l 413 924 l 303 813 m 703 621 l 703 86 q 739 32 703 47 q 665 -12 710 -12 q 589 85 589 -12 l 589 121 q 363 -12 511 -12 q 128 226 128 -12 l 128 618 q 93 674 128 658 q 165 718 119 718 q 243 621 243 718 l 243 233 q 388 86 243 86 q 508 126 454 86 q 589 239 561 167 l 589 618 q 553 674 589 658 q 626 718 585 718 q 703 621 703 718 z "},"ü":{"ha":825,"x_min":93,"x_max":739,"o":"m 593 906 q 593 890 593 906 q 567 849 593 875 q 510 822 540 822 q 462 840 479 822 q 444 889 444 858 q 472 946 444 919 q 528 972 499 972 q 576 954 558 972 q 593 906 593 936 m 382 906 q 382 890 382 906 q 356 849 382 875 q 299 822 329 822 q 251 840 269 822 q 233 889 233 858 q 260 946 233 919 q 317 972 288 972 q 365 954 347 972 q 382 906 382 936 m 703 621 l 703 86 q 739 32 703 47 q 665 -12 710 -12 q 589 85 589 -12 l 589 121 q 363 -12 511 -12 q 128 226 128 -12 l 128 618 q 93 674 128 658 q 165 718 119 718 q 243 621 243 718 l 243 233 q 388 86 243 86 q 508 126 454 86 q 589 239 561 167 l 589 618 q 553 674 589 658 q 626 718 585 718 q 703 621 703 718 z "},"ý":{"ha":743,"x_min":49,"x_max":725,"o":"m 481 813 q 451 789 472 789 q 404 807 431 789 l 260 922 q 213 942 233 942 q 176 935 192 942 q 169 972 169 954 q 179 1006 169 990 q 244 1040 199 1040 q 342 978 290 1040 l 481 813 m 594 597 q 604 650 604 624 q 585 697 604 676 q 653 718 615 718 q 714 681 690 718 q 725 637 725 661 q 713 582 725 613 l 424 -171 q 238 -344 356 -344 q 168 -322 193 -344 q 143 -266 143 -300 q 165 -211 143 -232 q 226 -237 190 -237 q 284 -218 263 -237 q 324 -149 306 -199 l 374 -12 q 369 -12 372 -12 q 318 6 342 -12 q 283 60 294 25 l 92 615 q 49 681 78 667 q 122 718 72 718 q 208 628 182 718 l 399 57 l 594 597 z "},"þ":{"ha":817,"x_min":93,"x_max":746,"o":"m 424 82 q 567 155 508 82 q 626 353 626 228 q 567 550 626 478 q 424 622 508 622 q 243 508 304 622 l 243 178 q 321 103 278 125 q 424 82 364 82 m 243 960 l 243 619 q 441 718 315 718 q 656 623 567 718 q 746 354 746 528 q 652 85 746 181 q 437 -11 558 -11 q 243 69 315 -11 l 243 -244 q 278 -300 243 -286 q 206 -344 249 -344 q 128 -246 128 -344 l 128 957 q 93 1013 128 997 q 165 1056 117 1056 q 243 960 243 1056 z "},"ÿ":{"ha":743,"x_min":49,"x_max":725,"o":"m 578 906 q 578 890 578 906 q 551 849 578 875 q 494 822 525 822 q 447 840 464 822 q 429 889 429 858 q 456 946 429 919 q 513 972 483 972 q 560 954 543 972 q 578 906 578 936 m 367 906 q 367 890 367 906 q 340 849 367 875 q 284 822 314 822 q 236 840 254 822 q 218 889 218 858 q 245 946 218 919 q 302 972 272 972 q 349 954 332 972 q 367 906 367 936 m 594 597 q 604 650 604 624 q 585 697 604 676 q 653 718 615 718 q 714 681 690 718 q 725 637 725 661 q 713 582 725 613 l 424 -171 q 238 -344 356 -344 q 168 -322 193 -344 q 143 -266 143 -300 q 165 -211 143 -232 q 226 -237 190 -237 q 284 -218 263 -237 q 324 -149 306 -199 l 374 -12 q 369 -12 372 -12 q 318 6 342 -12 q 283 60 294 25 l 92 615 q 49 681 78 667 q 122 718 72 718 q 208 628 182 718 l 399 57 l 594 597 z "},"ı":{"ha":368,"x_min":93,"x_max":278,"o":"m 243 621 l 243 86 q 278 32 243 46 q 206 -12 249 -12 q 128 85 128 -12 l 128 618 q 93 674 128 658 q 165 718 119 718 q 243 621 243 718 z "},"Ł":{"ha":811,"x_min":24,"x_max":750,"o":"m 425 713 q 447 671 447 701 q 378 593 447 629 l 271 540 l 271 185 q 294 113 271 135 q 369 90 317 90 l 597 90 q 710 149 675 90 q 750 93 750 135 q 597 0 750 0 l 363 0 q 204 42 254 0 q 154 182 154 83 l 154 483 l 46 431 q 24 472 24 444 q 94 547 24 513 l 154 578 l 154 910 q 119 964 154 949 q 193 1007 147 1007 q 271 911 271 1007 l 271 636 l 425 713 z "},"ł":{"ha":468,"x_min":24,"x_max":446,"o":"m 44 428 q 24 469 24 442 q 92 546 24 510 l 171 585 l 171 957 q 136 1013 171 997 q 208 1056 160 1056 q 286 960 286 1056 l 286 642 l 424 710 q 439 694 432 708 q 446 667 446 679 q 376 592 446 624 l 286 547 l 286 86 q 321 32 286 46 q 249 -12 292 -12 q 171 85 171 -12 l 171 490 l 44 428 z "},"Œ":{"ha":1488,"x_min":100,"x_max":1404,"o":"m 551 911 q 294 793 385 911 q 218 538 218 694 q 221 472 218 506 q 330 181 236 281 q 563 81 424 81 q 750 110 672 81 l 750 885 q 551 911 653 911 m 965 93 l 1246 93 q 1363 151 1326 93 q 1404 92 1404 135 q 1250 0 1404 0 l 590 0 q 100 499 100 0 q 231 865 100 733 q 607 996 363 996 l 1264 996 q 1404 924 1404 996 q 1363 867 1404 881 q 1246 901 1324 901 l 867 901 l 867 563 l 1160 563 q 1268 550 1236 563 q 1300 501 1300 538 q 1265 449 1300 465 q 1149 468 1231 468 l 867 468 l 867 188 q 889 115 867 138 q 965 93 911 93 z "},"œ":{"ha":1218,"x_min":69,"x_max":1169,"o":"m 990 428 q 1049 494 1049 432 q 1013 597 1049 556 q 913 638 978 638 q 797 576 849 638 q 733 407 744 515 l 990 428 m 264 136 q 419 65 325 65 q 562 130 514 65 q 610 308 610 194 q 536 569 610 486 q 381 639 475 639 q 238 576 286 639 q 190 401 190 513 q 264 136 190 221 m 731 347 q 788 146 729 211 q 956 81 847 81 q 1139 153 1064 81 q 1160 115 1160 142 q 1093 28 1160 69 q 936 -12 1026 -12 q 664 124 753 -12 q 550 22 619 57 q 400 -12 481 -12 q 166 83 263 -12 q 69 353 69 179 q 166 622 69 526 q 400 718 263 718 q 558 677 485 718 q 675 561 632 636 q 792 676 722 635 q 936 718 863 718 q 1105 648 1040 718 q 1169 486 1169 578 q 1134 390 1169 421 q 1018 356 1099 358 l 731 347 z "},"Š":{"ha":894,"x_min":94,"x_max":807,"o":"m 544 1149 q 500 1097 521 1113 q 448 1081 479 1081 q 395 1097 417 1081 q 351 1149 374 1113 l 258 1293 q 288 1314 263 1314 q 338 1290 314 1314 l 447 1179 l 557 1290 q 606 1314 581 1314 q 636 1293 632 1314 l 544 1149 m 447 926 q 399 926 447 926 q 294 886 351 926 q 238 778 238 846 q 296 662 238 711 q 438 576 354 613 q 606 503 522 540 q 749 408 690 465 q 807 276 807 350 q 699 70 807 153 q 442 -12 592 -12 q 193 55 292 -12 q 94 225 94 122 q 119 298 94 269 q 186 326 144 326 q 251 293 228 326 q 219 211 219 264 q 278 117 219 158 q 438 75 336 75 q 615 128 540 75 q 690 257 690 181 q 648 346 690 306 q 542 413 606 386 q 406 472 479 439 q 269 539 332 506 q 163 628 206 572 q 121 754 121 685 q 220 940 121 867 q 457 1013 319 1013 q 684 956 594 1013 q 774 818 774 899 q 752 756 774 779 q 703 733 731 733 q 643 744 676 733 q 649 788 649 767 q 595 883 649 839 q 447 926 542 926 z "},"š":{"ha":697,"x_min":76,"x_max":621,"o":"m 446 857 q 401 805 422 821 q 349 789 381 789 q 297 805 318 789 q 253 857 275 821 l 160 1001 q 190 1022 164 1022 q 239 999 215 1022 l 349 888 l 458 999 q 508 1022 482 1022 q 538 1001 533 1022 l 446 857 m 358 642 q 326 642 358 642 q 257 613 294 642 q 219 546 219 585 q 261 476 219 507 q 361 419 303 444 q 478 364 419 393 q 579 290 538 335 q 621 189 621 244 q 543 47 621 107 q 346 -12 465 -12 q 151 33 226 -12 q 76 151 76 79 q 101 219 76 194 q 159 243 125 243 q 213 219 193 243 q 193 156 193 193 q 231 91 193 118 q 342 64 269 64 q 459 95 415 64 q 503 172 503 126 q 462 250 503 217 q 363 308 421 283 q 245 359 304 332 q 145 428 186 386 q 104 522 104 469 q 176 662 104 606 q 353 718 249 718 q 533 680 458 718 q 608 579 608 642 q 587 527 610 546 q 532 508 564 508 q 478 525 500 508 q 486 565 486 539 q 454 617 486 592 q 358 642 422 642 z "},"Ÿ":{"ha":828,"x_min":21,"x_max":793,"o":"m 617 1197 q 617 1182 617 1197 q 590 1140 617 1167 q 533 1114 564 1114 q 485 1132 503 1114 q 468 1181 468 1150 q 495 1238 468 1211 q 552 1264 522 1264 q 599 1246 582 1264 q 617 1197 617 1228 m 406 1197 q 406 1182 406 1197 q 379 1140 406 1167 q 323 1114 353 1114 q 275 1132 293 1114 q 257 1181 257 1150 q 284 1238 257 1211 q 341 1264 311 1264 q 388 1246 371 1264 q 406 1197 406 1228 m 432 -11 q 357 92 357 -11 l 358 440 l 104 886 q 21 939 71 938 q 104 1007 42 1007 q 208 935 167 1007 l 425 549 l 649 897 q 671 951 671 928 q 654 990 671 974 q 721 1007 683 1007 q 776 990 758 1007 q 793 946 793 974 q 771 881 793 918 l 474 444 l 472 83 q 497 11 472 39 q 432 -11 468 -11 z "},"Ž":{"ha":847,"x_min":71,"x_max":775,"o":"m 519 1149 q 475 1097 496 1113 q 423 1081 454 1081 q 370 1097 392 1081 q 326 1149 349 1113 l 233 1293 q 263 1314 238 1314 q 313 1290 289 1314 l 422 1179 l 532 1290 q 581 1314 556 1314 q 611 1293 607 1314 l 519 1149 m 775 81 q 599 0 775 0 l 169 0 q 98 24 125 0 q 71 83 71 47 q 119 179 71 118 l 661 910 q 271 888 453 888 q 89 967 89 888 q 113 1015 89 996 q 258 996 167 996 l 675 996 q 748 972 721 996 q 775 913 775 949 q 725 815 775 876 l 188 86 l 608 103 q 750 138 703 107 q 775 81 775 113 z "},"ž":{"ha":704,"x_min":89,"x_max":633,"o":"m 449 857 q 404 805 425 821 q 352 789 383 789 q 299 805 321 789 q 256 857 278 821 l 163 1001 q 192 1022 167 1022 q 242 999 218 1022 l 351 888 l 461 999 q 510 1022 485 1022 q 540 1001 536 1022 l 449 857 m 633 71 q 463 0 633 0 l 183 0 q 114 23 139 0 q 89 83 89 46 q 133 168 89 119 l 531 624 q 260 603 357 603 q 90 678 90 603 q 113 724 90 704 q 253 704 167 704 l 540 704 q 608 681 583 704 q 633 622 633 658 q 588 536 633 586 l 196 83 l 471 93 q 608 131 563 94 q 633 71 633 107 z "},"ƒ":{"ha":724,"x_min":-99,"x_max":674,"o":"m 276 782 q 369 949 304 892 q 515 1007 435 1007 q 634 976 594 1007 q 674 910 674 946 q 653 857 674 874 q 538 921 610 921 q 392 778 428 921 l 360 646 l 575 646 q 581 624 581 639 q 558 594 581 610 q 338 557 506 557 l 158 -172 q 98 -299 140 -253 q -12 -344 56 -344 q -99 -274 -81 -344 q -1 -245 -33 -274 q 47 -150 31 -217 l 221 557 q 118 615 118 561 q 138 656 118 639 q 231 646 165 646 l 243 646 l 276 782 z "},"ˆ":{"ha":411,"x_min":17,"x_max":394,"o":"m 394 810 q 364 789 389 789 q 315 813 339 789 l 206 924 l 96 813 q 47 789 72 789 q 17 810 22 789 l 110 953 q 153 1006 132 989 q 206 1022 175 1022 q 258 1006 238 1022 q 303 953 279 989 l 394 810 z "},"ˇ":{"ha":411,"x_min":17,"x_max":394,"o":"m 315 999 q 365 1022 339 1022 q 394 1001 390 1022 l 303 857 q 258 805 279 821 q 206 789 238 789 q 153 805 175 789 q 110 857 132 821 l 17 1001 q 47 1022 21 1022 q 96 999 72 1022 l 206 888 l 315 999 z "},"˘":{"ha":419,"x_min":17,"x_max":403,"o":"m 307 963 q 344 968 324 968 q 384 953 365 968 q 403 910 403 938 q 351 831 403 864 q 210 797 299 797 q 69 831 121 797 q 17 910 17 864 q 35 953 17 938 q 73 968 54 968 q 114 963 92 968 q 210 850 114 850 q 307 963 307 850 z "},"˙":{"ha":192,"x_min":17,"x_max":175,"o":"m 106 992 q 123 992 106 992 q 157 973 139 992 q 175 922 175 954 q 147 861 175 889 q 85 833 118 833 q 35 852 53 833 q 17 903 17 871 q 45 963 17 935 q 106 992 74 992 z "},"˚":{"ha":321,"x_min":17,"x_max":304,"o":"m 197 963 q 188 973 197 963 q 154 983 179 983 q 116 966 129 983 q 103 932 103 949 q 104 906 103 915 q 122 845 106 865 q 164 825 139 825 q 218 885 218 825 q 217 906 218 894 q 197 963 215 943 m 17 905 q 17 934 17 905 q 58 995 17 964 q 160 1026 100 1026 q 263 994 221 1026 q 304 904 304 963 q 263 813 304 846 q 160 781 221 781 q 58 813 100 781 q 17 905 17 846 z "},"˛":{"ha":356,"x_min":17,"x_max":336,"o":"m 138 -185 q 236 -265 138 -265 q 328 -239 279 -265 q 336 -262 336 -247 q 297 -318 336 -293 q 189 -343 258 -343 q 68 -306 119 -343 q 17 -199 17 -268 q 83 -80 17 -131 q 263 -14 150 -29 l 263 -71 q 138 -185 138 -101 z "},"˜":{"ha":486,"x_min":31,"x_max":456,"o":"m 153 986 q 178 986 153 986 q 261 949 203 986 q 348 913 319 913 q 397 933 376 913 q 419 988 417 953 q 456 930 456 975 q 418 851 456 885 q 333 817 381 817 q 228 854 286 817 q 140 892 169 892 q 90 872 111 892 q 68 817 69 851 q 31 872 31 825 q 67 953 31 919 q 153 986 104 986 z "},"˝":{"ha":450,"x_min":17,"x_max":433,"o":"m 218 989 q 158 949 186 989 l 74 814 q 44 793 60 793 q 17 807 28 793 l 61 956 q 160 1057 93 1057 q 203 1038 188 1057 q 218 989 218 1019 m 425 979 q 357 939 392 979 l 247 813 q 213 793 229 793 q 188 813 197 793 l 258 953 q 375 1057 310 1057 q 421 1038 408 1057 q 433 1005 433 1018 q 429 979 433 992 q 425 979 426 979 z "},"ँ":{"ha":0,"x_min":-471,"x_max":49,"o":"m -149 1322 q -149 1306 -149 1322 q -167 1272 -149 1290 q -217 1253 -185 1253 q -277 1281 -250 1253 q -304 1340 -304 1308 q -286 1391 -304 1372 q -236 1410 -268 1410 q -176 1381 -204 1410 q -149 1322 -149 1353 m -222 1140 q -95 1169 -154 1140 q -7 1257 -36 1199 q 33 1236 17 1254 q 49 1193 49 1218 q -22 1098 49 1135 q -193 1061 -92 1061 q -383 1117 -294 1061 q -471 1221 -471 1174 q -449 1253 -471 1244 q -222 1140 -365 1140 z "},"ं":{"ha":0,"x_min":-274,"x_max":-117,"o":"m -117 1122 q -117 1106 -117 1122 q -135 1072 -117 1090 q -185 1053 -153 1053 q -246 1081 -218 1053 q -274 1140 -274 1108 q -255 1190 -274 1171 q -205 1208 -236 1208 q -145 1181 -174 1208 q -117 1122 -117 1153 z "},"ः":{"ha":388,"x_min":119,"x_max":276,"o":"m 276 638 q 276 623 276 638 q 258 588 276 607 q 207 569 239 569 q 147 597 175 569 q 119 656 119 625 q 138 706 119 688 q 188 725 156 725 q 248 697 219 725 q 276 638 276 669 m 276 199 q 276 184 276 199 q 258 149 276 168 q 207 129 239 129 q 147 157 175 129 q 119 217 119 185 q 138 267 119 249 q 188 286 156 286 q 248 258 219 286 q 276 199 276 231 z "},"अ":{"ha":989,"x_min":14,"x_max":1038,"o":"m 849 690 l 842 118 q 857 -1 842 24 q 826 -7 842 -7 q 746 125 746 -7 q 757 403 746 290 q 659 390 717 390 q 542 418 601 390 q 563 328 563 374 q 507 192 563 243 q 369 140 451 140 q 220 174 288 140 q 110 253 153 207 q 40 344 67 300 q 14 415 14 388 q 44 449 14 442 q 161 295 89 358 q 310 232 233 232 q 431 269 388 232 q 474 360 474 306 q 454 447 474 415 q 417 492 435 479 q 313 464 364 464 q 228 485 263 464 q 193 544 193 507 q 217 599 193 581 q 285 618 242 618 q 379 589 328 618 q 453 714 453 644 q 416 794 453 767 q 325 821 379 821 q 178 769 238 821 q 142 826 142 790 q 180 885 142 861 q 275 908 218 908 q 455 840 379 908 q 531 682 531 771 q 463 528 531 593 q 622 469 542 469 q 749 503 703 469 q 751 705 751 619 q 735 814 751 790 l 700 814 q 604 882 604 814 q 608 904 604 897 l 940 904 q 1012 887 986 904 q 1038 838 1038 869 q 1033 814 1038 826 l 811 814 q 849 690 849 788 z "},"आ":{"ha":1367,"x_min":14,"x_max":1415,"o":"m 849 690 l 842 118 q 857 -1 842 24 q 826 -7 842 -7 q 746 125 746 -7 q 757 403 746 290 q 659 390 717 390 q 542 418 601 390 q 563 328 563 374 q 507 192 563 243 q 369 140 451 140 q 220 174 288 140 q 110 253 153 207 q 40 344 67 300 q 14 415 14 388 q 44 449 14 442 q 161 295 89 358 q 310 232 233 232 q 431 269 388 232 q 474 360 474 306 q 454 447 474 415 q 417 492 435 479 q 313 464 364 464 q 228 485 263 464 q 193 544 193 507 q 217 599 193 581 q 285 618 242 618 q 379 589 328 618 q 453 714 453 644 q 416 794 453 767 q 325 821 379 821 q 178 769 238 821 q 142 826 142 790 q 180 885 142 861 q 275 908 218 908 q 455 840 379 908 q 531 682 531 771 q 463 528 531 593 q 622 469 542 469 q 749 503 703 469 q 751 705 751 619 q 735 814 751 790 l 700 814 q 604 882 604 814 q 608 904 604 897 l 1318 904 q 1390 887 1364 904 q 1415 838 1415 869 q 1411 814 1415 826 l 1192 814 q 1228 690 1228 789 l 1222 118 q 1238 -1 1222 24 q 1207 -7 1222 -7 q 1125 128 1125 -7 l 1132 693 q 1115 814 1132 790 l 811 814 q 849 690 849 788 z "},"इ":{"ha":678,"x_min":-67,"x_max":731,"o":"m 286 683 l 375 682 q 450 732 450 682 q 403 814 450 776 l 29 814 q -67 882 -67 814 q -64 904 -67 896 l 635 904 q 731 838 731 904 q 726 814 731 826 l 476 814 q 538 696 538 761 q 501 621 538 651 q 392 590 464 590 l 301 592 q 219 572 257 592 q 182 513 182 551 q 209 450 182 474 q 285 426 236 426 l 379 431 q 540 372 468 431 q 613 226 613 313 q 543 86 613 139 q 374 33 474 33 q 260 47 314 33 q 429 -92 332 -92 q 504 -62 475 -92 q 539 -116 539 -82 q 514 -170 539 -150 q 446 -190 489 -190 q 308 -124 375 -190 q 196 68 240 -57 q 65 217 65 122 q 82 259 65 242 q 130 276 99 276 q 188 240 161 276 q 225 149 214 204 q 340 124 265 124 q 474 158 415 124 q 532 251 532 192 q 505 316 532 292 q 428 340 478 340 l 329 336 q 174 401 247 336 q 100 538 100 465 q 149 647 100 611 q 286 683 199 683 z "},"ई":{"ha":678,"x_min":-67,"x_max":731,"o":"m 286 683 l 375 682 q 450 732 450 682 q 403 814 450 776 l 29 814 q -67 882 -67 814 q -64 904 -67 896 l 303 904 q 233 991 263 936 q 204 1113 204 1046 q 246 1223 204 1179 q 350 1267 288 1267 q 455 1218 413 1267 q 497 1119 497 1169 q 458 1068 497 1068 q 365 1176 443 1176 q 307 1149 332 1176 q 282 1072 282 1122 q 310 978 282 1022 q 376 904 338 933 l 635 904 q 731 838 731 904 q 726 814 731 826 l 476 814 q 538 696 538 761 q 501 621 538 651 q 392 590 464 590 l 301 592 q 219 572 257 592 q 182 513 182 551 q 209 450 182 474 q 285 426 236 426 l 379 431 q 540 372 468 431 q 613 226 613 313 q 543 86 613 139 q 374 33 474 33 q 260 47 314 33 q 429 -92 332 -92 q 504 -62 475 -92 q 539 -116 539 -82 q 514 -170 539 -150 q 446 -190 489 -190 q 308 -124 375 -190 q 196 68 240 -57 q 65 217 65 122 q 82 259 65 242 q 130 276 99 276 q 188 240 161 276 q 225 149 214 204 q 340 124 265 124 q 474 158 415 124 q 532 251 532 192 q 505 316 532 292 q 428 340 478 340 l 329 336 q 174 401 247 336 q 100 538 100 465 q 149 647 100 611 q 286 683 199 683 z "},"उ":{"ha":686,"x_min":-58,"x_max":735,"o":"m 639 904 q 709 886 683 904 q 735 838 735 868 q 731 814 735 826 l 475 814 q 554 633 554 731 q 492 478 554 536 q 590 263 590 376 q 534 126 590 178 q 394 74 478 74 q 240 112 311 74 q 124 203 169 150 q 52 305 79 256 q 25 382 25 354 q 56 415 25 410 q 178 241 101 315 q 351 167 256 167 q 458 204 415 167 q 501 313 501 242 q 443 443 501 385 q 342 417 393 417 q 256 439 290 417 q 221 497 221 461 q 246 552 221 533 q 314 571 271 571 q 408 543 357 571 q 472 674 472 593 q 400 814 472 754 l 38 814 q -58 882 -58 814 q -56 904 -58 896 l 639 904 z "},"ऊ":{"ha":1036,"x_min":-58,"x_max":1079,"o":"m 983 904 q 1079 838 1079 904 q 1075 814 1079 826 l 476 814 q 556 633 556 731 q 493 478 556 536 q 567 353 546 421 q 769 533 633 533 q 931 457 858 533 q 1004 294 1004 381 q 953 152 1004 208 q 825 96 901 96 q 760 116 789 96 q 732 169 732 136 q 733 183 732 178 q 771 179 753 179 q 878 219 833 179 q 924 329 924 260 q 892 410 924 374 q 814 447 860 447 q 738 432 768 447 q 684 386 707 417 q 647 330 661 356 q 612 262 632 304 q 582 201 592 219 q 386 74 517 74 q 240 112 311 74 q 124 203 169 150 q 52 305 79 256 q 25 382 25 354 q 56 415 25 410 q 178 241 101 315 q 351 167 256 167 q 459 204 417 167 q 501 312 501 242 q 444 443 501 382 q 343 417 394 417 q 256 439 292 417 q 221 497 221 461 q 247 552 221 533 q 315 571 272 571 q 410 543 358 571 q 474 674 474 593 q 401 814 474 754 l 38 814 q -58 882 -58 814 q -56 904 -58 896 l 983 904 z "},"ऋ":{"ha":978,"x_min":-67,"x_max":1025,"o":"m 429 467 l 431 693 q 415 814 431 793 l 29 814 q -67 882 -67 814 q -64 904 -67 896 l 929 904 q 1025 838 1025 904 q 1021 814 1025 819 l 492 814 q 528 697 528 789 q 525 421 528 604 q 601 410 563 410 q 751 451 697 410 q 707 553 707 514 q 728 617 707 593 q 785 640 749 640 q 853 602 821 640 q 885 510 885 564 q 844 408 885 456 q 887 347 875 365 q 914 290 899 329 q 929 210 929 251 q 903 138 929 169 q 837 106 878 106 q 772 130 796 106 q 747 194 747 154 q 782 189 758 189 q 826 206 806 189 q 846 261 846 222 q 804 372 846 300 q 643 325 736 325 q 524 347 583 325 q 522 118 524 347 q 538 -1 522 21 q 507 -7 522 -7 q 426 121 426 -7 q 442 347 426 249 q 110 196 226 196 q 50 215 75 196 q 25 275 25 233 q 383 426 157 275 q 336 461 368 438 q 288 497 304 485 q 247 522 271 508 q 166 550 203 550 q 102 531 129 550 q 67 478 75 513 q 17 550 17 494 q 49 616 17 590 q 131 642 81 642 q 229 615 182 642 q 338 538 276 589 q 429 467 399 488 z "},"ऌ":{"ha":985,"x_min":-67,"x_max":1032,"o":"m 936 904 q 1032 838 1032 904 q 1028 814 1032 819 l 664 814 q 700 690 700 789 q 699 593 700 626 q 826 495 774 564 q 878 349 878 426 q 852 251 878 301 q 797 167 826 201 q 715 6 715 72 q 742 -60 715 -36 q 812 -83 769 -83 q 888 -51 854 -83 q 936 33 922 -19 q 994 -33 994 21 q 954 -126 994 -87 q 844 -164 914 -164 q 703 -101 774 -164 q 633 51 633 -39 q 711 217 633 125 q 763 298 739 251 q 788 394 788 344 q 751 483 788 444 q 658 522 715 522 q 519 431 574 522 q 538 346 538 386 q 519 276 538 306 q 465 246 501 246 q 407 276 429 246 q 385 356 385 306 q 421 467 385 407 q 298 525 368 525 q 192 476 228 525 q 156 356 156 428 q 301 36 156 186 q 267 17 293 17 q 191 72 242 17 q 99 220 140 128 q 57 407 57 313 q 115 556 57 501 q 271 611 174 611 q 457 522 368 611 q 603 606 521 597 l 603 693 q 588 814 603 793 l 29 814 q -67 882 -67 814 q -64 904 -67 896 l 936 904 z "},"ऍ":{"ha":782,"x_min":-67,"x_max":829,"o":"m 643 1193 q 573 1098 643 1135 q 401 1061 503 1061 q 212 1117 300 1061 q 124 1221 124 1174 q 146 1253 124 1244 q 372 1140 229 1140 q 499 1169 440 1140 q 588 1257 558 1199 q 627 1236 611 1254 q 643 1193 643 1218 m 125 457 l 128 692 q 113 814 128 792 l 29 814 q -67 882 -67 814 q -64 904 -67 896 l 733 904 q 829 838 829 904 q 825 814 829 819 l 606 814 q 682 553 682 682 q 642 435 682 478 q 548 392 601 392 q 460 418 494 392 q 424 488 425 444 q 494 475 456 475 q 565 508 533 475 q 596 604 596 540 q 543 814 596 718 l 189 814 q 225 690 225 789 l 222 447 q 273 339 222 389 q 397 252 324 289 q 542 179 469 215 q 666 94 615 143 q 717 -14 717 44 q 695 -77 717 -50 q 639 -104 674 -104 q 586 -89 604 -104 q 556 -43 556 -67 q 600 -28 581 -43 q 619 20 619 -14 q 569 92 619 54 q 445 165 518 131 q 299 238 372 199 q 176 333 226 276 q 125 457 125 390 z "},"ऎ":{"ha":782,"x_min":-67,"x_max":829,"o":"m 125 457 l 128 692 q 113 814 128 792 l 29 814 q -67 882 -67 814 q -64 904 -67 896 l 463 904 q 549 925 508 904 q 590 981 590 946 q 569 1033 590 1015 q 510 1050 547 1050 q 406 1022 472 1050 q 297 993 339 993 q 167 1051 224 993 q 111 1186 111 1110 q 147 1274 111 1238 q 239 1311 183 1311 q 291 1293 268 1311 q 314 1244 314 1275 q 311 1226 314 1233 q 224 1205 265 1226 q 183 1149 183 1183 q 205 1097 183 1115 q 265 1079 226 1079 q 368 1108 303 1079 q 476 1138 433 1138 q 606 1079 550 1138 q 663 944 663 1021 q 656 904 663 925 l 733 904 q 829 838 829 904 q 825 814 829 819 l 606 814 q 682 553 682 682 q 642 435 682 478 q 548 392 601 392 q 460 418 494 392 q 424 488 425 444 q 494 475 456 475 q 565 508 533 475 q 596 604 596 540 q 543 814 596 718 l 189 814 q 225 690 225 789 l 222 447 q 273 339 222 389 q 397 252 324 289 q 542 179 469 215 q 666 94 615 143 q 717 -14 717 44 q 695 -77 717 -50 q 639 -104 674 -104 q 586 -89 604 -104 q 556 -43 556 -67 q 600 -28 581 -43 q 619 20 619 -14 q 569 92 619 54 q 445 165 518 131 q 299 238 372 199 q 176 333 226 276 q 125 457 125 390 z "},"ए":{"ha":782,"x_min":-67,"x_max":829,"o":"m 125 457 l 128 692 q 113 814 128 792 l 29 814 q -67 882 -67 814 q -64 904 -67 896 l 733 904 q 829 838 829 904 q 825 814 829 819 l 606 814 q 682 553 682 682 q 642 435 682 478 q 548 392 601 392 q 460 418 494 392 q 424 488 425 444 q 494 475 456 475 q 565 508 533 475 q 596 604 596 540 q 543 814 596 718 l 189 814 q 225 690 225 789 l 222 447 q 273 339 222 389 q 397 252 324 289 q 542 179 469 215 q 666 94 615 143 q 717 -14 717 44 q 695 -77 717 -50 q 639 -104 674 -104 q 586 -89 604 -104 q 556 -43 556 -67 q 600 -28 581 -43 q 619 20 619 -14 q 569 92 619 54 q 445 165 518 131 q 299 238 372 199 q 176 333 226 276 q 125 457 125 390 z "},"ऐ":{"ha":782,"x_min":-67,"x_max":829,"o":"m 125 457 l 128 692 q 113 814 128 792 l 29 814 q -67 882 -67 814 q -64 904 -67 896 l 553 904 q 448 1077 508 1000 q 331 1154 388 1154 q 253 1103 275 1154 q 209 1131 225 1108 q 193 1183 193 1153 q 219 1237 193 1214 q 295 1260 244 1260 q 406 1212 346 1260 q 508 1101 467 1164 q 574 982 549 1038 q 603 904 600 926 l 733 904 q 829 838 829 904 q 825 814 829 819 l 606 814 q 682 553 682 682 q 642 435 682 478 q 548 392 601 392 q 460 418 494 392 q 424 488 425 444 q 494 475 456 475 q 565 508 533 475 q 596 604 596 540 q 543 814 596 718 l 189 814 q 225 690 225 789 l 222 447 q 273 339 222 389 q 397 252 324 289 q 542 179 469 215 q 666 94 615 143 q 717 -14 717 44 q 695 -77 717 -50 q 639 -104 674 -104 q 586 -89 604 -104 q 556 -43 556 -67 q 600 -28 581 -43 q 619 20 619 -14 q 569 92 619 54 q 445 165 518 131 q 299 238 372 199 q 176 333 226 276 q 125 457 125 390 z "},"ऑ":{"ha":1367,"x_min":14,"x_max":1415,"o":"m 1228 1193 q 1158 1098 1228 1135 q 986 1061 1088 1061 q 797 1117 885 1061 q 708 1221 708 1174 q 731 1253 708 1244 q 957 1140 814 1140 q 1084 1169 1025 1140 q 1172 1257 1143 1199 q 1212 1236 1196 1254 q 1228 1193 1228 1218 m 849 690 l 842 118 q 857 -1 842 24 q 826 -7 842 -7 q 746 125 746 -7 q 757 403 746 290 q 659 390 717 390 q 542 418 601 390 q 563 328 563 374 q 507 192 563 243 q 369 140 451 140 q 220 174 288 140 q 110 253 153 207 q 40 344 67 300 q 14 415 14 388 q 44 449 14 442 q 161 295 89 358 q 310 232 233 232 q 431 269 388 232 q 474 360 474 306 q 454 447 474 415 q 417 492 435 479 q 313 464 364 464 q 228 485 263 464 q 193 544 193 507 q 217 599 193 581 q 285 618 242 618 q 379 589 328 618 q 453 714 453 644 q 416 794 453 767 q 325 821 379 821 q 178 769 238 821 q 142 826 142 790 q 180 885 142 861 q 275 908 218 908 q 455 840 379 908 q 531 682 531 771 q 463 528 531 593 q 622 469 542 469 q 749 503 703 469 q 751 705 751 619 q 735 814 751 790 l 700 814 q 604 882 604 814 q 608 904 604 897 l 1318 904 q 1390 887 1364 904 q 1415 838 1415 869 q 1411 814 1415 826 l 1192 814 q 1228 690 1228 789 l 1222 118 q 1238 -1 1222 24 q 1207 -7 1222 -7 q 1125 128 1125 -7 l 1132 693 q 1115 814 1132 790 l 811 814 q 849 690 849 788 z "},"ऒ":{"ha":1367,"x_min":14,"x_max":1415,"o":"m 849 690 l 842 118 q 857 -1 842 24 q 826 -7 842 -7 q 746 125 746 -7 q 757 403 746 290 q 659 390 717 390 q 542 418 601 390 q 563 328 563 374 q 507 192 563 243 q 369 140 451 140 q 220 174 288 140 q 110 253 153 207 q 40 344 67 300 q 14 415 14 388 q 44 449 14 442 q 161 295 89 358 q 310 232 233 232 q 431 269 388 232 q 474 360 474 306 q 454 447 474 415 q 417 492 435 479 q 313 464 364 464 q 228 485 263 464 q 193 544 193 507 q 217 599 193 581 q 285 618 242 618 q 379 589 328 618 q 453 714 453 644 q 416 794 453 767 q 325 821 379 821 q 178 769 238 821 q 142 826 142 790 q 180 885 142 861 q 275 908 218 908 q 455 840 379 908 q 531 682 531 771 q 463 528 531 593 q 622 469 542 469 q 749 503 703 469 q 751 705 751 619 q 735 814 751 790 l 700 814 q 604 882 604 814 q 608 904 604 897 l 1043 904 q 1130 925 1089 904 q 1171 981 1171 946 q 1149 1033 1171 1015 q 1090 1050 1128 1050 q 986 1022 1053 1050 q 878 993 919 993 q 748 1051 804 993 q 692 1186 692 1110 q 728 1274 692 1238 q 819 1311 764 1311 q 872 1293 849 1311 q 894 1244 894 1275 q 892 1226 894 1233 q 805 1205 846 1226 q 764 1149 764 1183 q 785 1097 764 1115 q 845 1079 807 1079 q 949 1108 883 1079 q 1057 1138 1014 1138 q 1187 1079 1131 1138 q 1243 944 1243 1021 q 1236 904 1243 925 l 1318 904 q 1390 887 1364 904 q 1415 838 1415 869 q 1411 814 1415 826 l 1192 814 q 1228 690 1228 789 l 1222 118 q 1238 -1 1222 24 q 1207 -7 1222 -7 q 1125 128 1125 -7 l 1132 693 q 1115 814 1132 790 l 811 814 q 849 690 849 788 z "},"ओ":{"ha":1367,"x_min":14,"x_max":1415,"o":"m 849 690 l 842 118 q 857 -1 842 24 q 826 -7 842 -7 q 746 125 746 -7 q 757 403 746 290 q 659 390 717 390 q 542 418 601 390 q 563 328 563 374 q 507 192 563 243 q 369 140 451 140 q 220 174 288 140 q 110 253 153 207 q 40 344 67 300 q 14 415 14 388 q 44 449 14 442 q 161 295 89 358 q 310 232 233 232 q 431 269 388 232 q 474 360 474 306 q 454 447 474 415 q 417 492 435 479 q 313 464 364 464 q 228 485 263 464 q 193 544 193 507 q 217 599 193 581 q 285 618 242 618 q 379 589 328 618 q 453 714 453 644 q 416 794 453 767 q 325 821 379 821 q 178 769 238 821 q 142 826 142 790 q 180 885 142 861 q 275 908 218 908 q 455 840 379 908 q 531 682 531 771 q 463 528 531 593 q 622 469 542 469 q 749 503 703 469 q 751 705 751 619 q 735 814 751 790 l 700 814 q 604 882 604 814 q 608 904 604 897 l 1144 904 q 1040 1077 1100 1000 q 923 1154 979 1154 q 844 1103 867 1154 q 801 1131 817 1108 q 785 1183 785 1153 q 810 1237 785 1214 q 887 1260 836 1260 q 998 1212 938 1260 q 1099 1101 1058 1164 q 1166 982 1140 1038 q 1194 904 1192 926 l 1318 904 q 1390 887 1364 904 q 1415 838 1415 869 q 1411 814 1415 826 l 1192 814 q 1228 690 1228 789 l 1222 118 q 1238 -1 1222 24 q 1207 -7 1222 -7 q 1125 128 1125 -7 l 1132 693 q 1115 814 1132 790 l 811 814 q 849 690 849 788 z "},"औ":{"ha":1367,"x_min":14,"x_max":1415,"o":"m 849 690 l 842 118 q 857 -1 842 24 q 826 -7 842 -7 q 746 125 746 -7 q 757 403 746 290 q 659 390 717 390 q 542 418 601 390 q 563 328 563 374 q 507 192 563 243 q 369 140 451 140 q 220 174 288 140 q 110 253 153 207 q 40 344 67 300 q 14 415 14 388 q 44 449 14 442 q 161 295 89 358 q 310 232 233 232 q 431 269 388 232 q 474 360 474 306 q 454 447 474 415 q 417 492 435 479 q 313 464 364 464 q 228 485 263 464 q 193 544 193 507 q 217 599 193 581 q 285 618 242 618 q 379 589 328 618 q 453 714 453 644 q 416 794 453 767 q 325 821 379 821 q 178 769 238 821 q 142 826 142 790 q 180 885 142 861 q 275 908 218 908 q 455 840 379 908 q 531 682 531 771 q 463 528 531 593 q 622 469 542 469 q 749 503 703 469 q 751 705 751 619 q 735 814 751 790 l 700 814 q 604 882 604 814 q 608 904 604 897 l 1132 904 q 899 1058 997 1058 q 814 986 829 1058 q 764 1008 786 986 q 742 1067 742 1031 q 772 1127 742 1103 q 847 1151 803 1151 q 1013 1090 929 1151 q 1157 947 1096 1028 q 1115 1107 1143 1038 q 1056 1205 1086 1176 q 991 1233 1026 1233 q 936 1201 956 1233 q 900 1258 900 1222 q 924 1317 900 1294 q 983 1339 949 1339 q 1083 1295 1039 1339 q 1153 1186 1128 1251 q 1204 933 1204 1050 q 1203 904 1204 914 l 1318 904 q 1390 887 1364 904 q 1415 838 1415 869 q 1411 814 1415 826 l 1192 814 q 1228 690 1228 789 l 1222 118 q 1238 -1 1222 24 q 1207 -7 1222 -7 q 1125 128 1125 -7 l 1132 693 q 1115 814 1132 790 l 811 814 q 849 690 849 788 z "},"क":{"ha":1031,"x_min":-61,"x_max":1078,"o":"m 464 421 l 465 693 q 450 814 465 793 l 35 814 q -61 882 -61 814 q -58 904 -61 896 l 982 904 q 1078 838 1078 904 q 1074 814 1078 819 l 526 814 q 560 710 560 789 q 554 568 560 631 q 710 647 614 647 q 886 565 807 647 q 965 379 965 483 q 910 247 965 303 q 768 192 856 192 q 700 213 728 192 q 672 265 672 235 q 675 283 672 276 q 714 279 706 279 q 841 324 799 279 q 883 428 883 368 q 842 526 883 489 q 744 564 800 564 q 638 528 688 564 q 560 425 589 492 q 557 124 557 228 q 572 -1 557 21 q 542 -7 557 -7 q 463 115 463 -7 q 475 288 463 203 q 316 203 418 203 q 135 285 214 203 q 57 471 57 367 q 112 603 57 547 q 254 658 167 658 q 322 637 294 658 q 350 585 350 615 q 346 567 350 578 q 308 571 318 571 q 181 526 224 571 q 139 421 139 481 q 181 324 139 361 q 278 286 222 286 q 384 322 335 286 q 464 421 433 357 z "},"ख":{"ha":1083,"x_min":-58,"x_max":1132,"o":"m 407 579 q 350 428 407 489 q 199 365 293 367 q 320 219 233 274 q 515 164 407 164 q 753 247 658 164 q 849 451 849 329 q 815 559 849 513 q 723 606 781 606 q 635 567 665 606 q 606 478 606 528 q 631 388 606 429 q 699 324 657 347 q 668 306 689 306 q 563 365 615 306 q 510 501 510 424 q 560 630 510 579 q 697 681 611 681 q 850 603 783 681 l 850 692 q 833 814 850 792 l 321 814 q 407 579 407 706 m 946 690 l 939 118 q 954 -1 939 24 q 924 -7 942 -7 q 847 111 847 -7 q 857 229 847 178 q 730 119 811 161 q 543 78 649 78 q 292 158 406 78 q 129 378 178 239 q 59 426 86 394 q 32 494 32 458 q 49 548 32 529 q 93 567 65 567 q 179 454 158 567 q 283 506 246 460 q 319 626 319 551 q 256 814 319 732 l 38 814 q -58 882 -58 814 q -56 904 -58 896 l 1036 904 q 1132 838 1132 904 q 1128 814 1132 826 l 910 814 q 946 690 946 789 z "},"ग":{"ha":788,"x_min":-67,"x_max":836,"o":"m 546 128 l 551 693 q 536 814 551 793 l 208 814 q 299 655 265 749 q 333 478 333 561 q 300 349 333 394 q 210 303 267 303 q 112 340 154 303 q 69 428 69 376 q 88 476 69 458 q 132 493 106 493 q 183 476 158 493 q 218 428 207 458 q 242 540 242 469 q 208 689 242 610 q 125 814 174 768 l 29 814 q -67 882 -67 814 q -64 904 -67 896 l 739 904 q 810 887 785 904 q 836 846 836 869 q 831 814 836 822 l 613 814 q 649 690 649 789 l 643 118 q 658 -1 643 21 q 622 -7 643 -7 q 583 6 601 -7 q 558 40 565 18 q 546 128 546 75 z "},"घ":{"ha":850,"x_min":-67,"x_max":899,"o":"m 171 675 q 203 578 171 622 q 306 610 256 610 q 388 590 357 610 q 418 538 418 571 q 391 487 418 504 q 327 469 364 469 q 249 485 290 469 q 200 385 200 449 q 248 283 200 321 q 369 246 296 246 q 508 285 442 246 q 613 392 575 325 q 615 684 615 578 q 600 814 615 790 l 231 814 q 171 675 171 761 m 711 690 l 706 118 q 721 -1 706 24 q 690 -7 706 -7 q 611 113 611 -7 q 621 256 611 189 q 417 164 542 164 q 203 245 292 164 q 114 408 114 326 q 160 542 114 489 q 86 706 86 613 q 119 819 86 767 q 24 814 69 814 q -67 882 -67 814 q -64 904 -67 896 l 801 904 q 873 887 847 904 q 899 838 899 869 q 894 814 899 826 l 675 814 q 711 690 711 789 z "},"ङ":{"ha":758,"x_min":-64,"x_max":806,"o":"m 594 530 q 594 545 594 530 q 612 578 594 561 q 660 596 629 596 q 717 569 690 596 q 744 513 744 543 q 727 464 744 482 q 678 446 710 446 q 621 472 647 446 q 594 530 594 499 m 457 346 l 325 338 q 167 399 242 338 q 92 536 92 460 q 140 651 92 613 q 265 689 188 689 q 390 688 342 689 q 458 742 458 688 q 417 814 458 782 l 33 814 q -64 882 -64 814 q -60 904 -64 892 l 710 904 q 806 838 806 904 q 801 814 806 819 l 490 814 q 544 701 544 763 q 511 630 544 661 q 400 599 478 599 l 303 600 q 211 580 251 600 q 171 517 171 560 q 199 452 171 474 q 275 431 228 431 l 406 438 q 563 372 499 438 q 628 228 628 306 q 565 102 628 151 q 417 53 503 53 q 258 76 332 53 q 135 131 185 99 q 56 199 86 164 q 25 258 25 233 q 49 289 25 282 q 361 144 161 144 q 492 175 436 144 q 547 263 547 206 q 524 323 547 300 q 457 346 500 346 z "},"च":{"ha":843,"x_min":-93,"x_max":892,"o":"m 706 690 l 700 118 q 715 -1 700 21 q 683 -7 708 -7 q 606 114 606 -7 q 617 275 606 204 q 540 215 588 236 q 444 193 493 193 q 247 269 333 193 q 161 450 161 344 q 215 564 161 518 q 103 554 147 554 q -4 624 -4 554 q 0 643 -4 636 l 369 643 q 465 576 465 643 q 460 554 465 571 l 404 554 q 284 512 329 554 q 239 410 239 469 q 285 313 239 350 q 395 276 331 276 q 517 314 460 276 q 606 426 574 351 q 608 692 608 593 q 593 814 608 790 l 3 814 q -93 882 -93 814 q -89 904 -93 897 l 796 904 q 892 838 892 904 q 888 814 892 826 l 669 814 q 706 690 706 789 z "},"छ":{"ha":914,"x_min":-61,"x_max":960,"o":"m 178 650 q 204 550 178 594 q 301 575 253 575 q 380 556 349 575 q 411 502 411 536 q 385 451 411 468 q 321 435 360 435 q 240 454 282 435 q 181 340 181 414 q 247 217 181 265 q 406 169 313 169 q 669 273 571 169 q 767 506 767 376 q 743 603 767 564 q 676 642 719 642 q 607 604 632 642 q 582 515 582 567 q 647 369 582 438 q 624 357 640 357 q 542 421 585 357 q 499 551 499 485 q 531 665 499 618 q 615 721 563 711 q 599 814 613 794 l 274 814 q 178 650 178 760 m 864 904 q 960 838 960 904 q 956 814 960 819 l 671 814 q 706 710 703 792 q 808 615 771 683 q 846 469 846 547 q 736 193 846 300 q 458 86 626 86 q 209 170 322 86 q 96 375 96 254 q 156 517 96 461 q 92 677 92 590 q 142 818 92 764 q 31 814 85 814 q -61 882 -61 814 q -57 904 -61 897 l 864 904 z "},"ज":{"ha":942,"x_min":-61,"x_max":989,"o":"m 700 128 l 704 521 l 436 521 q 529 322 529 428 q 483 206 529 249 q 363 163 436 163 q 219 214 289 163 q 109 335 150 265 q 44 467 68 404 q 21 556 21 529 q 32 591 21 582 q 56 600 43 600 q 161 374 94 474 q 242 288 196 319 q 336 256 288 256 q 413 285 385 256 q 442 360 442 314 q 365 521 442 444 l 342 521 q 246 589 246 521 q 249 611 246 603 l 706 611 l 706 692 q 690 814 706 792 l 35 814 q -61 882 -61 814 q -58 904 -61 896 l 893 904 q 989 838 989 904 q 985 814 989 819 l 767 814 q 803 690 803 789 l 797 118 q 813 -1 797 21 q 782 -7 797 -7 q 700 128 700 -7 z "},"झ":{"ha":1029,"x_min":-67,"x_max":1076,"o":"m 793 467 l 794 693 q 779 814 794 790 l 479 814 q 540 696 540 761 q 504 620 540 650 q 396 590 468 590 l 301 592 q 219 572 257 592 q 182 515 182 553 q 209 456 182 478 q 285 433 236 433 q 383 438 285 433 q 483 420 415 438 q 601 403 550 403 q 793 467 721 403 m 286 683 l 379 682 q 454 735 454 682 q 406 814 454 775 l 29 814 q -67 882 -67 814 q -64 904 -67 896 l 981 904 q 1076 838 1076 904 q 1072 814 1076 819 l 854 814 q 890 690 890 789 l 885 118 q 900 -1 885 24 q 869 -7 885 -7 q 789 120 789 -7 q 799 358 789 247 q 679 325 740 325 q 578 335 618 325 q 613 224 613 282 q 543 86 613 139 q 374 33 474 33 q 260 47 314 33 q 429 -92 332 -92 q 504 -62 475 -92 q 539 -116 539 -82 q 514 -170 539 -150 q 446 -190 489 -190 q 308 -124 375 -190 q 196 68 240 -57 q 101 130 138 92 q 65 217 65 168 q 82 259 65 242 q 130 276 99 276 q 188 240 161 276 q 225 149 214 204 q 340 124 265 124 q 474 158 415 124 q 532 251 532 192 q 505 320 532 294 q 428 346 478 346 l 329 342 q 174 405 249 342 q 100 540 100 468 q 149 647 100 611 q 286 683 199 683 z "},"ञ":{"ha":957,"x_min":-67,"x_max":1006,"o":"m 719 468 l 721 692 q 706 814 721 789 l 29 814 q -67 882 -67 814 q -64 904 -67 896 l 910 904 q 980 886 954 904 q 1006 838 1006 868 q 1001 814 1006 826 l 782 814 q 818 690 818 789 l 813 118 q 828 -1 813 21 q 796 -7 813 -7 q 715 128 715 -7 q 718 368 715 201 q 658 367 697 367 q 583 382 619 367 q 515 264 574 307 q 377 221 457 221 q 225 267 297 221 q 109 374 153 313 q 40 490 65 435 q 14 572 14 546 q 49 610 14 610 q 349 314 161 314 q 465 356 424 314 q 507 451 507 399 q 478 539 507 504 q 399 574 449 574 q 293 504 332 574 q 242 567 242 526 q 275 633 242 608 q 353 658 308 658 q 503 599 439 658 q 582 449 568 539 q 618 446 607 446 q 719 468 675 446 z "},"ट":{"ha":618,"x_min":-64,"x_max":667,"o":"m 571 904 q 641 886 615 904 q 667 838 667 868 q 663 814 667 826 l 417 814 q 463 716 463 771 q 428 624 463 661 q 344 561 393 586 q 244 509 294 536 q 160 439 194 482 q 125 333 125 396 q 179 225 125 271 q 308 179 233 179 q 445 224 383 179 q 519 343 507 268 q 569 322 549 342 q 590 268 590 301 q 522 153 590 204 q 346 103 453 103 q 137 183 239 103 q 35 371 35 263 q 70 491 35 439 q 156 574 106 543 q 256 629 206 604 q 341 683 306 654 q 376 751 376 713 q 339 814 376 789 l 33 814 q -64 882 -64 814 q -60 904 -64 892 l 571 904 z "},"ठ":{"ha":675,"x_min":-64,"x_max":724,"o":"m 320 158 q 361 158 320 158 q 466 213 401 158 q 531 347 531 268 q 473 482 531 426 q 315 551 415 538 q 178 460 211 493 q 124 328 124 404 q 181 205 124 251 q 320 158 239 158 m 628 904 q 724 838 724 904 q 719 814 724 826 l 406 814 q 453 706 453 769 q 381 592 453 642 q 558 490 493 568 q 624 313 624 411 q 547 148 624 215 q 353 81 469 81 q 135 166 236 81 q 35 369 35 251 q 69 488 35 436 q 151 572 103 540 q 250 628 200 603 q 367 747 367 690 q 329 814 367 789 l 33 814 q -64 882 -64 814 q -60 904 -64 892 l 628 904 z "},"ड":{"ha":656,"x_min":-64,"x_max":736,"o":"m 457 346 l 325 338 q 167 399 242 338 q 92 536 92 460 q 140 651 92 613 q 265 689 188 689 q 390 688 342 689 q 458 742 458 688 q 417 814 458 782 l 33 814 q -64 882 -64 814 q -60 904 -64 892 l 640 904 q 736 838 736 904 q 732 814 736 819 l 490 814 q 544 701 544 763 q 511 630 544 661 q 400 599 478 599 l 303 600 q 211 580 251 600 q 171 517 171 560 q 199 452 171 474 q 275 431 228 431 l 406 438 q 563 372 499 438 q 628 228 628 306 q 565 102 628 151 q 417 53 503 53 q 258 76 332 53 q 135 131 185 99 q 56 199 86 164 q 25 258 25 233 q 49 289 25 282 q 361 144 161 144 q 492 175 436 144 q 547 263 547 206 q 524 323 547 300 q 457 346 500 346 z "},"ढ":{"ha":665,"x_min":-68,"x_max":714,"o":"m 618 904 q 714 838 714 904 q 710 814 714 819 l 467 814 q 510 717 510 768 q 470 631 510 665 q 374 572 431 596 q 259 523 317 549 q 162 451 201 497 q 122 328 122 404 q 191 197 122 253 q 343 140 260 140 q 483 183 426 140 q 540 292 540 225 q 518 352 540 331 q 463 374 496 374 q 406 350 431 374 q 389 236 367 311 q 356 231 378 231 q 310 255 333 231 q 288 328 288 279 q 328 411 288 378 q 436 444 369 444 q 565 389 503 444 q 626 252 626 333 q 559 117 626 171 q 377 64 492 64 q 149 154 263 64 q 35 369 35 244 q 64 486 35 435 q 136 566 93 538 q 231 619 179 594 q 325 661 282 644 q 426 751 426 699 q 388 814 426 788 l 28 814 q -68 882 -68 814 q -65 904 -68 896 l 618 904 z "},"ण":{"ha":1014,"x_min":-67,"x_max":1063,"o":"m 189 690 l 188 514 q 219 385 189 435 q 314 335 250 335 q 443 581 443 335 q 413 814 443 740 l 153 814 q 189 690 189 789 m 774 128 l 779 693 q 764 814 779 790 l 469 814 q 520 680 501 764 q 539 517 539 596 q 488 319 539 381 q 349 258 438 258 q 177 336 260 258 q 92 518 94 414 l 92 693 q 76 814 92 793 l 29 814 q -67 882 -67 814 q -64 904 -67 896 l 967 904 q 1063 838 1063 904 q 1058 814 1063 826 l 840 814 q 876 690 876 789 l 871 118 q 886 -1 871 21 q 854 -7 871 -7 q 774 128 774 -7 z "},"त":{"ha":743,"x_min":-64,"x_max":790,"o":"m 503 128 l 507 511 l 343 511 q 171 363 171 511 q 210 190 171 278 q 317 38 250 103 q 283 18 308 18 q 206 74 257 18 q 115 223 156 131 q 74 405 74 315 q 135 548 74 494 q 289 601 197 601 q 508 588 381 601 l 508 692 q 493 814 508 792 l 33 814 q -64 882 -64 814 q -60 904 -64 892 l 694 904 q 790 838 790 904 q 786 814 790 819 l 569 814 q 606 690 606 789 l 600 118 q 615 -1 600 21 q 579 -7 600 -7 q 540 6 558 -7 q 514 40 522 18 q 503 128 503 75 z "},"थ":{"ha":860,"x_min":65,"x_max":908,"o":"m 722 690 l 717 118 q 732 -1 717 21 q 700 -7 717 -7 q 622 118 622 -7 q 633 283 622 201 q 403 199 535 199 q 169 281 272 199 q 65 440 65 364 q 222 561 65 500 q 331 629 282 585 q 381 722 381 674 q 355 797 381 769 q 287 824 329 824 q 215 792 244 824 q 185 711 185 761 q 221 628 185 661 q 201 622 213 622 q 128 664 160 622 q 97 765 97 706 q 142 866 97 825 q 249 907 186 907 q 397 838 332 907 q 463 683 463 769 q 415 569 463 619 q 311 494 368 519 q 161 392 161 428 q 217 318 161 353 q 347 283 274 283 q 496 314 419 283 q 621 410 572 344 q 625 717 625 676 q 616 781 625 757 q 581 821 607 804 q 540 882 540 846 q 544 904 540 897 l 813 904 q 908 838 908 904 q 904 814 908 826 l 682 814 q 722 690 722 789 z "},"द":{"ha":660,"x_min":-64,"x_max":697,"o":"m 601 904 q 672 886 646 904 q 697 838 697 868 q 693 814 697 826 l 497 814 q 533 726 533 775 q 493 644 533 678 q 396 590 453 611 q 281 546 339 569 q 183 480 224 522 q 143 367 143 438 q 203 254 143 297 q 338 211 264 211 q 461 236 411 211 q 435 307 435 275 q 454 360 435 339 q 510 382 474 382 q 573 348 546 382 q 600 264 600 314 q 560 178 600 214 q 625 14 625 83 q 601 -57 625 -31 q 545 -83 576 -83 q 492 -67 514 -83 q 465 -21 471 -50 q 519 1 499 -19 q 539 62 539 22 q 514 147 539 101 q 400 126 464 126 q 159 214 265 126 q 53 408 53 301 q 94 536 53 483 q 193 617 135 589 q 310 665 251 644 q 409 708 368 685 q 450 763 450 732 q 425 814 450 794 l 32 814 q -64 882 -64 814 q -60 904 -64 897 l 601 904 z "},"ध":{"ha":833,"x_min":-83,"x_max":882,"o":"m 696 690 l 689 118 q 704 -1 689 24 q 674 -7 689 -7 q 594 114 594 -7 q 604 256 594 190 q 399 164 524 164 q 186 242 274 164 q 99 401 99 319 q 143 533 99 482 q 69 696 69 603 q 121 819 69 768 q 7 814 50 814 q -83 882 -83 814 q -79 904 -83 897 l 229 904 q 325 838 325 904 q 321 814 325 819 l 296 814 q 192 769 231 814 q 154 668 154 724 q 185 569 154 613 q 286 603 235 603 q 369 583 338 603 q 400 531 400 564 q 373 480 400 497 q 309 463 346 463 q 231 478 272 463 q 185 378 185 438 q 231 282 185 318 q 349 246 278 246 q 488 285 419 246 q 594 392 557 325 q 599 644 599 531 q 589 781 599 757 q 547 826 579 804 q 514 882 514 847 q 517 904 514 896 l 786 904 q 882 838 882 904 q 878 814 882 826 l 654 814 q 696 690 696 788 z "},"न":{"ha":767,"x_min":-64,"x_max":814,"o":"m 525 128 l 529 511 l 256 511 q 167 486 203 511 q 131 417 131 461 q 162 344 131 372 q 233 315 193 315 q 299 337 274 315 q 326 390 324 358 q 329 421 332 404 q 383 394 363 418 q 403 331 403 371 q 369 260 403 292 q 279 229 336 229 q 119 302 197 229 q 42 450 42 375 q 93 563 42 525 q 232 601 144 601 q 531 586 369 601 l 531 692 q 515 814 531 792 l 33 814 q -64 882 -64 814 q -60 904 -64 892 l 718 904 q 814 838 814 904 q 810 814 814 819 l 592 814 q 628 690 628 789 l 622 118 q 638 -1 622 21 q 607 -7 622 -7 q 525 128 525 -7 z "},"ऩ":{"ha":767,"x_min":-64,"x_max":814,"o":"m 165 86 q 165 100 165 86 q 181 130 165 114 q 224 146 196 146 q 275 122 251 146 q 299 72 299 99 q 283 28 299 44 q 240 11 268 11 q 189 35 213 11 q 165 86 165 58 m 525 128 l 529 511 l 256 511 q 167 486 203 511 q 131 417 131 461 q 162 344 131 372 q 233 315 193 315 q 299 337 274 315 q 326 390 324 358 q 329 421 332 404 q 383 394 363 418 q 403 331 403 371 q 369 260 403 292 q 279 229 336 229 q 119 302 197 229 q 42 450 42 375 q 93 563 42 525 q 232 601 144 601 q 531 586 369 601 l 531 692 q 515 814 531 792 l 33 814 q -64 882 -64 814 q -60 904 -64 892 l 718 904 q 814 838 814 904 q 810 814 814 819 l 592 814 q 628 690 628 789 l 622 118 q 638 -1 622 21 q 607 -7 622 -7 q 525 128 525 -7 z "},"प":{"ha":764,"x_min":-65,"x_max":811,"o":"m 200 690 l 199 456 q 231 361 199 397 q 319 325 263 325 q 432 356 376 325 q 525 440 488 386 q 528 696 528 599 q 513 814 528 793 l 164 814 q 200 690 200 789 m 625 690 l 619 118 q 635 -1 619 21 q 604 -7 619 -7 q 522 119 522 -7 q 532 306 522 219 q 360 240 458 240 q 182 323 261 240 q 103 490 103 406 l 103 711 q 88 814 100 794 l 32 814 q -65 882 -65 814 q -61 904 -65 892 l 715 904 q 811 838 811 904 q 807 814 811 819 l 589 814 q 625 690 625 789 z "},"फ":{"ha":1067,"x_min":-65,"x_max":1126,"o":"m 199 690 l 196 461 q 228 367 196 403 q 314 331 261 331 q 413 359 367 331 q 489 438 460 388 q 492 693 492 596 q 476 814 492 790 l 163 814 q 199 690 199 789 m 100 494 l 101 706 q 86 814 101 792 l 32 814 q -65 882 -65 814 q -61 904 -65 892 l 1029 904 q 1101 887 1075 904 q 1126 838 1126 869 q 1122 814 1126 826 l 551 814 q 585 703 585 789 q 576 554 585 617 q 747 640 642 640 q 933 556 853 640 q 1013 365 1013 472 q 955 228 1013 285 q 806 171 897 171 q 734 193 765 171 q 703 249 703 215 q 707 269 703 258 q 776 261 744 261 q 890 309 849 264 q 931 416 931 354 q 888 517 931 478 q 785 557 844 557 q 672 520 725 557 q 586 418 618 483 q 582 149 582 275 q 597 -1 582 24 q 567 -7 582 -7 q 486 121 486 -7 q 493 297 486 225 q 361 246 435 246 q 179 327 258 246 q 100 494 100 408 z "},"ब":{"ha":756,"x_min":-61,"x_max":804,"o":"m 189 556 q 139 439 139 510 q 188 324 139 368 q 299 281 236 281 q 411 310 361 281 l 189 556 m 617 690 l 611 118 q 626 -1 611 24 q 596 -7 621 -7 q 517 115 517 -7 q 529 279 517 210 q 351 199 465 199 q 147 284 236 199 q 57 486 57 369 q 120 633 57 574 q 278 693 183 693 q 376 669 339 693 q 413 610 413 646 q 406 579 413 593 q 317 600 364 600 q 235 585 269 600 l 454 340 q 518 428 494 376 q 521 691 521 594 q 504 814 521 788 l 35 814 q -61 882 -61 814 q -58 904 -61 896 l 707 904 q 778 887 753 904 q 804 846 804 869 q 799 814 804 822 l 581 814 q 617 690 617 789 z "},"भ":{"ha":853,"x_min":3,"x_max":901,"o":"m 617 485 l 618 693 q 603 814 618 790 l 506 814 q 410 882 410 814 q 413 904 410 896 l 806 904 q 876 886 850 904 q 901 838 901 868 q 897 814 901 826 l 678 814 q 714 690 714 789 l 708 118 q 724 -1 708 24 q 693 -7 708 -7 q 611 126 611 -7 q 615 406 611 260 l 329 406 q 253 279 315 279 q 160 327 204 279 q 115 421 115 375 q 233 497 115 494 q 238 600 238 543 q 150 824 238 824 q 103 799 119 824 q 88 729 88 775 q 118 644 88 683 q 97 639 110 639 q 31 684 58 639 q 3 783 3 729 q 33 871 3 836 q 115 906 63 906 q 269 790 208 906 q 332 497 329 675 q 617 485 515 494 z "},"म":{"ha":818,"x_min":-67,"x_max":865,"o":"m 256 814 q 288 744 281 796 q 294 608 294 693 q 293 497 294 524 q 581 486 476 494 q 582 672 582 551 q 567 814 582 793 l 256 814 m 679 690 l 674 118 q 689 -1 674 21 q 658 -7 674 -7 q 576 128 576 -7 q 579 406 576 211 l 288 406 q 214 279 274 279 q 121 327 165 279 q 76 421 76 375 q 196 497 76 494 q 199 589 199 558 q 179 814 199 792 l 29 814 q -67 882 -67 814 q -64 904 -67 896 l 769 904 q 865 838 865 904 q 861 814 865 819 l 643 814 q 679 690 679 789 z "},"य":{"ha":811,"x_min":-47,"x_max":858,"o":"m 351 669 q 319 580 351 622 q 248 513 286 538 q 177 461 210 488 q 144 415 144 435 q 202 338 144 375 q 332 300 260 300 q 468 326 404 300 q 571 406 532 351 q 575 662 575 540 q 557 814 575 783 l 300 814 q 351 669 351 744 m 671 690 l 665 118 q 681 -1 665 24 q 650 -7 665 -7 q 572 118 572 -7 q 582 282 572 196 q 378 215 499 215 q 155 302 257 215 q 53 469 53 389 q 158 575 53 511 q 232 638 199 599 q 265 726 265 676 q 228 814 265 776 l 49 814 q -47 882 -47 814 q -44 904 -47 896 l 763 904 q 858 838 858 904 q 854 814 858 819 l 635 814 q 671 690 671 789 z "},"र":{"ha":549,"x_min":-64,"x_max":596,"o":"m 500 904 q 596 838 596 904 q 592 814 596 826 l 368 814 q 471 567 471 701 q 401 403 471 465 q 240 340 332 340 l 224 340 q 294 162 249 228 q 426 96 339 96 q 474 104 457 96 q 483 59 483 85 q 463 13 483 33 q 399 -7 442 -7 q 315 28 357 -7 q 244 121 274 63 q 161 353 189 228 q 68 411 104 372 q 32 504 32 450 q 51 557 32 535 q 101 579 71 579 q 206 438 175 579 l 213 438 q 337 488 292 439 q 382 604 382 536 q 290 814 382 740 l 32 814 q -64 882 -64 814 q -61 904 -64 896 l 500 904 z "},"ऱ":{"ha":549,"x_min":-64,"x_max":596,"o":"m 24 4 q 24 17 24 4 q 39 46 24 31 q 81 61 54 61 q 130 39 107 61 q 153 -10 153 17 q 138 -51 153 -36 q 97 -67 124 -67 q 47 -44 69 -67 q 24 4 24 -22 m 500 904 q 596 838 596 904 q 592 814 596 826 l 368 814 q 471 567 471 701 q 401 403 471 465 q 240 340 332 340 l 224 340 q 294 162 249 228 q 426 96 339 96 q 474 104 457 96 q 483 59 483 85 q 463 13 483 33 q 399 -7 442 -7 q 315 28 357 -7 q 244 121 274 63 q 161 353 189 228 q 68 411 104 372 q 32 504 32 450 q 51 557 32 535 q 101 579 71 579 q 206 438 175 579 l 213 438 q 337 488 292 439 q 382 604 382 536 q 290 814 382 740 l 32 814 q -64 882 -64 814 q -61 904 -64 896 l 500 904 z "},"ल":{"ha":1004,"x_min":-64,"x_max":1053,"o":"m 764 128 l 768 486 q 668 514 725 514 q 535 431 582 514 q 554 344 554 388 q 536 271 554 301 q 481 240 518 240 q 421 270 443 240 q 399 352 399 300 q 435 467 399 404 q 313 525 382 525 q 207 477 244 525 q 169 351 169 429 q 219 188 169 272 q 351 36 268 104 q 315 17 344 17 q 228 70 286 17 q 121 215 169 124 q 72 402 72 306 q 131 556 72 499 q 286 613 189 613 q 474 522 383 613 q 638 604 542 604 q 769 558 713 604 l 769 693 q 754 814 769 793 l 33 814 q -64 882 -64 814 q -60 904 -64 892 l 957 904 q 1053 838 1053 904 q 1049 814 1053 826 l 831 814 q 867 690 867 789 l 861 118 q 876 -1 861 21 q 840 -7 861 -7 q 801 6 819 -7 q 775 40 783 18 q 764 128 764 75 z "},"ळ":{"ha":986,"x_min":-61,"x_max":1033,"o":"m 643 247 q 683 247 643 247 q 781 298 724 247 q 838 417 838 349 q 801 524 838 486 q 706 563 764 563 q 596 500 638 563 q 537 389 567 457 q 493 294 507 321 q 643 247 563 247 m 377 299 q 396 327 377 299 q 442 419 415 356 q 483 508 469 483 q 335 557 417 557 q 197 506 254 557 q 139 387 139 456 q 176 280 139 318 q 276 242 214 242 q 377 299 339 242 m 938 904 q 1033 838 1033 904 q 1029 814 1033 826 l 694 814 q 731 635 731 786 q 866 538 810 611 q 922 377 922 464 q 855 225 922 290 q 688 160 788 160 q 565 188 622 160 q 476 265 508 217 q 311 160 411 160 q 133 241 211 160 q 56 418 56 322 q 123 579 56 514 q 290 644 190 644 q 413 616 356 644 q 501 539 469 588 q 640 643 557 631 q 622 814 640 783 l 35 814 q -61 882 -61 814 q -58 904 -61 896 l 938 904 z "},"ऴ":{"ha":986,"x_min":-61,"x_max":1033,"o":"m 140 18 q 140 31 140 18 q 156 60 140 44 q 197 75 171 75 q 247 53 224 75 q 269 4 269 31 q 255 -37 269 -22 q 213 -53 240 -53 q 163 -31 186 -53 q 140 18 140 -8 m 643 247 q 683 247 643 247 q 781 298 724 247 q 838 417 838 349 q 801 524 838 486 q 706 563 764 563 q 596 500 638 563 q 537 389 567 457 q 493 294 507 321 q 643 247 563 247 m 377 299 q 396 327 377 299 q 442 419 415 356 q 483 508 469 483 q 335 557 417 557 q 197 506 254 557 q 139 387 139 456 q 176 280 139 318 q 276 242 214 242 q 377 299 339 242 m 938 904 q 1033 838 1033 904 q 1029 814 1033 826 l 694 814 q 731 635 731 786 q 866 538 810 611 q 922 377 922 464 q 855 225 922 290 q 688 160 788 160 q 565 188 622 160 q 476 265 508 217 q 311 160 411 160 q 133 241 211 160 q 56 418 56 322 q 123 579 56 514 q 290 644 190 644 q 413 616 356 644 q 501 539 469 588 q 640 643 557 631 q 622 814 640 783 l 35 814 q -61 882 -61 814 q -58 904 -61 896 l 938 904 z "},"व":{"ha":747,"x_min":-61,"x_max":796,"o":"m 608 690 l 603 118 q 618 -1 603 24 q 588 -7 613 -7 q 508 115 508 -7 q 521 282 508 211 q 349 203 458 203 q 153 286 239 203 q 67 472 67 369 q 131 628 67 575 q 265 682 196 682 q 369 660 333 682 q 404 603 404 639 q 397 572 404 586 q 313 590 353 590 q 193 544 238 590 q 149 432 149 497 q 194 326 149 367 q 303 285 240 285 q 422 322 367 285 q 510 429 478 360 q 513 692 513 596 q 496 814 513 788 l 35 814 q -61 882 -61 814 q -58 904 -61 896 l 699 904 q 770 887 744 904 q 796 846 796 869 q 790 814 796 822 l 572 814 q 608 690 608 789 z "},"श":{"ha":981,"x_min":46,"x_max":1029,"o":"m 258 314 l 251 314 q 475 94 331 94 q 539 104 506 94 q 550 60 550 86 q 529 13 550 33 q 472 -7 508 -7 q 186 324 297 -7 q 85 380 125 340 q 46 468 46 419 q 64 516 46 496 q 117 536 82 536 q 181 496 151 536 q 224 403 210 456 q 400 468 333 406 q 467 642 467 531 q 433 769 467 715 q 343 824 400 824 q 278 795 303 824 q 254 722 254 767 q 285 637 254 678 q 364 575 317 596 q 329 554 353 554 q 217 615 274 554 q 161 745 161 675 q 201 861 161 815 q 306 907 242 907 q 479 808 404 907 q 554 591 554 708 q 469 394 554 474 q 258 314 383 314 m 739 128 l 746 693 q 736 781 746 757 q 693 826 726 804 q 660 882 660 847 q 664 904 660 892 l 932 904 q 1003 887 978 904 q 1029 838 1029 869 q 1025 814 1029 826 l 801 814 q 842 690 842 789 l 836 118 q 851 -1 836 24 q 821 -7 836 -7 q 739 128 739 -7 z "},"ष":{"ha":782,"x_min":-65,"x_max":829,"o":"m 544 451 l 546 693 q 531 814 546 790 l 169 814 q 278 726 208 794 q 544 451 347 657 m 200 679 l 199 456 q 231 361 199 397 q 322 325 263 325 q 514 406 429 325 q 192 732 318 619 q 200 679 200 708 m 643 690 l 638 118 q 653 -1 638 21 q 621 -7 638 -7 q 540 115 540 -7 q 550 310 540 236 q 365 240 469 240 q 182 323 261 240 q 103 490 103 406 l 103 706 q 88 814 103 792 l 32 814 q -65 882 -65 814 q -61 904 -65 892 l 733 904 q 829 838 829 904 q 825 814 829 819 l 607 814 q 643 690 643 789 z "},"स":{"ha":979,"x_min":-64,"x_max":1028,"o":"m 471 567 q 449 467 471 514 q 594 449 515 449 q 743 483 674 449 q 744 669 744 549 q 729 814 744 790 l 368 814 q 471 567 471 701 m 842 690 l 835 118 q 850 -1 835 24 q 819 -7 838 -7 q 739 128 739 -7 q 742 375 739 206 q 642 364 697 364 q 414 415 525 364 q 240 340 347 340 l 224 340 q 294 162 249 228 q 426 96 339 96 q 474 104 457 96 q 483 59 483 85 q 463 13 483 33 q 399 -7 442 -7 q 315 28 357 -7 q 244 121 274 63 q 161 353 189 228 q 68 411 104 372 q 32 504 32 450 q 51 557 32 535 q 101 579 71 579 q 206 438 175 579 l 213 438 q 337 488 292 439 q 382 604 382 536 q 290 814 382 740 l 32 814 q -64 882 -64 814 q -61 904 -64 896 l 932 904 q 1028 838 1028 904 q 1024 814 1028 826 l 806 814 q 842 690 842 789 z "},"ह":{"ha":678,"x_min":-64,"x_max":728,"o":"m 297 681 l 397 679 q 447 694 429 679 q 464 732 464 710 q 411 814 464 783 l 33 814 q -64 882 -64 814 q -60 904 -64 892 l 632 904 q 728 838 728 904 q 724 814 728 819 l 489 814 q 547 692 547 761 q 513 617 547 646 q 419 589 479 589 l 306 590 q 218 560 249 590 q 188 486 188 529 q 225 399 188 443 q 364 436 286 436 q 543 367 471 436 q 615 217 615 297 q 583 126 615 164 q 508 88 550 88 q 444 106 467 88 q 419 156 421 124 q 502 186 472 158 q 532 257 532 214 q 497 328 532 300 q 395 357 461 357 q 267 304 329 357 q 206 154 206 251 q 291 -4 206 57 q 496 -65 376 -65 q 539 -62 511 -65 q 542 -79 542 -68 q 474 -122 542 -122 q 222 -31 332 -122 q 113 196 113 60 q 181 363 113 294 q 104 517 104 444 q 151 635 104 590 q 297 681 199 681 z "},"़":{"ha":0,"x_min":-478,"x_max":-349,"o":"m -405 -229 q -418 -229 -405 -229 q -455 -207 -432 -229 q -478 -158 -478 -185 q -462 -117 -478 -132 q -421 -101 -447 -101 q -372 -124 -394 -101 q -349 -172 -349 -146 q -363 -214 -349 -199 q -405 -229 -378 -229 z "},"ऽ":{"ha":769,"x_min":126,"x_max":660,"o":"m 319 578 q 292 598 319 578 q 228 668 265 618 q 190 767 190 718 q 213 845 190 817 q 275 886 235 874 q 440 906 339 906 q 583 892 540 906 q 625 839 625 879 q 621 814 625 825 q 426 815 603 815 q 296 738 296 815 q 425 581 296 671 q 531 501 478 543 q 622 402 585 460 q 660 271 660 344 q 601 147 660 197 q 440 97 542 97 q 233 169 339 97 q 126 297 126 242 q 149 329 126 319 q 407 186 271 186 q 517 217 476 186 q 557 303 557 249 q 519 408 557 358 q 428 499 482 458 q 319 578 374 539 z "},"ा":{"ha":378,"x_min":-67,"x_max":426,"o":"m 136 128 l 142 693 q 126 814 142 793 l 29 814 q -67 882 -67 814 q -64 904 -67 896 l 329 904 q 401 887 375 904 q 426 846 426 869 q 421 814 426 822 l 203 814 q 239 690 239 789 l 233 118 q 249 -1 233 24 q 218 -7 233 -7 q 136 128 136 -7 z "},"ि":{"ha":378,"x_min":-67,"x_max":899,"o":"m 136 128 l 142 696 q 135 814 142 761 l 29 814 q -67 882 -67 814 q -64 904 -67 896 l 117 904 q 106 942 114 915 q 94 981 97 968 q 85 1065 85 1025 q 156 1215 85 1160 q 344 1271 226 1271 q 598 1219 461 1271 q 817 1107 735 1167 q 899 1017 899 1047 q 882 992 899 1001 q 635 1128 768 1074 q 379 1183 503 1183 q 236 1142 296 1183 q 176 1015 176 1101 q 196 904 176 963 l 329 904 q 401 887 375 904 q 426 846 426 869 q 421 814 426 822 l 225 814 q 239 697 239 758 l 233 118 q 249 -1 233 24 q 218 -7 233 -7 q 136 128 136 -7 z "},"ी":{"ha":378,"x_min":-285,"x_max":426,"o":"m 136 128 l 142 700 q 136 814 142 765 l 29 814 q -67 882 -67 814 q -64 904 -67 896 l 125 904 q 41 1113 99 1039 q -96 1186 -17 1186 q -167 1158 -139 1186 q -196 1085 -196 1129 q -157 994 -196 1040 q -181 985 -165 985 q -253 1027 -221 985 q -285 1130 -285 1069 q -242 1231 -285 1190 q -132 1272 -199 1272 q 74 1167 -19 1272 q 211 904 168 1063 l 329 904 q 401 887 375 904 q 426 846 426 869 q 421 814 426 822 l 231 814 q 239 697 239 756 l 233 118 q 249 -1 233 24 q 218 -7 233 -7 q 136 128 136 -7 z "},"ु":{"ha":0,"x_min":-569,"x_max":-7,"o":"m -7 -164 q -7 -201 -7 -164 q -65 -285 -7 -237 q -199 -332 -122 -332 q -344 -302 -275 -332 q -462 -231 -414 -272 q -540 -149 -510 -190 q -569 -82 -569 -108 q -546 -50 -569 -56 q -408 -193 -487 -139 q -249 -247 -328 -247 q -127 -213 -171 -247 q -83 -132 -83 -179 q -106 -83 -83 -103 q -160 -64 -128 -64 q -253 -129 -229 -64 q -297 -108 -281 -126 q -312 -60 -312 -89 q -283 -8 -312 -32 q -207 17 -253 17 q -69 -37 -132 17 q -7 -164 -7 -90 z "},"ू":{"ha":0,"x_min":-376,"x_max":175,"o":"m -178 -335 q -312 -276 -249 -335 q -376 -146 -376 -217 q -326 -31 -376 -75 q -200 13 -275 13 q -53 -22 -125 13 q 67 -103 18 -56 q 145 -199 115 -150 q 175 -279 175 -249 q 147 -312 175 -310 q 20 -145 100 -215 q -158 -75 -60 -75 q -256 -107 -217 -75 q -294 -176 -294 -139 q -225 -249 -294 -249 q -137 -197 -168 -249 q -99 -220 -112 -203 q -86 -265 -86 -237 q -113 -313 -86 -292 q -178 -335 -140 -335 z "},"ृ":{"ha":0,"x_min":-424,"x_max":7,"o":"m -187 -319 q -232 -319 -187 -319 q -350 -262 -276 -319 q -424 -122 -424 -206 q -365 13 -424 -39 q -236 65 -307 65 q -182 48 -204 65 q -160 -7 -160 31 q -290 -56 -243 -17 q -336 -146 -336 -96 q -304 -222 -336 -196 q -221 -249 -272 -249 q -121 -211 -169 -249 q -57 -114 -72 -174 q -12 -137 -31 -117 q 7 -186 7 -157 q -46 -278 7 -237 q -187 -319 -99 -319 z "},"ॄ":{"ha":0,"x_min":-390,"x_max":24,"o":"m 24 -442 q -18 -512 24 -483 q -125 -542 -60 -542 q -260 -485 -190 -542 q -329 -358 -329 -429 q -281 -247 -329 -287 q -359 -178 -328 -222 q -390 -76 -390 -135 q -343 24 -390 -18 q -236 65 -296 65 q -182 48 -204 65 q -160 -7 -160 31 q -267 -43 -229 -14 q -306 -111 -306 -72 q -281 -172 -306 -150 q -212 -194 -257 -194 q -132 -160 -167 -194 q -97 -202 -97 -171 q -121 -252 -97 -233 q -173 -281 -144 -271 q -225 -317 -201 -292 q -249 -378 -249 -342 q -225 -437 -249 -414 q -156 -464 -197 -464 q -78 -440 -114 -464 q -31 -381 -42 -417 q 8 -400 -8 -383 q 24 -442 24 -417 z "},"ॅ":{"ha":0,"x_min":-471,"x_max":49,"o":"m -222 1140 q -95 1169 -154 1140 q -7 1257 -36 1199 q 33 1236 17 1254 q 49 1193 49 1218 q -22 1098 49 1135 q -193 1061 -92 1061 q -383 1117 -294 1061 q -471 1221 -471 1174 q -449 1253 -471 1244 q -222 1140 -365 1140 z "},"ॆ":{"ha":0,"x_min":-682,"x_max":-131,"o":"m -610 1149 q -610 1132 -610 1149 q -588 1097 -610 1115 q -528 1079 -567 1079 q -425 1108 -490 1079 q -317 1138 -360 1138 q -187 1079 -243 1138 q -131 944 -131 1021 q -167 855 -131 892 q -258 818 -203 818 q -311 837 -289 818 q -333 876 -333 856 q -331 904 -333 897 q -244 925 -285 904 q -203 981 -203 946 q -224 1033 -203 1015 q -283 1050 -246 1050 q -387 1022 -321 1050 q -496 993 -454 993 q -626 1051 -569 993 q -682 1186 -682 1110 q -646 1274 -682 1238 q -554 1311 -610 1311 q -502 1293 -525 1311 q -479 1244 -479 1275 q -482 1226 -479 1233 q -569 1205 -528 1226 q -610 1149 -610 1183 z "},"े":{"ha":0,"x_min":-583,"x_max":-174,"o":"m -347 1095 q -374 1125 -347 1095 q -451 1154 -401 1154 q -524 1103 -501 1154 q -567 1131 -551 1108 q -583 1183 -583 1153 q -558 1237 -583 1214 q -481 1260 -532 1260 q -367 1210 -429 1260 q -265 1095 -306 1160 q -199 975 -225 1031 q -174 901 -174 919 q -207 867 -174 867 q -260 978 -229 921 q -347 1095 -292 1036 z "},"ै":{"ha":0,"x_min":-631,"x_max":-168,"o":"m -389 1339 q -289 1295 -333 1339 q -219 1186 -244 1251 q -168 933 -168 1050 q -208 867 -168 874 q -337 999 -265 939 q -476 1058 -410 1058 q -558 986 -543 1058 q -608 1008 -586 986 q -631 1067 -631 1031 q -600 1127 -631 1103 q -525 1151 -569 1151 q -360 1090 -443 1151 q -215 947 -276 1028 q -258 1107 -229 1038 q -316 1205 -286 1176 q -381 1233 -346 1233 q -436 1201 -417 1233 q -472 1258 -472 1222 q -448 1317 -472 1294 q -389 1339 -424 1339 z "},"ॉ":{"ha":378,"x_min":-101,"x_max":425,"o":"m 418 1193 q 348 1098 418 1135 q 176 1061 278 1061 q -13 1117 75 1061 q -101 1221 -101 1174 q -79 1253 -101 1244 q 147 1140 4 1140 q 274 1169 215 1140 q 363 1257 333 1199 q 402 1236 386 1254 q 418 1193 418 1218 m 135 128 l 140 693 q 125 814 140 793 l 28 814 q -68 882 -68 814 q -65 904 -68 896 l 328 904 q 399 887 374 904 q 425 846 425 869 q 419 814 425 822 l 201 814 q 238 690 238 789 l 232 118 q 247 -1 232 24 q 217 -7 232 -7 q 135 128 135 -7 z "},"ॊ":{"ha":378,"x_min":-297,"x_max":426,"o":"m 136 128 l 142 693 q 126 814 142 793 l 29 814 q -67 882 -67 814 q -64 904 -67 896 l 53 904 q 140 925 100 904 q 181 981 181 946 q 160 1033 181 1015 q 101 1050 139 1050 q -3 1022 64 1050 q -111 993 -69 993 q -241 1051 -185 993 q -297 1186 -297 1110 q -261 1274 -297 1238 q -171 1311 -225 1311 q -117 1293 -140 1311 q -94 1244 -94 1275 q -97 1226 -94 1240 q -184 1205 -143 1226 q -225 1149 -225 1183 q -204 1097 -225 1115 q -145 1079 -183 1079 q -42 1108 -107 1079 q 68 1138 24 1138 q 198 1079 142 1138 q 254 944 254 1021 q 247 904 254 925 l 329 904 q 401 887 375 904 q 426 846 426 869 q 421 814 426 822 l 203 814 q 239 690 239 789 l 233 118 q 249 -1 233 24 q 218 -7 233 -7 q 136 128 136 -7 z "},"ो":{"ha":378,"x_min":-204,"x_max":425,"o":"m 135 128 l 140 693 q 125 814 140 793 l 28 814 q -68 882 -68 814 q -65 904 -68 896 l 156 904 q 51 1077 111 1000 q -66 1154 -10 1154 q -144 1103 -122 1154 q -188 1131 -172 1108 q -204 1183 -204 1153 q -178 1237 -204 1214 q -102 1260 -153 1260 q 9 1212 -51 1260 q 110 1101 69 1164 q 177 982 151 1038 q 206 904 203 926 l 328 904 q 399 887 374 904 q 425 846 425 869 q 419 814 425 822 l 201 814 q 238 690 238 789 l 232 118 q 247 -1 232 24 q 217 -7 232 -7 q 135 128 135 -7 z "},"ौ":{"ha":378,"x_min":-247,"x_max":425,"o":"m 135 128 l 140 693 q 125 814 140 793 l 28 814 q -68 882 -68 814 q -65 904 -68 896 l 143 904 q -90 1058 8 1058 q -175 986 -160 1058 q -225 1008 -203 986 q -247 1067 -247 1031 q -217 1127 -247 1103 q -142 1151 -186 1151 q 24 1090 -60 1151 q 168 947 107 1028 q 126 1107 154 1038 q 67 1205 97 1176 q 2 1233 38 1233 q -53 1201 -33 1233 q -89 1258 -89 1222 q -65 1317 -89 1294 q -6 1339 -40 1339 q 94 1295 50 1339 q 164 1186 139 1251 q 215 933 215 1050 q 214 904 215 914 l 328 904 q 399 887 374 904 q 425 846 425 869 q 419 814 425 822 l 201 814 q 238 690 238 789 l 232 118 q 247 -1 232 24 q 217 -7 232 -7 q 135 128 135 -7 z "},"्":{"ha":0,"x_min":-301,"x_max":71,"o":"m -287 -149 q -301 -108 -301 -133 q -279 -64 -301 -83 q -209 -44 -257 -44 q -90 -92 -161 -44 q 26 -193 -19 -140 q 71 -267 71 -246 q 50 -296 71 -289 q -218 -132 -93 -132 q -287 -149 -254 -132 z "},"ॐ":{"ha":1326,"x_min":125,"x_max":1231,"o":"m 796 1166 q 796 1150 796 1166 q 778 1116 796 1135 q 727 1097 760 1097 q 667 1125 694 1097 q 639 1185 639 1153 q 658 1235 639 1217 q 708 1254 676 1254 q 767 1226 739 1254 q 796 1166 796 1197 m 992 1039 q 922 942 992 979 q 751 906 853 906 q 562 962 650 906 q 474 1065 474 1018 q 496 1097 474 1089 q 722 985 579 985 q 849 1014 790 985 q 938 1101 908 1043 q 976 1081 960 1099 q 992 1039 992 1064 m 975 775 q 1153 672 1075 775 q 1231 447 1231 569 q 1157 231 1231 324 q 981 139 1083 139 q 924 158 946 139 q 901 217 901 178 q 1076 301 1011 219 q 1142 507 1142 382 q 1108 629 1142 571 q 1013 688 1075 688 q 940 653 971 688 q 890 571 910 619 q 849 473 871 522 q 789 390 828 424 q 696 356 750 356 q 654 363 675 356 q 674 272 674 317 q 617 136 674 188 q 480 85 561 85 q 331 118 399 85 q 221 198 264 151 q 151 288 178 244 q 125 358 125 332 q 154 393 125 385 q 272 240 200 303 q 421 176 344 176 q 541 213 497 176 q 585 305 585 250 q 565 392 585 360 q 526 436 544 424 q 423 408 474 408 q 338 430 372 408 q 303 488 303 451 q 327 544 303 525 q 397 563 351 563 q 492 535 443 563 q 564 658 564 589 q 527 738 564 711 q 435 765 490 765 q 288 714 350 765 q 253 769 253 733 q 290 829 253 806 q 386 853 328 853 q 566 784 490 853 q 642 624 642 715 q 576 472 642 533 q 662 433 625 433 q 728 469 699 433 q 777 554 757 504 q 820 654 797 604 q 882 740 843 704 q 975 775 921 775 z "},"क़":{"ha":1031,"x_min":-61,"x_max":1078,"o":"m 161 81 q 161 94 161 81 q 176 122 161 107 q 218 138 192 138 q 267 115 244 138 q 290 67 290 93 q 276 25 290 40 q 234 10 261 10 q 184 32 207 10 q 161 81 161 54 m 464 421 l 465 693 q 450 814 465 793 l 35 814 q -61 882 -61 814 q -58 904 -61 896 l 982 904 q 1078 838 1078 904 q 1074 814 1078 819 l 526 814 q 560 710 560 789 q 554 568 560 631 q 710 647 614 647 q 886 565 807 647 q 965 379 965 483 q 910 247 965 303 q 768 192 856 192 q 700 213 728 192 q 672 265 672 235 q 675 283 672 276 q 714 279 706 279 q 841 324 799 279 q 883 428 883 368 q 842 526 883 489 q 744 564 800 564 q 638 528 688 564 q 560 425 589 492 q 557 124 557 228 q 572 -1 557 21 q 542 -7 557 -7 q 463 115 463 -7 q 475 288 463 203 q 316 203 418 203 q 135 285 214 203 q 57 471 57 367 q 112 603 57 547 q 254 658 167 658 q 322 637 294 658 q 350 585 350 615 q 346 567 350 578 q 308 571 318 571 q 181 526 224 571 q 139 421 139 481 q 181 324 139 361 q 278 286 222 286 q 384 322 335 286 q 464 421 433 357 z "},"ख़":{"ha":1083,"x_min":-58,"x_max":1132,"o":"m 79 4 q 79 17 79 4 q 94 46 79 31 q 136 61 110 61 q 185 39 163 61 q 208 -10 208 17 q 194 -51 208 -36 q 152 -67 179 -67 q 102 -44 125 -67 q 79 4 79 -22 m 407 579 q 350 428 407 489 q 199 365 293 367 q 320 219 233 274 q 515 164 407 164 q 753 247 658 164 q 849 451 849 329 q 815 559 849 513 q 723 606 781 606 q 635 567 665 606 q 606 478 606 528 q 631 388 606 429 q 699 324 657 347 q 668 306 689 306 q 563 365 615 306 q 510 501 510 424 q 560 630 510 579 q 697 681 611 681 q 850 603 783 681 l 850 692 q 833 814 850 792 l 321 814 q 407 579 407 706 m 946 690 l 939 118 q 954 -1 939 24 q 924 -7 942 -7 q 847 111 847 -7 q 857 229 847 178 q 730 119 811 161 q 543 78 649 78 q 292 158 406 78 q 129 378 178 239 q 59 426 86 394 q 32 494 32 458 q 49 548 32 529 q 93 567 65 567 q 179 454 158 567 q 283 506 246 460 q 319 626 319 551 q 256 814 319 732 l 38 814 q -58 882 -58 814 q -56 904 -58 896 l 1036 904 q 1132 838 1132 904 q 1128 814 1132 826 l 910 814 q 946 690 946 789 z "},"ग़":{"ha":788,"x_min":-67,"x_max":836,"o":"m 128 96 q 128 109 128 96 q 143 138 128 122 q 185 153 158 153 q 234 131 211 153 q 257 82 257 108 q 242 40 257 56 q 201 25 228 25 q 151 47 174 25 q 128 96 128 69 m 546 128 l 551 693 q 536 814 551 793 l 208 814 q 299 655 265 749 q 333 478 333 561 q 300 349 333 394 q 210 303 267 303 q 112 340 154 303 q 69 428 69 376 q 88 476 69 458 q 132 493 106 493 q 183 476 158 493 q 218 428 207 458 q 242 540 242 469 q 208 689 242 610 q 125 814 174 768 l 29 814 q -67 882 -67 814 q -64 904 -67 896 l 739 904 q 810 887 785 904 q 836 846 836 869 q 831 814 836 822 l 613 814 q 649 690 649 789 l 643 118 q 658 -1 643 21 q 622 -7 643 -7 q 583 6 601 -7 q 558 40 565 18 q 546 128 546 75 z "},"ज़":{"ha":942,"x_min":-61,"x_max":989,"o":"m 426 -1 q 426 12 426 -1 q 442 40 426 25 q 483 56 457 56 q 533 33 510 56 q 556 -15 556 11 q 541 -57 556 -42 q 499 -72 526 -72 q 449 -50 472 -72 q 426 -1 426 -28 m 700 128 l 704 521 l 436 521 q 529 322 529 428 q 483 206 529 249 q 363 163 436 163 q 219 214 289 163 q 109 335 150 265 q 44 467 68 404 q 21 556 21 529 q 32 591 21 582 q 56 600 43 600 q 161 374 94 474 q 242 288 196 319 q 336 256 288 256 q 413 285 385 256 q 442 360 442 314 q 365 521 442 444 l 342 521 q 246 589 246 521 q 249 611 246 603 l 706 611 l 706 692 q 690 814 706 792 l 35 814 q -61 882 -61 814 q -58 904 -61 896 l 893 904 q 989 838 989 904 q 985 814 989 819 l 767 814 q 803 690 803 789 l 797 118 q 813 -1 797 21 q 782 -7 797 -7 q 700 128 700 -7 z "},"ड़":{"ha":656,"x_min":-64,"x_max":736,"o":"m 275 -121 q 275 -108 275 -121 q 290 -79 275 -94 q 332 -64 306 -64 q 381 -86 358 -64 q 404 -135 404 -108 q 390 -176 404 -161 q 348 -192 375 -192 q 298 -169 321 -192 q 275 -121 275 -147 m 457 346 l 325 338 q 167 399 242 338 q 92 536 92 460 q 140 651 92 613 q 265 689 188 689 q 390 688 342 689 q 458 742 458 688 q 417 814 458 782 l 33 814 q -64 882 -64 814 q -60 904 -64 892 l 640 904 q 736 838 736 904 q 732 814 736 819 l 490 814 q 544 701 544 763 q 511 630 544 661 q 400 599 478 599 l 303 600 q 211 580 251 600 q 171 517 171 560 q 199 452 171 474 q 275 431 228 431 l 406 438 q 563 372 499 438 q 628 228 628 306 q 565 102 628 151 q 417 53 503 53 q 258 76 332 53 q 135 131 185 99 q 56 199 86 164 q 25 258 25 233 q 49 289 25 282 q 361 144 161 144 q 492 175 436 144 q 547 263 547 206 q 524 323 547 300 q 457 346 500 346 z "},"ढ़":{"ha":665,"x_min":-68,"x_max":714,"o":"m 290 -79 q 290 -66 290 -79 q 306 -37 290 -53 q 347 -22 321 -22 q 397 -44 374 -22 q 419 -93 419 -67 q 405 -135 419 -119 q 363 -150 390 -150 q 313 -128 336 -150 q 290 -79 290 -106 m 618 904 q 714 838 714 904 q 710 814 714 819 l 467 814 q 510 717 510 768 q 470 631 510 665 q 374 572 431 596 q 259 523 317 549 q 162 451 201 497 q 122 328 122 404 q 191 197 122 253 q 343 140 260 140 q 483 183 426 140 q 540 292 540 225 q 518 352 540 331 q 463 374 496 374 q 406 350 431 374 q 389 236 367 311 q 356 231 378 231 q 310 255 333 231 q 288 328 288 279 q 328 411 288 378 q 436 444 369 444 q 565 389 503 444 q 626 252 626 333 q 559 117 626 171 q 377 64 492 64 q 149 154 263 64 q 35 369 35 244 q 64 486 35 435 q 136 566 93 538 q 231 619 179 594 q 325 661 282 644 q 426 751 426 699 q 388 814 426 788 l 28 814 q -68 882 -68 814 q -65 904 -68 896 l 618 904 z "},"फ़":{"ha":1067,"x_min":-65,"x_max":1126,"o":"m 146 111 q 146 124 146 111 q 161 153 146 138 q 203 168 176 168 q 252 146 229 168 q 275 97 275 124 q 260 56 275 71 q 219 40 246 40 q 169 63 192 40 q 146 111 146 85 m 199 690 l 196 461 q 228 367 196 403 q 314 331 261 331 q 413 359 367 331 q 489 438 460 388 q 492 693 492 596 q 476 814 492 790 l 163 814 q 199 690 199 789 m 100 494 l 101 706 q 86 814 101 792 l 32 814 q -65 882 -65 814 q -61 904 -65 892 l 1029 904 q 1101 887 1075 904 q 1126 838 1126 869 q 1122 814 1126 826 l 551 814 q 585 703 585 789 q 576 554 585 617 q 747 640 642 640 q 933 556 853 640 q 1013 365 1013 472 q 955 228 1013 285 q 806 171 897 171 q 734 193 765 171 q 703 249 703 215 q 707 269 703 258 q 776 261 744 261 q 890 309 849 264 q 931 416 931 354 q 888 517 931 478 q 785 557 844 557 q 672 520 725 557 q 586 418 618 483 q 582 149 582 275 q 597 -1 582 24 q 567 -7 582 -7 q 486 121 486 -7 q 493 297 486 225 q 361 246 435 246 q 179 327 258 246 q 100 494 100 408 z "},"य़":{"ha":811,"x_min":-47,"x_max":858,"o":"m 125 81 q 125 94 125 81 q 140 122 125 107 q 182 138 156 138 q 231 115 208 138 q 254 67 254 93 q 240 25 254 40 q 198 10 225 10 q 148 32 171 10 q 125 81 125 54 m 351 669 q 319 580 351 622 q 248 513 286 538 q 177 461 210 488 q 144 415 144 435 q 202 338 144 375 q 332 300 260 300 q 468 326 404 300 q 571 406 532 351 q 575 662 575 540 q 557 814 575 783 l 300 814 q 351 669 351 744 m 671 690 l 665 118 q 681 -1 665 24 q 650 -7 665 -7 q 572 118 572 -7 q 582 282 572 196 q 378 215 499 215 q 155 302 257 215 q 53 469 53 389 q 158 575 53 511 q 232 638 199 599 q 265 726 265 676 q 228 814 265 776 l 49 814 q -47 882 -47 814 q -44 904 -47 896 l 763 904 q 858 838 858 904 q 854 814 858 819 l 635 814 q 671 690 671 789 z "},"ॠ":{"ha":1076,"x_min":-67,"x_max":1125,"o":"m 429 489 l 431 693 q 415 814 431 793 l 29 814 q -67 882 -67 814 q -64 904 -67 896 l 1029 904 q 1125 838 1125 904 q 1121 814 1125 826 l 492 814 q 528 701 528 789 q 525 451 528 613 q 594 443 558 443 q 753 486 700 443 q 707 588 707 544 q 728 653 707 631 q 785 676 749 676 q 853 640 821 676 q 885 551 885 603 q 847 449 885 500 q 914 323 914 371 q 860 224 914 275 q 807 138 807 172 q 828 85 807 103 q 891 67 850 67 q 972 101 932 67 q 1026 190 1011 136 q 1068 169 1051 188 q 1085 122 1085 150 q 1038 37 1085 74 q 917 0 992 0 q 783 48 843 0 q 724 165 724 96 q 751 235 724 204 q 806 294 778 267 q 833 349 833 322 q 807 411 833 375 q 638 358 738 358 q 525 376 582 358 q 522 115 522 210 q 538 -1 522 21 q 507 -7 522 -7 q 426 121 426 -7 q 442 347 426 249 q 110 196 226 196 q 50 215 75 196 q 25 275 25 233 q 397 435 158 275 q 334 474 376 447 q 271 514 292 501 q 169 550 211 550 q 67 478 83 550 q 17 550 17 494 q 49 616 17 590 q 131 642 81 642 q 230 618 182 642 q 337 551 278 594 q 429 489 396 507 z "},"ॡ":{"ha":985,"x_min":-67,"x_max":1044,"o":"m 700 690 q 699 593 700 626 q 822 502 772 567 q 872 370 872 438 q 833 250 872 303 q 756 155 794 197 q 718 80 718 113 q 739 26 718 47 q 790 6 760 6 q 890 75 868 6 q 946 13 946 58 q 920 -42 946 -19 q 863 -78 894 -65 q 806 -119 832 -92 q 781 -179 781 -146 q 802 -233 781 -212 q 863 -254 824 -254 q 938 -224 901 -254 q 985 -149 974 -194 q 1026 -169 1008 -150 q 1044 -224 1044 -189 q 1003 -291 1044 -258 q 890 -324 961 -324 q 760 -275 819 -324 q 700 -158 700 -226 q 747 -47 700 -90 q 670 21 701 -24 q 639 110 639 65 q 661 190 639 154 q 710 251 683 226 q 760 317 738 276 q 782 405 782 357 q 748 488 782 453 q 658 522 714 522 q 519 431 574 522 q 538 346 538 386 q 519 276 538 306 q 465 246 501 246 q 407 276 429 246 q 385 356 385 306 q 421 467 385 407 q 298 525 368 525 q 192 476 228 525 q 156 356 156 428 q 301 36 156 186 q 267 17 293 17 q 191 72 242 17 q 99 220 140 128 q 57 407 57 313 q 115 556 57 501 q 271 611 174 611 q 457 522 368 611 q 603 606 521 597 l 603 693 q 588 814 603 793 l 29 814 q -67 882 -67 814 q -64 904 -67 896 l 936 904 q 1032 838 1032 904 q 1028 814 1032 819 l 664 814 q 700 690 700 789 z "},"।":{"ha":600,"x_min":311,"x_max":431,"o":"m 319 128 l 326 785 q 311 904 326 883 q 348 910 326 910 q 387 897 369 910 q 411 861 404 885 q 422 775 422 825 l 415 118 q 431 -3 415 21 q 393 -7 414 -7 q 355 5 372 -7 q 331 39 338 17 q 319 128 319 76 z "},"॥":{"ha":896,"x_min":311,"x_max":751,"o":"m 319 128 l 326 785 q 311 904 326 883 q 348 910 326 910 q 387 897 369 910 q 411 861 404 885 q 422 775 422 825 l 415 118 q 431 -3 415 21 q 393 -7 414 -7 q 355 5 372 -7 q 331 39 338 17 q 319 128 319 76 m 640 128 l 649 785 q 633 904 649 883 q 669 910 649 910 q 708 897 690 910 q 733 861 726 885 q 744 775 744 825 l 736 118 q 751 -3 736 24 q 721 -7 736 -7 q 640 128 640 -7 z "},"०":{"ha":617,"x_min":72,"x_max":547,"o":"m 302 738 q 357 739 302 738 q 480 657 413 739 q 547 460 547 575 q 489 267 547 344 q 320 189 431 189 q 141 272 210 189 q 72 467 72 354 q 132 659 72 581 q 302 738 192 738 m 294 254 q 409 328 364 256 q 454 489 454 401 q 422 625 454 576 q 324 674 390 674 q 213 601 258 674 q 167 439 167 529 q 294 254 167 254 z "},"१":{"ha":581,"x_min":90,"x_max":510,"o":"m 510 650 q 477 542 510 592 q 399 463 444 493 q 307 408 353 432 q 228 365 261 385 q 196 326 196 344 q 229 272 196 307 q 302 204 263 238 q 375 125 342 171 q 408 38 408 79 q 385 -22 408 -3 q 325 -42 361 -42 q 268 -4 289 -42 q 307 64 307 25 q 273 144 307 103 q 199 218 239 186 q 90 360 90 304 q 125 424 90 396 q 210 476 160 453 q 310 525 260 499 q 394 594 360 551 q 429 688 429 638 q 399 776 429 739 q 313 814 368 814 q 226 780 258 814 q 194 693 194 746 q 274 567 194 618 q 239 554 261 554 q 144 606 188 554 q 100 727 100 657 q 151 847 100 797 q 283 896 201 896 q 438 823 365 896 q 510 650 510 750 z "},"२":{"ha":639,"x_min":65,"x_max":571,"o":"m 346 124 q 363 98 346 124 q 420 53 381 72 q 501 33 460 33 q 561 43 543 33 q 571 -1 571 26 q 550 -49 571 -29 q 484 -69 529 -69 q 392 -35 439 -69 q 311 56 346 -1 q 217 288 251 156 q 110 342 156 300 q 65 440 65 383 q 85 492 65 471 q 133 514 104 514 q 254 379 219 514 q 421 456 351 390 q 490 614 490 522 q 438 760 490 706 q 313 815 386 815 q 147 747 215 815 q 108 811 108 764 q 158 885 108 858 q 267 911 208 911 q 478 809 386 911 q 571 581 571 707 q 485 372 571 454 q 278 283 399 290 q 346 124 311 175 z "},"३":{"ha":635,"x_min":67,"x_max":560,"o":"m 464 531 q 560 335 560 435 q 491 176 560 235 q 315 118 422 118 q 251 124 281 118 q 350 -14 292 13 q 409 -25 376 -25 q 460 -12 442 -25 q 476 -61 476 -33 q 454 -109 476 -89 q 393 -129 432 -129 q 318 -103 354 -129 q 258 -33 282 -76 q 192 139 213 46 q 67 272 67 183 q 85 319 67 300 q 138 338 103 338 q 200 302 174 338 q 236 206 226 267 q 278 201 257 201 q 415 244 357 201 q 472 367 472 286 q 417 493 472 447 q 313 465 364 465 q 228 487 263 465 q 193 545 193 508 q 217 601 193 582 q 285 619 242 619 q 381 592 329 619 q 451 714 451 644 q 415 794 451 767 q 324 821 378 821 q 149 757 221 821 q 114 815 114 776 q 159 881 114 853 q 274 908 204 908 q 453 840 378 908 q 529 683 529 771 q 464 531 529 596 z "},"४":{"ha":663,"x_min":36,"x_max":614,"o":"m 189 289 q 189 262 189 289 q 227 196 189 235 q 323 157 265 157 q 419 197 381 157 q 457 293 457 236 q 336 492 457 390 q 227 390 265 436 q 189 289 189 343 m 386 529 q 513 406 467 465 q 558 272 558 346 q 500 141 558 197 q 361 85 442 85 q 176 160 254 85 q 97 310 97 236 q 138 441 97 385 q 253 557 179 497 q 93 688 128 649 q 36 801 36 749 q 63 878 36 854 q 120 903 89 903 q 172 884 151 903 q 193 839 193 865 q 159 819 175 835 q 143 771 143 804 q 183 695 143 738 q 303 594 224 653 q 465 724 431 689 q 526 847 526 788 q 521 882 526 867 l 540 886 q 594 863 574 886 q 614 806 614 839 q 599 741 614 774 q 567 686 583 708 q 511 629 551 664 q 386 529 467 590 z "},"५":{"ha":715,"x_min":50,"x_max":725,"o":"m 713 71 q 725 24 725 53 q 706 -26 725 -6 q 649 -46 686 -46 q 436 244 504 -46 q 367 236 403 236 q 142 320 235 236 q 50 518 50 404 q 85 658 50 586 q 172 783 121 731 q 278 868 222 835 q 374 901 335 901 q 431 881 414 901 q 447 840 447 860 q 239 703 333 808 q 144 482 144 599 q 187 363 144 410 q 300 315 229 315 q 417 332 371 315 q 404 413 404 368 q 431 483 404 457 q 494 510 457 510 q 558 479 531 510 q 586 396 586 449 q 492 263 586 308 q 553 116 514 169 q 668 63 593 63 q 713 71 692 63 z "},"६":{"ha":674,"x_min":65,"x_max":644,"o":"m 644 -3 q 618 -85 644 -51 q 556 -118 592 -118 q 499 -101 519 -118 q 475 -57 478 -83 q 538 -24 517 -49 q 558 44 558 0 q 519 149 558 88 q 386 118 461 118 q 180 206 269 118 q 90 386 90 294 q 144 536 90 478 q 65 707 65 608 q 136 857 65 806 q 291 908 207 908 q 433 875 375 908 q 492 793 492 842 q 469 758 492 769 q 323 824 408 824 q 193 780 238 824 q 149 678 149 736 q 189 572 149 621 q 294 606 242 606 q 377 586 346 606 q 408 533 408 567 q 380 483 408 500 q 313 465 351 465 q 233 481 275 465 q 175 360 175 435 q 223 242 175 286 q 340 199 271 199 q 463 229 408 199 q 435 302 435 265 q 458 361 435 339 q 517 383 481 383 q 581 350 553 383 q 608 267 608 317 q 563 178 608 217 q 644 -3 644 81 z "},"७":{"ha":799,"x_min":-4,"x_max":747,"o":"m 453 203 q 615 286 560 203 q 671 478 671 369 q 624 659 671 588 q 506 731 578 731 q 430 701 461 731 q 399 613 399 671 q 450 511 399 554 q 611 458 517 458 q 544 408 607 408 q 374 478 450 408 q 299 643 299 547 q 347 762 299 714 q 469 810 394 810 q 667 704 586 810 q 747 448 747 599 q 673 203 747 297 q 481 108 599 108 q 276 174 364 108 q 138 332 189 239 q 53 536 88 425 q -4 856 -4 722 q 46 910 -4 910 q 186 394 82 586 q 453 203 290 203 z "},"८":{"ha":599,"x_min":43,"x_max":578,"o":"m 519 321 q 578 240 578 299 q 515 126 578 182 q 342 71 453 71 q 138 149 232 71 q 43 341 43 228 q 142 569 43 454 l 451 926 q 497 864 497 914 q 463 784 497 828 q 403 713 428 740 q 338 638 379 685 q 265 554 296 592 q 136 306 136 399 q 178 197 136 236 q 290 157 221 157 q 424 197 360 157 q 519 321 488 238 z "},"९":{"ha":549,"x_min":35,"x_max":503,"o":"m 180 771 q 159 748 180 771 q 138 658 138 725 q 174 527 138 592 q 263 410 211 463 q 367 308 314 358 q 492 89 492 185 q 465 10 492 39 q 400 -18 438 -18 q 328 35 349 -18 q 390 115 390 53 q 264 322 390 193 q 160 431 213 375 q 72 556 108 488 q 35 701 35 625 q 94 838 35 778 q 255 897 154 897 q 429 820 356 897 q 503 658 503 743 q 454 519 503 574 q 340 465 406 465 q 295 481 314 465 q 269 519 276 496 q 407 692 407 567 q 371 781 407 744 q 278 817 335 817 q 180 771 222 817 z "},"॰":{"ha":556,"x_min":74,"x_max":490,"o":"m 490 440 q 490 399 490 440 q 435 294 490 357 q 282 231 381 231 q 128 288 183 231 q 74 430 74 346 q 129 578 74 514 q 283 642 185 642 q 435 583 381 642 q 490 440 490 524 m 410 435 q 410 464 410 435 q 378 537 410 493 q 285 581 346 581 q 190 538 225 581 q 156 438 156 496 q 189 337 156 381 q 282 293 222 293 q 376 335 342 293 q 410 435 410 378 z "},"ॲ":{"ha":989,"x_min":14,"x_max":1038,"o":"m 1028 1193 q 958 1098 1028 1135 q 786 1061 888 1061 q 597 1117 685 1061 q 508 1221 508 1174 q 531 1253 508 1244 q 757 1140 614 1140 q 884 1169 825 1140 q 972 1257 943 1199 q 1012 1236 996 1254 q 1028 1193 1028 1218 m 849 690 l 842 118 q 857 -1 842 24 q 826 -7 842 -7 q 746 125 746 -7 q 757 403 746 290 q 659 390 717 390 q 542 418 601 390 q 563 328 563 374 q 507 192 563 243 q 369 140 451 140 q 220 174 288 140 q 110 253 153 207 q 40 344 67 300 q 14 415 14 388 q 44 449 14 442 q 161 295 89 358 q 310 232 233 232 q 431 269 388 232 q 474 360 474 306 q 454 447 474 415 q 417 492 435 479 q 313 464 364 464 q 228 485 263 464 q 193 544 193 507 q 217 599 193 581 q 285 618 242 618 q 379 589 328 618 q 453 714 453 644 q 416 794 453 767 q 325 821 379 821 q 178 769 238 821 q 142 826 142 790 q 180 885 142 861 q 275 908 218 908 q 455 840 379 908 q 531 682 531 771 q 463 528 531 593 q 622 469 542 469 q 749 503 703 469 q 751 705 751 619 q 735 814 751 790 l 700 814 q 604 882 604 814 q 608 904 604 897 l 940 904 q 1012 887 986 904 q 1038 838 1038 869 q 1033 814 1038 826 l 811 814 q 849 690 849 788 z "},"ॽ":{"ha":786,"x_min":156,"x_max":651,"o":"m 392 281 l 389 110 q 404 1 389 28 q 368 -6 389 -6 q 292 147 292 -6 q 299 358 292 300 q 328 451 307 417 q 423 560 350 492 q 511 647 496 629 q 544 699 526 665 q 561 772 561 732 q 524 846 561 813 q 424 879 486 879 q 204 786 297 879 q 156 856 156 807 q 219 937 156 906 q 356 968 282 968 q 566 894 481 968 q 651 718 651 821 q 608 603 651 658 q 525 511 567 551 q 451 438 483 471 q 406 376 419 406 q 392 281 392 347 z "},"​":{"ha":0,"x_min":0,"x_max":0,"o":""},"‌":{"ha":3,"x_min":-33,"x_max":53,"o":"m -26 -418 l -28 1017 q 31 1101 -28 1101 q 53 1096 43 1101 q 46 1039 46 1083 l 47 -396 q -11 -481 47 -481 q -33 -475 -24 -481 q -26 -418 -26 -462 z "},"‍":{"ha":0,"x_min":-207,"x_max":185,"o":"m 25 849 l 26 -396 q -32 -481 26 -481 q -54 -475 -44 -481 q -47 -377 -47 -462 q -48 197 -47 -292 q -49 847 -49 686 l -103 797 q -166 764 -136 764 q -207 799 -196 764 l -64 932 l -207 1067 q -163 1100 -193 1100 q -101 1068 -133 1100 l -11 983 l 79 1068 q 141 1100 111 1100 q 185 1067 171 1100 l 42 932 l 185 799 q 144 764 174 764 q 81 797 114 764 l 25 849 z "},"–":{"ha":910,"x_min":83,"x_max":826,"o":"m 188 526 l 821 526 q 826 503 826 515 q 721 429 826 429 l 90 429 q 83 454 83 443 q 188 526 83 526 z "},"—":{"ha":1490,"x_min":83,"x_max":1407,"o":"m 188 526 l 1401 526 q 1407 503 1407 515 q 1301 429 1407 429 l 90 429 q 83 454 83 443 q 188 526 83 526 z "},"‘":{"ha":311,"x_min":56,"x_max":254,"o":"m 160 1063 q 185 976 160 1014 q 254 926 211 938 q 228 873 251 896 q 169 850 204 850 q 86 897 117 850 q 56 1004 56 943 q 102 1172 56 1101 q 200 1243 149 1243 q 235 1215 229 1243 q 160 1063 160 1164 z "},"’":{"ha":311,"x_min":56,"x_max":254,"o":"m 151 1051 q 126 1138 151 1100 q 56 1186 100 1176 q 83 1240 58 1217 q 142 1263 107 1263 q 224 1217 194 1263 q 254 1110 254 1171 q 208 941 254 1013 q 113 869 163 869 q 78 897 82 869 q 151 1051 151 950 z "},"‚":{"ha":1000,"x_min":93,"x_max":293,"o":"m 188 -44 q 163 44 188 6 q 93 94 138 82 q 120 150 96 126 q 179 174 144 174 q 263 126 232 174 q 293 14 293 78 q 246 -158 293 -85 q 146 -232 199 -232 q 111 -201 115 -232 q 188 -44 188 -147 z "},"“":{"ha":590,"x_min":100,"x_max":490,"o":"m 204 1063 q 230 976 204 1014 q 299 926 256 938 q 272 873 296 896 q 213 850 247 850 q 130 897 160 850 q 100 1004 100 943 q 147 1172 100 1101 q 244 1243 193 1243 q 279 1215 274 1243 q 204 1063 204 1164 m 394 1063 q 420 976 394 1014 q 490 926 446 938 q 463 873 488 896 q 404 850 438 850 q 320 897 350 850 q 290 1004 290 943 q 337 1172 290 1100 q 435 1243 383 1243 q 469 1215 465 1243 q 394 1063 394 1164 z "},"”":{"ha":590,"x_min":56,"x_max":533,"o":"m 151 1032 q 125 1119 151 1081 q 56 1168 99 1157 q 83 1221 58 1199 q 142 1243 107 1243 q 224 1197 194 1243 q 254 1090 254 1151 q 208 922 254 993 q 113 850 163 850 q 78 878 82 850 q 151 1032 151 931 m 431 1032 q 404 1118 431 1079 q 335 1168 378 1157 q 362 1221 338 1199 q 421 1243 386 1243 q 503 1197 474 1243 q 533 1090 533 1151 q 488 922 533 993 q 390 850 442 850 q 356 878 360 850 q 431 1032 431 932 z "},"„":{"ha":1000,"x_min":93,"x_max":293,"o":"m 188 -44 q 163 44 188 6 q 93 94 138 82 q 120 150 96 126 q 179 174 144 174 q 263 126 232 174 q 293 14 293 78 q 246 -158 293 -85 q 146 -232 199 -232 q 111 -201 115 -232 q 188 -44 188 -147 z "},"†":{"ha":911,"x_min":74,"x_max":818,"o":"m 396 574 l 401 736 q 78 732 101 732 q 74 757 74 749 q 178 829 74 829 q 401 824 251 826 q 394 1032 396 963 q 468 1139 394 1139 q 496 1132 485 1139 q 489 1044 489 1110 l 489 822 q 814 829 592 829 q 818 803 818 808 q 713 732 818 732 q 488 736 704 732 q 494 -233 494 667 q 417 -344 494 -344 q 385 -342 397 -344 q 397 -253 396 -321 q 397 -31 397 -185 l 396 574 z "},"‡":{"ha":885,"x_min":74,"x_max":819,"o":"m 489 -31 l 494 -237 q 422 -344 494 -344 q 393 -337 407 -344 q 401 -186 401 -318 q 403 -31 401 -54 q 78 -36 300 -36 q 74 -10 74 -28 q 179 61 74 61 l 401 57 q 397 403 397 133 l 401 736 q 78 732 101 732 q 74 757 74 749 q 178 829 74 829 q 401 824 251 826 q 394 1032 396 963 q 468 1139 394 1139 q 496 1132 485 1139 q 489 1044 489 1110 l 489 822 q 814 829 592 829 q 818 803 818 808 q 713 732 818 732 q 488 736 704 732 q 492 389 492 696 q 489 57 493 82 l 813 61 q 819 36 819 51 q 714 -36 819 -36 q 489 -31 636 -33 z "},"•":{"ha":524,"x_min":110,"x_max":406,"o":"m 278 707 q 308 707 278 707 q 372 672 338 707 q 406 575 406 636 q 353 462 406 514 q 240 410 301 410 q 144 445 179 410 q 110 541 110 481 q 164 654 110 601 q 278 707 218 707 z "},"…":{"ha":1190,"x_min":150,"x_max":1040,"o":"m 251 178 q 269 178 251 178 q 308 156 288 178 q 329 99 329 135 q 297 30 329 63 q 228 -3 265 -3 q 171 19 192 -3 q 150 76 150 40 q 183 145 150 113 q 251 178 215 178 m 607 178 q 625 178 607 178 q 664 156 643 178 q 685 99 685 135 q 653 30 685 63 q 584 -3 621 -3 q 526 19 547 -3 q 506 76 506 40 q 538 145 506 113 q 607 178 571 178 m 963 178 q 981 178 963 178 q 1019 156 999 178 q 1040 99 1040 135 q 1008 30 1040 63 q 940 -3 976 -3 q 882 19 903 -3 q 861 76 861 40 q 894 145 861 113 q 963 178 926 178 z "},"‰":{"ha":1657,"x_min":113,"x_max":1544,"o":"m 1544 276 q 1544 221 1544 276 q 1481 76 1544 165 q 1326 -12 1418 -12 q 1184 63 1233 -12 q 1135 248 1135 138 q 1195 448 1135 358 q 1348 538 1256 538 q 1492 463 1440 538 q 1544 276 1544 388 m 1456 265 q 1456 304 1456 265 q 1426 397 1456 343 q 1342 450 1396 450 q 1255 394 1289 450 q 1221 258 1221 338 q 1253 126 1221 179 q 1338 74 1286 74 q 1422 130 1389 74 q 1456 265 1456 186 m 522 748 q 522 692 522 748 q 459 547 522 636 q 303 458 396 458 q 162 533 211 458 q 113 718 113 607 q 172 918 113 829 q 326 1007 232 1007 q 471 933 419 1007 q 522 748 522 860 m 435 738 q 435 776 435 738 q 404 868 435 815 q 320 921 374 921 q 233 865 267 921 q 199 730 199 808 q 231 599 199 651 q 315 546 264 546 q 401 603 367 546 q 435 738 435 660 m 868 963 q 935 1007 904 1007 q 986 981 965 1007 q 946 938 975 976 l 311 35 q 246 -12 278 -12 q 196 15 214 -12 q 233 58 211 26 l 868 963 m 1067 276 q 1067 221 1067 276 q 1003 76 1067 165 q 848 -12 940 -12 q 706 63 756 -12 q 657 248 657 138 q 717 448 657 358 q 871 538 778 538 q 1015 463 964 538 q 1067 276 1067 388 m 978 264 q 978 303 978 264 q 948 397 978 343 q 865 450 918 450 q 777 394 811 450 q 743 258 743 338 q 776 126 743 179 q 860 74 808 74 q 945 129 913 74 q 978 264 978 185 z "},"‹":{"ha":540,"x_min":108,"x_max":432,"o":"m 432 882 q 295 702 338 775 q 253 562 253 629 q 296 420 253 494 q 432 243 339 346 q 391 214 419 214 q 294 278 363 214 q 167 428 225 343 q 108 562 108 513 q 167 697 108 611 q 294 847 225 782 q 391 911 363 911 q 432 882 419 911 z "},"›":{"ha":540,"x_min":108,"x_max":432,"o":"m 245 847 q 280 814 245 847 q 373 697 314 782 q 432 562 432 611 q 374 428 432 513 q 246 278 315 343 q 147 214 176 214 q 122 224 133 214 q 108 243 111 235 q 244 420 201 346 q 286 562 286 494 q 244 703 286 629 q 108 882 201 776 q 122 901 111 890 q 147 911 133 911 q 245 847 176 911 z "},"⁄":{"ha":868,"x_min":38,"x_max":829,"o":"m 711 963 q 776 1007 742 1007 q 829 981 810 1007 q 790 938 819 976 l 157 35 q 89 -12 121 -12 q 38 15 57 -12 q 76 58 54 25 l 711 963 z "},"€":{"ha":960,"x_min":53,"x_max":910,"o":"m 288 496 l 289 439 l 661 439 q 667 417 667 431 q 564 351 667 351 l 303 351 q 410 158 331 225 q 610 92 490 92 q 764 126 692 92 q 881 207 836 160 q 908 163 908 203 q 810 49 908 111 q 569 -12 713 -12 q 314 85 425 -12 q 172 351 203 183 l 58 351 q 53 375 53 363 q 156 439 53 439 l 163 439 q 161 474 161 450 q 164 546 161 499 l 58 546 q 53 569 53 557 q 156 633 53 633 l 179 633 q 343 907 221 807 q 628 1007 465 1007 q 828 959 747 1007 q 910 843 910 911 q 887 790 910 810 q 833 771 864 771 q 781 781 801 771 q 782 797 782 789 q 740 880 782 843 q 601 917 697 917 q 418 844 504 917 q 301 633 332 771 l 661 633 q 667 613 667 625 q 564 546 667 546 l 289 546 q 288 496 288 529 z "},"₹":{"ha":625,"x_min":11,"x_max":664,"o":"m 664 676 q 576 614 664 614 l 518 614 q 521 567 521 583 q 458 385 521 460 q 293 301 396 311 q 501 72 358 72 q 554 79 526 72 q 554 60 554 75 q 535 19 554 46 q 453 -7 515 -7 q 333 44 390 -7 q 245 163 276 96 q 193 313 214 229 q 117 358 147 328 q 86 421 86 388 q 104 474 86 454 q 153 493 122 493 q 278 365 240 493 q 390 433 347 379 q 433 568 433 488 q 429 614 433 592 l 15 614 q 11 636 11 619 q 99 697 11 697 l 403 697 q 315 822 371 771 l 15 822 q 11 843 11 826 q 99 904 11 904 l 660 904 q 664 883 664 892 q 576 822 664 822 l 422 822 q 496 697 468 768 l 660 697 q 664 676 664 685 z "},"™":{"ha":1301,"x_min":39,"x_max":1218,"o":"m 108 1003 l 431 1003 q 478 960 478 1003 q 464 924 478 933 q 410 936 444 936 l 303 936 l 303 475 q 322 442 303 450 q 272 417 311 417 q 218 474 218 417 l 218 936 l 86 936 q 39 976 39 936 q 51 1015 39 997 q 108 1003 72 1003 m 1175 417 q 1115 472 1121 417 l 1088 896 l 901 451 q 872 431 893 431 q 842 450 850 431 l 674 868 l 646 475 q 597 417 642 417 q 547 433 564 417 q 563 476 563 443 l 599 950 q 589 993 600 974 q 649 1011 615 1011 q 715 956 694 1011 l 881 560 l 1040 942 q 1076 997 1058 982 q 1127 1011 1094 1011 q 1179 994 1160 1011 q 1169 971 1169 985 q 1169 951 1169 957 l 1203 478 q 1218 429 1206 443 q 1175 417 1199 417 z "},"−":{"ha":815,"x_min":36,"x_max":781,"o":"m 140 610 l 778 610 q 781 588 781 601 q 678 514 781 514 l 42 514 q 36 539 36 525 q 140 610 36 610 z "},"◌":{"ha":1004,"x_min":149,"x_max":861,"o":"m 156 378 l 286 407 q 310 342 292 385 l 196 275 q 156 378 165 328 m 283 454 l 149 454 q 164 563 149 508 l 293 521 q 283 454 283 490 m 242 214 l 338 303 q 392 257 356 281 l 329 147 q 242 214 272 178 m 267 715 l 354 618 q 311 564 326 596 l 196 632 q 267 715 225 681 m 504 229 l 504 106 q 397 119 447 106 l 436 239 q 504 229 467 229 m 724 454 l 861 454 q 843 344 861 396 l 715 386 q 724 454 724 428 m 432 796 l 460 669 q 393 646 425 661 l 329 758 q 432 796 375 785 m 578 111 l 551 233 q 617 258 596 246 l 679 147 q 578 111 635 122 m 504 674 l 504 801 q 613 786 560 801 l 571 663 q 504 674 540 674 m 743 190 l 654 286 q 696 342 683 315 l 811 275 q 743 190 785 225 m 768 692 l 668 601 q 615 644 647 626 l 681 758 q 768 692 728 732 m 813 631 q 851 526 843 582 l 718 499 q 696 564 714 532 l 813 631 z "},"ﬁ":{"ha":810,"x_min":49,"x_max":718,"o":"m 683 608 l 683 86 q 718 32 683 47 q 646 -12 690 -12 q 569 85 569 -12 l 569 618 l 288 617 l 288 -176 q 252 -302 288 -260 q 163 -344 217 -344 q 57 -274 88 -344 q 146 -245 121 -274 q 171 -150 171 -217 l 171 618 q 49 671 49 625 q 67 711 49 693 q 160 704 115 704 l 171 704 l 171 803 q 249 994 171 932 q 440 1056 328 1056 q 623 1017 551 1056 q 694 924 694 979 q 657 864 694 885 q 613 851 635 851 q 569 858 590 851 q 432 969 535 969 q 288 808 288 969 l 288 704 l 608 704 q 683 608 683 704 z "},"ﬂ":{"ha":819,"x_min":49,"x_max":718,"o":"m 683 919 l 683 86 q 718 32 683 47 q 646 -12 690 -12 q 569 85 569 -12 l 569 950 q 447 975 517 975 q 332 937 376 975 q 288 819 288 899 l 288 646 l 450 646 q 458 621 458 636 q 416 576 458 596 q 301 557 374 557 l 288 557 l 288 -176 q 252 -302 288 -260 q 163 -344 217 -344 q 57 -274 88 -344 q 146 -245 121 -274 q 171 -150 171 -217 l 171 558 q 49 613 49 565 q 67 653 49 632 q 160 646 99 646 l 171 646 l 171 815 q 244 994 171 933 q 435 1056 317 1056 q 618 1020 553 1056 q 683 919 683 985 z "}," ":{"ha":378,"x_min":0,"x_max":0,"o":""}}}
